<mxfile host="Electron" modified="2023-12-17T21:07:21.666Z" agent="Mozilla/5.0 (X11; Linux x86_64) AppleWebKit/537.36 (KHTML, like Gecko) draw.io/22.1.2 Chrome/114.0.5735.289 Electron/25.9.4 Safari/537.36" etag="4U6URZduW9PfNUsOCTm9" version="22.1.2" type="device">
  <diagram name="StrÃ¡nka-1" id="Fqd0YwMe7gZP75VHt5iO">
    <mxGraphModel dx="1114" dy="963" grid="1" gridSize="10" guides="1" tooltips="1" connect="1" arrows="1" fold="1" page="1" pageScale="1" pageWidth="827" pageHeight="1169" math="0" shadow="0">
      <root>
        <mxCell id="0" />
        <mxCell id="1" parent="0" />
        <mxCell id="s_b_cYuPZwbkjftlkVLz-1" value="" style="shape=image;verticalLabelPosition=bottom;labelBackgroundColor=default;verticalAlign=top;aspect=fixed;imageAspect=0;image=data:image/png,iVBORw0KGgoAAAANSUhEUgAAAxcAAAHRCAYAAAAYDkS8AAAACXBIWXMAAA7EAAAOxAGVKw4bAAAgAElEQVR4nOzde1wU9f4/8Be20gVLRRAvEBiipgez5OSFTmpZoqKWiiUlno6aGiQqnfPIjVSUH1QnlFVKLTyZJ5cUtSwkNaxMyUtmxqp5Z9XMZE1B3VJY+fz+8LtzQG57GXb28no+HvNQZmc+85mZfc/se+Yzn/GqrKwUXl5eqEoIgarjbv3bk6ZRevmePI3Sy3fXaZRevidPo/TyPXkapZfvydMovXx3nUbp5XvyNEov39mn8aqsrBQgIiIiIiKykwqAU2c/Sk+j9PI9eRqll++u0yi9fE+eRunle/I0Si/fk6dRevnuOo3Sy/fkaZRevrNP0wREREREREQyYHJBRERERESyYHJBRERERESyYHJBRERERESyYG9RREREREQkC/YWxR4BnHYapZfvrtMovXxPnkbp5XvyNEov35OnUXr57jqN0sv35GmUXr6zT8NmUUREREREJAsmF0REREREJAsmF0REREREJAs+0E1ERERERLJQ3fqQBhERERERkS3YLIqIiIiIiGTB5IKIiIiIiGTB5IKIiIiIiGTB5IKIiIiIiGTB5IKIiIiIiGTB5IKIiIiIiGTB5IKIiIiIiGTB5IKIiIiIiGTB5IKIiIiIiGTB5IKIiIiIiGTB5II8kl6vd5py5KoLkatyljhiLBI5BmPNvXkJIYTSlSByNC8vL8jx1ZejHLnqQuSqnCWOGItEjsFYc2+8c0FERERERLJgckFERERERLJgckFERERERLJgckGKKSkpwbFjx5SuBhGRQ/CYR0SegMkFKWb79u147733GnUZBoOhUctvTEajUekqEMnGaDTCZDIpXQ2byBWLjjjmEREpTaV0BcgzlZaWIj09HZcuXUJERAQOHTqEwsJCtGzZEgDw4osv4oknnrB7OVOnTsXRo0excOFCPP7443aX5whbt27FjBkzcPfdd6OwsFDp6hDJIjs7G++++y5eeuklxMfHQ6Vy/tPPiRMnEB8fj+3bt9udYNx6zDt58iQKCgrg6+uL8vJyDBs2DBMnTpSp5kREyuGdC1JEixYtkJSUhOHDh2P06NEoLy9HSkoKcnNzkZubK0tiAQBt2rSBTqfDwIED0b17d2zdulWWchvD1q1b0b17dwwcOBA6nU7p6hDJ7ujRo5g+fTq6desGjUajdHXqdOLECURFRSEiIgKbN2+Gv7+/3WXWdsybPXs2cnNz8emnn2LZsmUy1JyISHnOf+mI3Ja3tzdUKhVuu+02AMDnn3+Ow4cPAwD+/ve/S+PlYk4yBgwYIGu5cujevTsTCvIY5iRj+fLlmD17ttLVqSYqKgq7d+9GaWmp7GXfeszT6XRQqVQ4efIkunXrJvvyiIiUwOSCnIa/vz8CAwMB3HzBTlWFhYV45JFHrC4zLCysxrhDhw7ZVsFGVFJSUmPc/v37a2wHSxQXFyMkJESGWhHVZDQa0axZM1nKOnPmDLKzs2UpSy7FxcU1EouysjKbYnHVqlWIjY2t8/MjR47gxo0bKC4uRvv27a0un4jIGbFZFCmq6hs6e/fujUGDBmHQoEFo0qT6VzMyMhJCCKuHJ598UiojICAAEyZMwIkTJxy2fpY6ceIEJkyYgICAAGlcjx49bFpnJhbUmHx8fGz6XmZmZkpltGjRAoMGDcLevXuxadMmBdempoMHDyIzMxOdOnWSxjVv3tymda4tsah6zBs9ejQSExORmZmJ3bt3O2T9iIgaG5MLUoy/vz/y8vKwZcuWRlvG1atXqyUV2dnZ8PHxabTl2crHxwfZ2dk4ceIEnn/+edmuDBM5k1uTitDQUKWrVINKpUJiYiIOHjyIN954A35+figrK5Ol7PqOeZWVlbhw4YIsyyEiUpKXqHoZhcjBDh06BF9fX7Rp06ZRyt+6dSt69+5dI6Hw8vKCHF99OcqprYyysjLs3bvXZXq4ImqI+Y5hbQlFY8WRHGWYTCZs3rwZQ4cOtatss8Y+5hG5ArnOweScmFyQR3L25ILIkzhLHDEWiRyDsebe2CyKiIiIiIhkweSCiIiIiIhkweSCiIiIiIhkweSCiIiIiIhkweSCiIiIiIhkweSCiIiIiIhkweSCiIiIiIhkweSCiIiIiIhkweSCiIiIiIhkweSCiIiIiIhkweSCiIiIiIhkweSCiIiIiIhkweSCiIiIiIhkweSCiIiIiIhkweSCiIiIiIhkweSCiIiIiIhkoVK6AkRKMZlMUKkYAkT0P3q9XukqEDnMd999Z/G0d9xxB4YPH87zJjWI3xAFxMbGIicnR+lqeLy4uDikpaUhJCRE6aoQkYJMJhOSkpKUrgaRw/Xt29fiaS9evIikpCTMmDGD502ql5cQQihdCSJH8/LyQkVFBZYuXQpfX1/ExsbaXI69ISRHGUSuTMk40uv1WLhwIZKTk9G6dWvGIlE9TCaT3edNgOc9d8fkgjxS1QObTqdDeno6NBoN/P39bS5HjroQeSKl4kir1eLixYuYMmUKVCoVY5HIQvacNwGe99wdkwvySLce2EwmE9LS0hAREYEhQ4bYXI4cdSHyNI6OI6PRiEmTJmHWrFkIDw+XtR5EnsLW8ybAWHN3TC7II9V1YMvPz8fmzZuRkZFh0UNrTC6I7OfIOCosLMSaNWtqjXHGIpH18vPzsXfvXqjVaosf9masuTcmF+SR6juw1XVV09py5KgLkSdwRByZH9oeNGhQnVdZGYtEtjEYDEhMTLTovAkw1twdkwvySJYc2LRaLY4fP17v1RgmF0T2a+w40uv1UKvVDbYPZywS2ScrKwsApOeY6sJYc28Wv0Tvxo0baNmyJYKCghAUFIR7770XEyZMwJ9//gkAeOihh1BcXFxtnr59++Lnn38GAISEhKCkpAQAsGbNGvTv3x89e/bEu+++K9e6EMkqNjYWU6dORVxcHPu+J3JRWVlZyMvLg1artenBUyKyXEJCAqKjo5GUlASDwaB0dUghVr2h++rVqzhz5gzOnDmDXbt24eeff8aSJUsAAFeuXEFlZWW16auOKysrgxACP/74I1599VV8+OGH+Pjjj5GRkYFvvvlGnrUhkpm/vz9Wrlwp/TghItdgMBgQGxuL6OhoJCQkKF0dIo8REhKCjIwMpKamIj8/X+nqkAKsSi6qateuHR5//HGcPHnSqvl+/vlnTJgwAcHBwQgLC8PQoUOh0+lsrQZRo1OpVEhISEDfvn0RGxvLqzFETi4/Px9LlizBypUr+bIvIgWoVCpoNBo0b94ciYmJMBqNSleJHMiqN3QLIbBt2zYAwLFjx/DBBx9Ao9FIny9atAi+vr7S3+ZmUFVVfenKL7/8gk2bNuGll16yuuJEjhYSEoKVK1c2+FAoESmjateYs2fPVro6RB4vMjISPXr0gFqtxsSJEy162Jtcn1XJRWVlJVasWAEA8Pb2hkajwahRo6TP27dvj4CAAOnvpk2b1llWdnY23nzzTbzzzjvo0qWLldUmUob5akxhYSESExOVrg4RVREXF2fzS72IqHH4+PhAo9FAq9Xik08+gVqtVrpK1Mgs7i3qxo0buOOOO1BRUVHr52FhYdi0aRNCQ0OlceHh4fj444/RrVs3tGzZEocPH4a/vz+ee+45AMDixYvh5+cnw2oQWUeOniqMRiOaNWuGoqIiu67GsNcM8nT2xIDJZMLSpUvx8ssvs+c2Iidn7rI2JyeHsebGbH7mwlZr167FH3/8gZycHCYW5NJ8fHwAADqdDomJiTCZTArXiMizGAwGJCUlITo6WumqEJEFzJ2kAGAnKW7M4clFYWEhvvrqK/j7+0vDsmXLHF0NItnExsYiOTkZSUlJ7LKWyEHy8/ORmpqKjIwMPrRN5ELM778IDw9HbGwsH/Z2Q3yJHnkkuZo/VC3H3DwDgFVdX7IpBnk6a2LA/KbtMWPGIDIy0qYy5KgHEdnOHGvmeGYnKe6FyQV5pMZILswsfRuw3HUhclWWxoBOp0N6ejref/99qVmitWXIUQ8iss+tsZafn4+9e/dCrVbX+2Zvcg1MLsgjNWZyAcCqqzH8QUOerqEYMN8V9PX1rdaduTVlyFEPIpJHbbFmftg7LS2NTR1dHJML8kiNnVyYFRYWYs2aNUhLS6txpVXuuhC5qvpiwNIfHEwuiFxHfbGWlZUFAJgyZQrvYrgoJhfkkRyVXAA3u6yt7wVC/EFDnq6uGNBqtdi9ezcyMjIa/JHB5ILIdTQUa9Y2LybnwuSCPJIjkwuzun4o8QcNebpbY6ChhNySMuSoBxE1DktijQ97uy4mF+SRlEgugJtNPFJTUzFjxgypiQd/0JCnqxoDOp0O2dnZ9TYlbKgMOepBRI3HmlgzNy+25A4mOQcmF+SRlEouzKq2KW3atCl/0JBH8/LyQkVFBdLS0tCxY8c6H9puqAwmF0SuwdpYMxqNmDRpEmbNmmXx3UxSDpML8khKJxfAzTalCxcuxKJFi/iDhjyal5cXxo4da1f7aiYXRK7D1ljTarU4fvw4u6x1ckwuyCM5Q3IB3GxT2rRpU7vrQeTqKioq7PqxwOSCyHXYE2sGgwERERE4ffq0zLWiuhQXF1vVPTCTC/JIzpJcyFkXqqmkpARlZWUICwtTuipUD2eJI8aiYzAuibHm3pooXQEiosayfft2vPfee0pXg4iqYFwSuTcmF0QyMplM0Gg0UKvVSlfF45WWliI9PR3r16/H6tWrMX/+fAwcOBCjRo3CyJEj8dNPP2H06NEoLi4GADzzzDPIyckBACxatAgfffQREhIScPToUSVXg27x/PPP48SJExZNe+LECURFRTVyjcgalsSlRqPBypUrAdzs/OKll14CAPz444+YPHkypk+fjp9//lkq88knn1RkXah+arUaH3zwgdLVIAUwuSCSydq1a/HQQw9h+vTp2LZtm9LV8XgtWrRAUlIShg8fjtGjR6O8vBwpKSlYt24d5syZg0WLFqFXr1747rvvYDKZcOnSJWzZsgXAzSurkZGRuH79Om/dO5nDhw8jIiICUVFRdSYZ5qQiIiICmzdvdnANqT6WxGXfvn2xfft2AMCOHTug1+sBAN999x169+6N69evo7KyUirzzz//VGJVqAHbtm3DP/7xD3Tv3h1r165VujrkQEwuiOy0du1ahISEICYmBjqdTunqUBXe3t5QqVS47bbbAADHjh3Djz/+iFWrVqFVq1YYMGAAdu7ciT179mDw4MG4ePEihBD49ddf0aFDB4VrT7W5/fbbUVpais2bN9dIMm5NKkpLSxWuLdWmobh86KGHcPDgQZSXl6NJkybo3r07fv75Z+zcuRP9+/cHAKxbtw7Lly/H8uXL8fvvvyu4NtQQnU6HmJgYhISEMMnwEOzHi8hOMTExNcbt378fXl5eFpdhzbT0P9OmTYNGo7F4+u+++w5nz55F7969MWzYMDRp0gT//Oc/8eWXX2LUqFEoLS1FXl6e1Q+aFhYW4pFHHrG2+lSFpTHQqVMn6f/mJKNr164AgK5du6K8vNzmsq2dliwzduxYaLXaOj+/NS5vu+02+Pv7Iz8/H3379kW3bt2wefPmakl/QEAAAgMDAaDWHvcYk8q76667qv196tQpxMTEoHPnzgrViByFyQWRnebMmYN33nkHFy5ckMb16NEDhYWFFs3PXjMaV9VtO378eERGRlb7vEWLFti5cyfmzJmDy5cv4+WXX8bLL79s1TIiIyO5D+1gTQxERkZWew4mODgYb7/9NmJiYvDjjz/i2WefrXEH0dKyGYuO01Bc9uvXD/Pnz4dWq0WHDh0wd+7cancTH3nkEXTr1g0AkJqaWqN8xqTyIiMj8d1330l/+/n5IT4+HsnJyeyC3c2xWRSRnebOnYtz585hzpw58PPzU7o6VIW/vz/y8vKkZylq069fP7Ru3RoA0KtXL5w8eRIDBgyQPp82bRpiYmIQExODa9euNXqdyTLBwcHIzc2FXq/H6NGjAdy8c1FUVISCggK+xdeJWRKXjz32GAwGAzp37gxvb2/cc8891eKSXIefnx/mzJmDc+fOYe7cuXz5nQfgey7IIzXWey5MJhNSU1Pxyy+/IDs726F1cQbO2H/9oUOH4OvrizZt2ihdFaqDNTEQHByMjIwMKaGor4ytW7fiueeew2+//SZ7Pcg+jEv3N3HiRAQGBiI5OblGQsFYs86RI0fQqlUrl7mAyeSCPBJfotc41q1bh127duHf//630lUhF+IsceROsUjkzBhr1nn55ZcRFRWFoUOHKl0Vi7BZFBHJ4tb+6wHgwIEDaN68Oc6cOQPg5p2NcePGSfPk5eVh0aJFitSXiIjI2W3fvh15eXlISUnBoUOHAABLlizBAw88IE3jbO9+YXJBZIHg4GC37kLPZDJh7ty5UjePtri1/3oA0Gq1+Mc//iElG0KIas8t3LhxAxUVFXbVnYiInM/cuXMxbtw4GI1GpauiGPOLdYODg20uIzIyElFRUZg1axbuv/9+AMCGDRvQs2dP7N27FwCc7t0vTC7II1l7OzYwMLDR+ulW8tawOalo27YtUlJS7P6hX7X/eiEEdu7cidTUVHz22WfSNMXFxVL/9F9++aW9q0BuwFmaRzhLPYjcwYULF/DRRx8hNDQUEydO9Kgkw5xUdOvWDdOnT7eri+smTZpApVLB29sbXl5eKC4uRtu2bREXF4ePP/5Yms6Z3v3C5ILICuZ+ul39ZUBVD3wpKSnVutGVy86dO1FRUYEVK1bg/PnzUvehd955JwIDAxEYGIhWrVrJvlwiInIe58+fx/Llyz0myaiaVFTtNlsuOTk5AICioiKsW7dOuihifvdLYGCg4l39sj8w8mi2vLgLuJlkPPfcc41RJYfo3LkzTp48WWP80aNHLd4mdV3lNY/XarV46aWXEBoaismTJ+Pjjz/G5MmT0aZNGwwaNAgAcO3aNRw/ftzGtSAiIkebN28e5syZY/V85iQjLy+vEWrlHLp16yY9F1FVWVmZbOfWL774Am+99RaaNGmCyMhIbN++HUDD735xJN65II8mhLBoqNr9W4sWLTBo0KBaDyCu4uTJk9i9e3eNdwF06tTJ4m1SG3P/9V988QX279+P2NhY9OrVC1OmTKnWNIqIiFzT7NmzLTpHxMfHV5uvU6dOyM3NtbhraFd06NAhHDx4EL179642vnnz5nafWzMzM5Gfn4+uXbuiT58+6NWrF1588UXpToYzYVe0RBaIiIjAiRMn0KtXL7zzzjsIDQ0F4Lrd6VWt99atWzFjxgzodDr07dvX4jeL14X915MSXDUWidxVQkIC3nnnHXTq1AmvvvoqXnjhBekzd43Xqut16NAhTJgwAbt27UKbNm1w7tw5m8utqKhAUVERunTpAh8fH7mq22jYLIrIAl26dMHq1aulpMKdPP744ygqKsLWrVuxceNGu8vr2rWrDLUiIiJX1r9/f4SFhSE+Pt4j38rdtWtX7Ny5E4cOHcKCBQvsKqtp06bo2bOnTDVrfLxzQWQHV7364qr1JqoLv9NErsNd49Vd18tafOaCiIiIiIhk4Xn3qYiIiIiInNjixYvRpEkTjB8/HleuXEHr1q1x+fJleHt7w8fHB0ajEVeuXEGbNm1w/vx5lJaWory8HIGBgdI0P/zwA44cOYLY2FiH1p3JBRERERGRE/Hz88OVK1eg0+mwZcsWtGnTBocPH0azZs0wf/58LF++HH/88QdCQ0Ph7e2NiooKtGvXDvPmzZOm6dmzJw4fPuzwujO5ICIiIiJyEkIIXLx4EU2bNsW1a9fQqlUrdOvWDZcuXcJ9990HAGjfvj1MJhPuuOMOXLhwAR06dMAff/yBgIAAaRql8IFuBezbtw++vr5KV8OpmLNzV/Pcc89h1apVDl3m5cuXMXHiRLt635DroTODwQB/f3+7y3E3BoMBLVu2tLuHlHnz5mH27Nl218UT9hEfpCRyHc4Yr3IcK+VYr6rnj/Lycnh7e0v/VlRUQKVS1XghX0VFBZo2bYrr16+jSZMmtU5jD71ej5CQEIuntzq5OHjwIB555BG8+eabePHFF6XxxcXFmD59On799VdMmTIFEyZMqLOMZcuW4dVXX0VhYWGNbisvX76MadOmYcWKFdK48ePHo6SkRPr7ww8/ROvWrWst+8CBA/jb3/6GZcuWYcyYMdL4NWvWYPLkydi+fTt+/PFHfP/991i0aFG1ef/73/9i5syZuOOOO1BZWYlWrVohLS0N0dHRFm0bS3l5eaG4uFjWMkkZHTp0cPi+vHjxIt5++22kpaVZFexV2XsANJlMWLp0KS5cuICUlBSby3FXw4cPR0hICJKTk+06Wdmzn4xGIyZNmoTS0lJ88cUXNteBiMgTpKSkwNfXFwkJCTaXYe+5VavV4rfffkNSUpLNZTQWq9ZLWEmtVov+/fuLRx55pNr4yMhIkZubKwwGg+jWrZvQ6XR1ltG3b1/Rv39/kZycXG38qlWrRL9+/cTAgQOlcSaTSQQGBopdu3ZJw/Xr1+sse//+/cLX11c8/fTT1caPHDlS+Pr6iv3794vs7GwxceLEGvNmZ2eLKVOmSH9/9dVXwsfHR5SXl9e5PFvYsNnJSSm5LxcvXiwWL14sKioqrJ7XnnqXlJSIsWPHiuLiYpvL8AQVFRVi2rRpYuPGjTaXYet+2rFjh5g2bZpN3w1XxeMqketw1ngtLi4WY8eOFSUlJTbNb+t6mc+rRUVFNs3f2KxdL6u7os3JycHSpUtx9OhRnD59GgBw5swZnDt3DqNHj4afnx8mTJiAjz/+uNb59Xo9zp49i4ULF9Z4ZblKpcKjjz5abdyZM2cQHByMhx56CD169ECvXr3g7e1dbx3Dw8Nx9OhRXL16FcDNK3gnTpzA/fffb9W6Pvjgg1CpVKisrLRqPiJHSEhIQHR0NJKSkmAwGByyTK1WiyVLlmDlypU23zXxFCqVChqNBs2bN0diYiKMRmOjL9NkMiExMRFlZWXQaDQe+eIqIiJbhYSEYOXKlUhNTUV+fr5Dlpmfny+dV8PDwx2yzMZmVXLx3XffISAgAJ07d8aIESOkBOLMmTPVHh6577778Msvv9RahlarxdixY9GjRw80adIEe/bskT4bM2YMhg4dWm36kydP4vjx4+jZsyfatGmD+Pj4Buvp5eWF6OhofP755wCAjRs3Ijo62qL2Z3v27MHrr78OtVqNESNGIDU1FbfffnuD8xEpISQkBBkZGY1+IDQajUhMTER4eDhmz57NH61WiIyMRFpaGtRqdaM+V6TX6xEXF4fk5GQMGTKk0ZZDROTObr0wZDKZGmU5JpMJ8+bNAwC3O69alVxotVr06NEDhYWF6NChg3Tn4Y8//qh2N6Fp06YwGo04e/Ysli1bhmXLlkGv10tldOjQAYWFhejRo0eNuxe3at26Nd566y0UFRVBr9fj66+/Rl5eXoN1jYmJQW5uLgBg7dq1iImJsWgdmzdvjo4dO6Jz587o06cPPvzwQ1y4cMGieYmU0NhXyAsLC6FWq5GWluY2V1UczcfHBxqNBjqdDvPmzZP9ZJWVlYW8vDxotVqPeHibiKixmS8MxcXFyX5hSKfTIS4uDlOnTnXLi0EWJxcmkwm5ubm4fv06VqxYgZMnT+LUqVM4fPgwAgICqv0ANxgMaN26Nby8vKBSqaSn1ouKivD777/j+++/x4oVK3D77bdj9erV9TY7+stf/oK4uDgAN3/4R0dH48CBAw3Wt2fPnjh69CjOnz+Po0eP4oEHHrBoPTt37ozx48dj/PjxeOONN3Dfffc57NYYkT3kvkJubmJz6tQpaDQa+Pj4yFBLzxYbG4upU6ciLi5OuuBiD4PBgNjYWERHR9v1ECIREdXk4+MDrVYr24Uhk8mErKws6HQ6t74YZPE9mIKCAoSFheE///mPNK5JkybIycnB66+/jnPnzuHChQvw8/NDQUEBhg8fjnbt2lXrNerVV1/FhAkTkJqaKo3r3Lkztm3bhgEDBtS63IyMDJSWlmL+/PkAgJ07d+Kf//wnhBA4ffo07r333jqbO0VHR+Oll16yOSu8ePEidDodXnjhBYuWR6Q08xVyrVaLTz75BGq12qZbrXq9HgsXLrS7tyOqyd/fHytXrsTSpUvh6+tr85tT8/PzsXnzZqxcudKtbqcTETmb2NhYGAwGxMXFQaPR2HReNBgMSE1NxYwZM9z+mUWL71yYn5WoavTo0cjJyYFKpUJaWhoGDhyIsWPH4rfffsOIESOqTSuEQE5OTp1l1GXcuHHYsmULnnjiCdx///1o164dhg0bhsuXLyMkJASXL1+uc94xY8Zg/fr1tTaJ0mq1CAoKkgZzt7T//e9/pXGdO3dGVFQUoqKiLFoekbOw5wq5VqtFXl4eMjIymFg0EpVKhYSEBISHhyM2NtaqpmzmO0rNmzfnQ9tERA5ivjC0ZMkSaLVaq+bVarVITU1FRkaG2ycWgMwv0TMYDCgpKUHXrl1lvbpfWVmJw4cP4/bbb0doaKg0fvHixZg6darDTq5yLc8ZXx5DtnH2fWl+H8WtV8hrq7fBYEBiYiJmzZrFZyscyGQyISkpCYMGDapxl/XW/aTT6ZCeno7333+fzdRu4eyxSET/4+rxWtex+Nb1MhqNUKvVmDhxokufV63dXy77hu7y8nIUFBQ47EEYOZfn6kFF/+Mq+/LWA+Gt9c7Pz8fevXttbkZF9jM3c8rIyJD2gXk/1ZUk0v+4SiwSkXvEq/nC0JgxYxAZGQmg+nrpdDpkZ2cjLS3N5S8GeUxy4crcIajoJlfal1WvkA8dOlT60ZqWloaIiAi37LHC1ZjvHpnfvu7l5YWSkpJq46h2rhSLRJ7OneK16oWhpk2boqKiAklJSejVq5fbXAyydn/xEiWRhzB3WWvu/Wz//v146623bH44jeTn7+8PrVaLrKwsaZz55Uq8o0RE5HyGDBmCv/71r1LPpklJSR7fGYrVb+h2tD///LNRyq2srMT169cbpd7t/rUAACAASURBVGwiZ/bkk08CAOLj45GWlubRB0Bn9cILL+CHH34AAIc+V0ZERNbz9/fH4MGDAQChoaEef161Krlo2bKl1JNS+/bt8fDDD+Pbb7+VPr9x4wZmzpyJ+++/XzoxAsDf/vY3pKSkSH9nZGRg6tSp9S5r5cqVCAwMRM+ePREWFoZly5YB+F93tlWtXr0ajz76KCorKxEaGlrtqh8ADBs2DPv37wcAlJSUICYmBvfddx86duyIyMhInDhxot66DB06FBs3bqw2bvbs2Zg3bx5u3LhRbbvce++9mDBhAv78808UFxfD19cXQUFBCAwMRGhoKP7f//t/9S6LqDEZDAYkJSUBuPlyvLy8vBrxQsoyv7TQvF8a++3rRERkO6PRiNjYWPTo0QMAMHz4cKnrWo8lrHDr5EuWLBGhoaHS39u2bRMfffSRePbZZ4VGoxFCCGEwGIS/v7+IiIiQpouOjhbLly+vcznnzp0Td999t9Dr9UIIIX7//XcRGBgovv32W1FaWiratm0rduzYIYQQ4o8//hDBwcFi+/btQggh/Pz8RGBgoDhz5oxUXv/+/cXevXuFEEJERUWJhQsXSp+99957IjIyst71fvfdd0VsbGy1cWFhYWLfvn3CZDIJlUoljT979qzo06ePyMjIEMePHxddunSRPispKRGtWrWqsR3JdbnSvly1apWYNm2aqKioqFbv4uJiMXbsWFFSUqJg7aiiokJMmzZNbNy4URpn3k87duyQ9h3VzpVikcjTuUu8bty4sdqx2bxeFRUVIiUlpdrx3JVZu7/sahb12GOP4cqVK9LfGzduxNChQzFgwAAUFhYCuPnyvTFjxqCsrEx6i/euXbvQv3//OsstLS3F3XffjdatWwMAfH19sXr1agQEBKB58+bIzMxEfHw8bty4gbfffhuPP/44HnnkEWn+1157DfHx8TXK3bt3L86fP4/p06dL4yZOnIgnnngC5eXlddYnJiYGX3zxhdRE68CBA/Dy8sKDDz5YY9p27drh8ccfx8mTJ2t85u/vX60rXSJHMBqNSExMRHh4eK3vRQgJCcHKlSt5hVxBer1eaqdb24P15revx8XFyfL2dSIisp3JZMK8efMAoNbzqkqlwuzZswEAiYmJdr/Z29VY3ZB3w4YNAICrV69Cq9Vi1qxZ0melpaVo0aIFBgwYIG1089u6hRDYunUrHnzwQdx5552477776lxGly5dMGDAAISEhCAmJgZPPPEEBg8eDG9vbwA3X463YsUKJCcnQ6vVVmuCBQCTJ0/GRx99hPXr12PkyJHS+J9++gm9e/euNq2XlxfmzJlT7zr7+fmhb9++2LhxI0aPHo3169fj2WeflT4XQmDbtm0AgGPHjuGDDz6ARqMBcLMZyuuvvw4hBPR6PTp06IA9e/bUuzwiuVjaFZ75Ye/CwkIkJiZW6w6VGpe5+VND29zHxwdardbut68TEZHt9Ho91Gq1RZ2hDBkyBP369UNcXJxHvUPK6jsXBQUFKCgowNdff43Dhw9LV+KLiorwwAMPAADCwsLg5eWF06dP45tvvkH//v0xaNAgbNmyBTt37sSAAQMaXM5HH32Eb7/9Fp06dcKCBQvwl7/8BUeOHJE+f/fdd6HRaJCcnAw/P79q83p5eeG9995DUlJStTdqX7t2DU2bNrV2lQEAzz33HFavXg0AWL9+PZ555hnps8rKSqxYsQIrVqzA999/D41Gg1GjRgEAvL290bFjR4SFhaF79+7V1oGosZjf4qzT6aDRaCzuY5tXyB3HYDAgNjYW0dHRSEhIsDhRqPr2dY9u00tE5EAmkwlZWVnIy8uDVqu1+KFt84UhnU6HrKwsz7iLYU+bq02bNom+ffsKIYSYN2+e+OWXX6TPnn/+eZGSkiI9z3D58mXRoUMHMWnSJPHBBx/Uu5wdO3aIL774oto4tVotZs6cWW1cly5dxOHDh6uN8/Pzk/4/e/Zs8dJLL0nPXGzdulX069evxvJ69epVo5xbGY1G4efnJ/bv3y/Cw8Ol8bc+c1HVrc9cCHHz+Q0rNzs5MWfcl8XFxWLatGn1PkNhSb1XrVolUlJS2M6/EWzcuNGibVvffjK36V21apXc1XNJzhiLRFQ7V4vXkpISMW3aNFFcXFzvdA2tl6s+42jt/rLrmYuwsDCUlJQAAM6ePYv27dtLnw0YMACZmZl44oknAAB33303goKCsHbtWul5CyEETp06VePFHKWlpXj11VdrdBXbrFkzq+qnVqvx9ddf49ChQwCARx99FBcvXsQnn3wiTfPZZ5/ht99+Q1hYGP7880+cO3eu1rLuuusuDBo0CBMmTKjWJMoa5eXl2Llzp03zEllCq9UiLy8PGRkZdneFxyvk8jPfUQJu9jhnT7Mmc5ve8PBwxMbGwmg0ylVNIiL6P/n5+UhNTUVGRobdLzI1P+O4ZMkSaLVaeSrojOzJXK5fvy7uuusu8e2334r09PRqnxUXFwsAorCwUBqXmpoqgoODpb9LS0sFAFFaWlpt3srKSvGvf/1LhISEiGHDholu3bqJPn36iEuXLlWbrqE7F0Lc7MHKy8tL6i2qqKhI3H///aJPnz7i0UcfFSEhIVJPU59++qno0aNHneufn58vAIjjx49L4xq6c6FSqURgYKAIDAwUfn5+YvDgwS6XsVPdnGVfXr16VYwdO1YUFRVZNL019eYVcnkUFRWJsWPHiqtXr1o8j6X7ydzTlLkXPU/kLLFIRA1zhXi9evWq1cdVa9arqKhITJs2zapzglKs3V9e/zeTXS5duoQmTZqgefPmVs+7ePHiOl8SdfnyZRw5cgS+vr6y9rJ048YNHDt2DOXl5ejcuTNuv/126bMFCxZg5syZsi2rNu702ntP5wz7Mj8/H5s3b7bqIWxb6q3T6ZCeno7333/f4mc46ObdiqVLl8LX1xexsbFWzWvtfrLlu+AunCEWicgyzh6vlnaGcitr18toNEKtVmPMmDGIjIy0paoOYe16yZJc2Kq8vBwFBQW1dr2oBL1ej9LSUulFKI3F2YOKLKfkvjSZTEhLS0NERITVMWRrvU0mE5KSkpz+QOgsDAYDUlNTMWPGDJtup9uynwwGAxITE5GWlmb3LXxXwuMqketw1ng1n1c7duxo9cUgwPb1cvYLQy6VXHgqZw0qsp5S+9KarvBqY2+9nf1A6Ay0Wi12795t1zayJwlcunQpACAhIcGmZbsaHleJXIczxqu951XAvvWy92JUY7J6vWxugEU2Cw4OFgA4cLB5SElJses7KEfb/JKSEtGvXz/Ft4UzDoMHD7b4+Zf6APYdos3PvnHgwIEDh/oHOXpHtPfcWlFRIWbMmKH4trh1GD58uFXrwTsXRHZwxqsv5D74/bIctxW5G3f+TrvzupENL9EjIiIiIiKqDZMLIiIiIiKSBZMLIidUUlKCY8eOKV0NImoEjG8ix6uoqMCePXuUroZHYHJB5IS2b9+O9957z+b5KysrZawNEcnJmviuK5bZXp3IOpcvX0Z8fLxF0/Icah8mF0QyMplMmDt3Ltq0aWNzGaWlpUhPT8f69euxevVqAMCBAwfQvHlznDlzBgBQUFCAnj17YvTo0Rg8eDByc3MBAD/88AOef/55jBs3Dk899RQMBoP9K0WNSqPRoE+fPjh06FCD065duxZt27aFXq9v/IpRo7AkvgFg48aNiIqKQkxMDP7+97/DZDIBAFJTUzFixAg89dRTSE9PV2QdSD56vR4tW7bE2rVrla6KYkwmEzQaDVq2bNmoy/nXv/6FY8eOITk52epzaHBwMGJiYvD000/jmWeewe+//96odXV5dvWZReThzCFUUVEh5syZI/z8/AQAERwcbFe5Wq1WTJ8+XZhMJiGEELNmzRLTp08X//73v4UQQmzatEm88cYb0rKjoqLEb7/9JsaPHy9++uknIYQQX331lVixYoVd9aDGl5mZKXX317t3b3Hw4EHpM/P3q6CgQHTq1Emarri4WKHaOi9XOp01FN+XLl0SUVFRory8XAghRE5Ojli3bp3Ytm2bmDlzplTOzJkzxenTpx2/AiSbqt1FBwcHi9zcXOkzV/pOWwuAqKioEJmZmdWObY3p7Nmz4qGHHhLl5eVWn0P79+8vlbNs2TKxbNmyRq2rq+Pbr4jsNHfuXLzzzju4cOGCbGV6e3tDpVLhtttugxACO3fuRF5eHgYPHoxXXnml2rQqlQpRUVHYs2cPhg4dimnTpmHs2LEYMmQIBgwYIFudqPHt2rUL3bp1Q+/evbF8+XIAQPfu3aHT6RSuGcmpofjeu3cvHnvsMTRt2hQA8OyzzwIAkpOTpf8DQEZGhiL1p8Zx6tQpxMTEIDg4GG+//bbS1Wl03bp1w9GjRx22vNtvvx1NmjSR4srMknNoWVkZCgsLcf36dWzbtg0zZ850WL1dEZtFEdkpPT29RmJRVlYGLy8viwaj0Vhv+Tt37kRFRQVWrFiB8+fP13ow9vLyQmVlJWJiYrBmzRrcddddeOGFF7Bq1SpZ15Usp9VqLdr/06dPrzHvrl270LdvX9x11121JhYdOnSw+PvlKQMAxetQ29BQE7ba4vv69eu47bbbpGlMJhNOnz5dY3xZWVmtzTP0er3i683BsqFDhw419t+pU6cwbty4er83rsz8UHVd5zI5Bq1Wa1WdvLzqP4deuXIFe/fuxb59+2AwGODn52f/hnBjTC6I7FRSUoJRo0ahWbNm0rjmzZtDCGHR4OPjU2u54v8e2NRqtXjppZcQERGByZMn4+OPP642XWVlJb788kv89a9/RVxcHO655x6MGzcO//nPf7BmzZrGW3GqV2xsrEX7PzMzs9p8wcHByM3NRWlpKcrKypCZmYlOnTpVm6a4uNji75enDAAUr0NtQ0hISK3fj/ri+6GHHsJXX30lTVtQUIBFixahb9++yM/Pl8anp6dj586dNcoOCQlRfL05WDYUFxdX23d+fn6YM2cOrly5YvnBxsU8/PDDAIAZM2YgICCg2mdybdfY2Nhal22Ou6osOYcGBgYiMTERr7zyCp599lkUFhbKvFXcC5tFEdmpefPmWLt2LcrKyjBhwgRs3rwZ169ft6tMf39/5OXl4fHHH8f+/fuRlZUFAAgPD8ejjz6KXr164aOPPsL333+Pq1evIjY2Fu3atcOYMWMwcuRIPPDAA9izZw+SkpLkWEVyAHNTiNGjR0vjVCoVEhMTER8fj3feeQepqamyNr8jZTQU37Nnz8bQoUMxZMgQ3H///di9ezfWrFmDdu3aYcOGDXjhhRfg7e0Ng8GAtLQ0hdeG5ODn54f4+HgkJydDpfKMn2YLFizA/PnzkZiYiLy8PJw/f75Rl+fj44OzZ88iKysLYWFhNp9DAwMDsWXLljoTGAK8RG1pHBFZxMvLq8aVkLKyMrz55pt2n/QPHToEX19fq3ueunbtGk6dOoXAwMA674qQ89izZw9Onz5dLamoi8lkQmpqKuLj4+Hv7++A2rmO2mLRmVkS35cvX0ZJSQlCQkKq/eA8d+4cKioqcO+99zqiqtSIjEYj/v3vf9eaVLjad9oat66b0WhEYmIisrOzG3W5v/zyC4xGIzp37lznNDyH2o/JBZEd3PngT+RKGIvkbtz5O+3O60Z85oKIiIiIiGTC5IKIiIiIiGTB5IKIiIiIiGTB5IKIiIiIiGTB5IKIiIiIiGTB5IKIiIiIiGTB5IKIiIiIiGTB5IKIiIiIiGTB5IKIiIiIiGTB5IKIiIiIiGTB5EIBer1e6SoQwWg0wmQy2V2OHN9no9FodxlERM7AYDAoXQUJj62Wket8OG/ePKepi1xMJpP19RHkcAA4cHCKYezYsaKoqMju77M9Nm7cKP7+978rvi04cODAQY6hS5cuYuzYsaKkpESxY2tFRYWYNm2amDBhguLbw1WGmJgYpzgfxsTEKL4tbh22b99u1Xp4/d/GIAfy8vICN7t7cId9qdVqcfHiRUyZMgUqlcrq+W3dBiaTCUlJSRg0aBCGDBli9fxEVblDLJL7kOP4Zut3Wq/XY+HChUhOToa/v79Ny25szhqvWVlZAKDY+XDMmDGIjIy0ev7GZG6dEBISYvE8TC4U4KxBRdZzl31pz8nIlm2g0+mQnp6O999/Hz4+PlbNS1Qbd4lFci/5+fnYvHkzMjIyrP6xast32t4fx47izPHK82F1TC5chDMHFVnHnfal+cpJr169EBsba/F81mwDk8mEpUuXwtfX16plEDXEnWKR3IvRaMSkSZMwa9YshIeHWzyfNd9pg8GAxMREq5ehFGePV1vvPFl7PkxLS0PHjh2d+nzI5MJFOHtQkeXccV/qdDpkZ2cjLS3Noqsolm4D88kvLS3NqoMUkSXcMRbJvVjbBNXS73R+fj727t0LtVrt1HcrqnKVeC0sLMSaNWsa7Xyo0WictumaGZMLF+EqQUUNc9d9aTQaoVarMXHixAavglmyDbRaLY4fP+5SJz9yLe4ai+Re9Ho91Gq1RT8qG/pOm698R0REuNxza64Ur55+PmRy4SJcKaiofu6+Ly05CNa3Daw5KBPZw91jkdyHpc1h6vtOm9vpu8KV79q4YrzKcT60pXmc0mxJLqx6z0XLli0RFBSEoKAgtG/fHg8//DC+/fZbAMDWrVvh5+cnfW4eTpw4Ic1/8OBBtGzZEu+995407vr161K57du3R3h4OObPn4/Kysoay6+6jPbt26Nv375Yt25djenGjRuHsLAw3LhxAwBw48YNqT4BAQFo3bq19Pcvv/wiTRMWFoa4uDhrNgmRW4uNjcXUqVMRFxdn9fssCgsLoVarkZaW5lIHUiKixqRSqTB79myEh4cjMTHRqndRmEwmZGVlQafTQavVumRi4arkOB+uXLnSM86H1vRbe+vkS5YsEaGhoUIIITZt2iSioqLqnV+tVov+/fuLRx55RBp37do10axZM+nvX3/9VQwZMkS89tprNebftGmTiI6OFkIIUVlZKfbt2yc6duwovvzyS2masrIy4efnJyIiIkRBQUGNMjIzM8Urr7xSY/yWLVtEr169hK+vr7h8+XK962EvKzc7OTFP2ZcVFRVi8eLFYtWqVTU+u3UbmPtX37hxo6OqR+QxsUju5erVq2LatGlix44dNT679TtdUlIipk2bJoqLix1Uu8bjyvHqaefD4uJiq79zdr2h+7HHHsOVK1csnj4nJwdLly7F0aNHcfr06Vqnadu2Ld5//31kZWXVevfCzMvLCw8++CBSU1ORmZkpjf/kk08wePBgjBs3Djk5ORbXTavV4sUXX0S/fv2wYcMGi+cj8gQqlQoJCQkIDw9HbGxsnVfa9Ho9kpKSkJyc7HJtgImIHM3HxwcajQZlZWVITEys803IWq0WqampyMjIYIcYCuP5sGFWJxcbNmzAhg0bsGrVKsyYMQOzZs2SPjt+/DhSUlKkYf78+dJn3333HQICAtC5c2eMGDECH3/8cZ3LaNeuHe6++26cPXu2wfpERETg559/lv5etWoVnnvuOYwcORLr169HeXl5g2Vcu3YN+fn5GDVqFEaPHg2tVtvgPESeKDw8HCtXroRarUZ+fn61z7KyspCXl4eMjAzeqicissKQIUOQnJyMpKSkak1ujEYjEhMTER4eDo1G4xIPAHsKng/rZnVyUVBQgIKCAnz99dc4fPgwQkNDpc/uvPNOhISESENwcLD0mVarRY8ePVBYWIgOHTo0eFfB0od9qk53/vx57Nq1C3fccQdOnTqFVq1a4YsvvmiwjLy8PHTo0AEHDhxAixYtsHXrVly4cKHB+Yg8kUqlgkajAQDMmzcPwM22qNHR0UhISODJj4jIBv7+/sjIyEBeXp70Mjw+t+bceD6sndVrvXjxYun/mzdvxrx58zBs2DAAQPv27TF+/Pga85hMJuTm5mLo0KFYsWIFAODUqVM4fPgwOnToUGN6g8GAsrIyBAYGNlifn376CZ07dwYArF69Gh07dsRHH30EAAgODkZOTg5GjBhRbxlarRatWrWS6taxY0esXbsWU6ZMaXD5RJ5qyJAhKCsrAwDMnz+ft+qJiOykUqkwZcoUTJkyBffeey+Sk5Od8q3NVB3Ph9XZlVKFhYWhpKSkwekKCgoQFhaG//znP9K4Jk2aICcnB2q1utq0RqMRL7/8Ml588UU0aVL/jRW9Xo/XX38db775JoCbScJbb72FgQMHAgDOnj2Lzp074+rVq2jWrFmtZZSWluLrr7/G6dOncffddwP437MhTC6Ialf17aUApDuElr4cioiIatLr9ViwYAHS09OxdOlSl32PhSfh+bAmux7oDgwMxK+//oqTJ08CAL7++usaXdF+9tln0Gq1GDt2bLV5R48eLTWNMhqNCAoKQmBgILp27Yr27dsjLS2t1mUWFBQgKCgIbdu2RVRUFGbOnImhQ4fixIkT0Ov1GDBggDRt+/bt8cADD+Czzz6rcx3Wr1+PgQMHSokFAERHR+P777+Xuqklov/R6XSIi4ur9pBaQkICoqOjkZSUBIPBoHANiYhcj1arRV5eHhYsWAB/f3+py1oA9T7sTcoxnw/T0tJ4PqyCL9FTgCu+PIZq50n70mQyYenSpfD19a324qeq26DqFRxeaSNH8qRYJPdiMBiQmJhY78vVLJnGlbh6vHrS+ZBv6HYRrh5U9D+esi8NBgNSU1MxY8aMGgeY2rZBYWEh1qxZg7S0NLYXJofwlFgk95Kfn4/NmzcjIyPDoiY0Wq0WFy9edPkmN64cr+ZELy0tzarzoaX72NkwuXARrhxUVJ0n7EutVovdu3fXeWCsaxsYjUao1WpMnDjRLa60kXPzhFgk92EymWx+nkKv12PhwoVITk522W5OXTVetVotjh8/DrVabfX5cNKkSS5554nJhYtw1aCimtx5X1qaHDS0DRo6GBPJwZ1jkdyLXq+HWq2GRqOxOTkwN7np1atXtWY5rsLV4tWTz4dMLlyEqwUV1c1d96VOp0N2drZFzZos2Qbm28j2nEyJ6uOusUjuw9xOH7j50K8crDlWOxNXildrmvm64/mQyYWLcKWgovq527605WqYpdvA3AygY8eOLnmljZybu8UiuZf6nluzlys2QXWFeLXlgWx3PB8yuXARrhBUZBl32pe2tuO1dhvodDqkp6fj/fffd6krbeTc3CkWyb1Y+9C2rRp6Ps6ZOHu88nz4P0wuXISzBxVZzl32pT09kNiyDcxXhMaMGYPIyEir5iWqjbvEIrkP8x0FRx7nGvMOiZycOV55PqzOluTCrpfoEZFrMxgMiI2NRXh4OBISEhx2tUulUkGj0aCsrIwvhyIit6PT6aBWq5GWlubQH4z+/v7IyMhAXl4etFqtw5brDng+lJEghwsODhYAOHBQfBg/fryoqKiw6/sM2HcYKSkpEX379lV8W3DgwIGDXENmZqZdx0U5FBUVidDQUMW3hasMznI+jI+PV3xb3Dr88MMPVq0Hm0WRUzly5AhatWoFPz8/patiEWe+teso3AbkDPg9dIx58+Zh9uzZSleDXJy7xqu7rpe1mFyQU3n55ZcRFRWFoUOHKl0Vi/BAwm1AzoHfQ8fgdiY5uOv3yF3Xy1p85oKcxvbt25GXl4eUlBTs378fHTp0QExMDEaMGIHXXnsNQgiUlJRg3Lhx0jx5eXlYtGgRduzYgQcffBAxMTF46qmnMH36dFnr1qZNG2zdulXWMt2VyWTC3Llz0aZNG6WrQm5ozJgxOHTokNLVIJkdOXIEFy5cULoaRE6npKQEx44dU7oaVmFyQU4jMjISUVFRmDVrFrp06YIuXbogNzcXGzZsAAB8/vnnEELg2rVr0jw3btxARUUFbty4gaeeegq5ubn49NNPUVJSgqNHj8pWt/Pnz2PgwIHo3r07k4w6mJOKtm3bIiUlBaGhoUpXidzQ9u3b0a1bN/Tp0wcnTpxQujqEm7H/wQcf2FVGVlYWdu/ebVcZlZWVds1P1BjKysqwceNGm+ffvn073nvvPRlr1PiYXJDTaNKkCVQqFby9veHl5VXtszFjxmDbtm0AgOLiYixfvhzLly/Hl19+KU1z+vRpFBYW4vPPP8fly5fRvn172euo0+kwcOBA9OnTh1dPq6iaVPDqIzWm22+/HQCwa9cuREREICoqikmGQkwmEzQaDbp164Z//OMfNpdT9a71oUOHEBoaii+++EL6/LXXXsPEiRNx/fr1Wu9ol5aW4oUXXsALL7yAqKgo7Ny5U47VI7KL0WjE6NGjERgYiNzcXJvKKC0tRXp6OtavX4/Vq1djzpw5eOKJJzBq1CgMHz4cBw4cAAA8+eST0jxlZWWIiYkBAAQHByMmJgZPP/00nnnmGfz+++/2r5gFmFyQS/Dy8pKuSt15550IDAxEYGAgWrVqJU3z66+/Yu/evfjxxx/h5eVV6wtp9Ho9vLy8rB5utWvXLjzwwAONt8IuJiMjo0ZSceHCBZu2tblPbXJvRqPRpu9HWVmZVEZpaSk2b96Mv/zlLwquieepmlRMnz7d7rvEVe9a33///WjTpo10xxoAioqKcP36dQCo9Y72p59+igcffBAffvghcnJybP4hRyQHo9GIiRMnIjQ0FOvWrcPVq1fRrFkzm8pq0aIFkpKSMHz4cIwePRrl5eVITU3FunXrkJ2djcTERADAn3/+WW0+cwuP++67D7m5ufjkk0/w+OOPY926dfatnIWc+xWO5JFqexjqs88+w9/+9jcAN59/GDRoEICbAXT8+HEAQO/evaVAi4uLw6+//op27dpVKyckJMSmh62qJhgtWrTAiBEjoNFo0KJFC6vLckeXLl1CamoqsrOzcfbsWQCAn58fjhw5onDNyFn5+PjYFIshISEoLS2V/g4PD8fs2bOlK3XU+Dp27IhTp07JVt6td63vueceXLt2DdevX4dOp0PPnj1rvTs1ZswYrFy5EpMnT8a4ceNw9epVqWbnKgAAIABJREFUDBkyBAsWLJCtbkTWCgkJkfUOvre3N1QqFW677bZq41u3bo177rkHV65cwbVr17B8+XIAwB9//CFNU1ZWhsLCQly/fh3btm3DzJkzZatXfXjngpyKv78/MjMzUVxcjB9//FG6/f3777/j6aeftricwMBA7Nu3T9a6tWjRAoMGDcLevXuxYsUKNG/eXNbyXZlKpcLcuXNx5MgRTJgwAQEBAbhy5YrS1SI31qlTJ2RmZmLfvn0YPXq00tXxKAMHDkRAQECN8XLenXzyySexZcsWrF27FqNGjap1GvMd7U6dOuGbb77BAw88gIULFyIhIcHeVSSyWc+ePWtceNyyZYvNLSXqY46BJk2aSC06ql5UvXLlCvbu3Yt9+/bBYDA4rJt/3rkgpzJr1iwMHToUQUFB+O2332p8HhAQUO2W94gRI6T/9+vXT/p/WlqarPUaPnw4FixYwIeUG+Dj44Ps7GwYjUZkZ2crXR1yQ2VlZcjMzER8fLzD3qBL1ZljPDExEXl5eTh//jyA2u86W6Pq/MOGDcPMmTPx559/4t577611evMd7czMTDz88MMYOnQohg4dih49ethVDyJ7bNq0CSdOnEB8fDx2796N0tJSPPnkk3Y1H6wtti5duoTS0lI0b94c3t7eUouOsrIyrFixAsDNC63mFh2+vr4oLCxEcHCwzfWwFI/M5FSaNm2Knj17Kl2NGqq2/6WG+fj4SAc0IjldunRJ6SoQql9ISExMxKpVq+wqz3zXumvXrgCAu+++G2VlZejTp0+16cx3tMvLy3Hffffh6aefRnFxMSZPnoyIiAicOHECTz31lF11IbJXaGiolGQ8//zzUvNtW/j7+yMvL096aHvWrFlo2bIl/vjjD7z99tsWlxMYGIgtW7YgNjbW5rpYii/RI7IDX5jDbUDOgd9Dx6hrOxuNxlo70bBURUUFioqK0KVLF5vKqaysRHFxMZo3b+6wph9kO3eN18aKj0OHDsHX19dl3h/F5ILIDu56gLQGtwE5A34PHYPbmeTgrt8jd10va/GBbiIiIiIikgWTCyIiIiIikgWTCyIiIiIikgWTCyIiIiIikgWTCyIiIiIikgWTCyIiIiIikgWTCyIiIiIikgWTCyIiIiIikgWTCyIiIiIiO3Xv3l3pKjgFvqGbyA58Gye3ATkHfg8dg9uZ5MDvkXvjnQsiIiIiIpIFkwsF6PV6patABKPRqHQVJAaDQekqELk1k8nkNDFvMplgMpmUrgaRxGg0yvKdnDdvnix1cTZW10mQwwHgwEHxoWvXrmLs2LGipKTE7u+zPVatWiXGjx+v+PbgwMHdhxkzZoiNGzcqGu/FxcVi5MiRim8LDhxuHaZOnar4+XDjxo1i1KhRim+L2gZr8JkLBbCtoftw9X1pMpmQlJSEQYMGYciQITaVYes2MBqNmDRpEmbNmoXw8HCblk1k5uqx6Cj5+fnYu3cv1Go1VCqV1fPbs52zsrIAAAkJCTbNT+7DGeNVyfOhyWRCWloaIiIibF52Y7J2vZhcKMAZg4ps4y77srCwEGvWrEFGRobVPzhs2Qb5+fnYvHmzTcsjqo27xKIjGAwGJCYm2pTY27KdzctLS0tDSEiIVfOSe3LmeDWfD9PS0uDj42PVvLasl06nQ3p6OjQaDfz9/a2a11GYXLgAZw4qso477Utb7yRYsw2c/eoMuS53ikVHMd9JmDJlisVJvrXb2d47JeSenD1ejUYj1Go1Jk6c2Kjnw6VLl8LX1xexsbG2VtUhmFy4AGcPKrKcO+5LrVaL48ePW/xjwNJtoNfroVarnfrqDLkud4xFR9Dr9Vi4cCGSk5MtiktLt7McTUzIfblKvDbW+dBgMCA1NRUzZsxwibt5TC5cgKsEFTXMXfelNYlAQ9vAfHUGYFtrajzuGouOYE0iYMl2NjfzeP/9961uVkKewZXi1ZpmfZasl1arxe7du12qWTCTCxfgSkFF9XPnfWluwtSxY8d6b9nWtw1c7eoMuS53jkVHsaSteX3b2ZWaeZCyXC1e5Tgf2trUyhlYu78sfs/FpEmToNFopL9nzZqFJ554Qvp79+7d0sYaNmwY2rVrh6CgILRv3x6dO3fGkiVLpGlDQkJQUlKCkSNHIigoCO3atUOrVq0QFBSEoKAg5ObmIiUlBQEBAdK4oKAgPPTQQzXqdet0gwcPxoEDB2pMN27cOISFheHGjRsAgB07dkjz+Pn5oW3btggKCkKfPn2keW7cuIGwsDDExcVZupmI3IZKpcLs2bMRHh6OxMREq/u5zs/PR2pqKjIyMphYELmAyMhIpKWlQa1WQ6fTWTWvwWBAXFwcoqOj8fXXXzvl74WtW7fCz89PWlbfvn2xbt26GtPd+nvhxo0bUrkBAQFo3bq19Pcvv/wiTcPfC+6r6vkwNjbW6vOhTqeDWq1GWlqayyUWNrG0z9qlS5eKp59+Wvo7PDxctG7dWpSWlgohhHj77bfFuHHjhBBC9O/fX3zzzTfStAcPHhS33XabOHXqlBBCiBYtWojffvtN+nz//v0iIiKi2vJeffVV8cYbbzRYr1dffVW8/fbbQgghysvLxbp160SbNm3EhQsXpGnKysqEn5+fiIiIEAUFBTXKeOqpp0ReXl6N8Vu2bBG9evUSvr6+4vLlyw3WxVJWbHZycp6yL69evSqmTZsmduzYUeOzW7dBfdMSNRZPiUVHWbVqlUhJSREVFRXVxte2nW+d1ll/L2zatElER0cLIYSorKwU+/btEx07dhRffvmlNE1DvxcyMzPFK6+8UmN8Y/1ecFeuHK8VFRUWnw/N065atcpR1WsU1u4vi+9cDBgwAIWFhQCA3377DUIIDB8+HF999RUAYOfOnejfv3+t83bt2hUBAQGN/tbBpk2bYuTIkXjqqafwwQcfSOM/+eQTDB48GOPGjUNOTo7F5Wm1Wrz44ovo168fNmzY0BhVJnIJPj4+0Gg0KCsrQ2JiYp1vMq16dSYyMtLBtSQiucTGxmLq1KmIi4uDXq+vdRqj0YjExESEh4dj9uzZUvtxV/i94OXlhQcffBCpqanIzMyUxv//9u48PKa77x/4e2Kk2iBBxppUiKB00KK2tpaGaAR3Syyj4n7UWiGNXL3bjBCJSLoFo6hanpu0Jk9sRdNpuWi1xFLuR5nS0mDsZYIEU8Qk8/vDb+YRSWSWMzmzvF/XNddFZuacz/me8z0zn/lu/L5AVZFKpVZ9Hup0OiQkJCApKcnruglaPZKkdevWqFmzJk6fPo39+/ejf//+6NGjB3bs2IE33ngD+/btwyeffGJ5/d69e1FYWAij0Yjdu3ejR48eeO6552wKbufOnbh3757l/y1btsTYsWOrfF+XLl2wb98+y//XrVuHhIQEtG/fHnPnzsWyZcvg6+v7xG3cu3cPGo0GixYtQq1atfDVV1/hrbfesil+Ik8TGRmJrl27IiEhocw4ikf7oz7aHYKI3JdMJkNWVlaF4yieND7D3b4vKJVKy//5fYGsZf48jImJKTfYW61W48aNG241aFtINh1xnz59sG/fPuzcuROjRo1C9+7doVQqodPpULNmTbRo0cLy2v/85z/466+/UFpaij179mDIkCE2B1evXr0yJ6tRo0ZWve/RgSdXr17FgQMHUKtWLZw7dw4NGjTAd999h6FDhz5xG7m5uWjRogV+++03BAQEYNeuXSgoKEBgYKDNx0HkSWQyGTIzMy0zQAFATEwMp5gl8kBSqRSxsbHQarWW5GLGjBkYOHDgE39I4PcFfl/wBjKZDGq12rJmDPCw1c+eBSo9iU3Jhbmp8+eff8ayZcvg5+eHBg0a4Msvv0Tfvn3LvDYuLg69e/cGANy+fRsNGzZEUlISatWqZfX+OnfujHHjxtkSIgDg6NGjaNOmDQAgJycHrVq1wldffQUAaN68ObKzs6u8WajVajRo0ABr1qwBALRq1QobN27ElClTbI6HyNOYv3CYv1xkZmYysSDyYHK5HKmpqcjOzkaPHj2qnLKW3xf4fcGbxMbGWrrjZ2ZmokmTJiJHJC6bk4v33nsPHTt2tDSDRkREYOHChViwYEGl76tTpw5kMhmuX7+OZs2aORZxFX788UesX78eR48eBfCw0n/88ccIDw8HAFy6dAlt2rTBnTt3ULt27Qq3UVhYiB9//BHnz59HnTp1AADZ2dlYvnw5bxZEKLuaNwCsXLmSq24TebBHf5n19/dHamrqExcWc4fvCzqdDrNnz8ZHH30EgN8XyD7mbsFdunQBAHz44Ydev3ik1QO6gYd9GOvWrVtmSrkBAwbg5s2b5X6JeFyLFi2we/dum4JLT08vM7VccHAw9Hp9udfNmzcPwcHBaNy4MRITE7FlyxY0bNgQp0+fhk6nKxNbs2bN0LFjR2zbtq3S/W7evBnh4eGWGwUAREVF4dChQ5Zp54i8VV5eHpRKJbKysizNvnPmzAGAJw5uIyL3o9froVAoEBUVZVkEMzIyssrB3q76fWHnzp0IDg5GkyZNMHDgQMycORODBg3i9wWyi1arRUxMDKZOnWpJJlQqFfz9/b3685CL6InA3RaPocp507msbBXfR8vg0RYNb+5vStXPm+piddFoNDh8+HCZForHy9ncojFlyhSvHLhK9nH3+mpeMBKAJekGPPfzkCt0uwF3r1T0f7zlXOp0OiiVygoHbVdUBuaZMviFg6qLt9TF6vBoN4/Hu3ZUVM5Puj8QVcSd66ter0daWlqZGRPNKvs8zM/Pf2I3QlfH5MINuHOlorK84Vyaf5l89NeZR1VWBvzCQdXJG+piddBqtcjIyKi03lZWzpW1bBJVxF3rq0ajwfbt2yudYray49Lr9YiLi3Pbz0MmF27AXSsVlefJ59J8M3x8/u7HPakMzF84unXr5nWLCFH18uS6WB3M3TweX8/icVWVs3n9C2+d35+s42711WAwQKlUYsSIEU9cILaqz0PzelDu9nnI5MINuFulosp56rms6teZR1lTBlqtFqtWrapwwS0iIXhqXawOT+rm8ThrytmT+pqTc7hTfbXl88vaz8OMjAysXLnSbT4PmVy4AXeqVPRknnYuzS0NVf068yhry8D8y8+ECRP4hYME52l1sbqo1WocPHjQ6pYGW8rZE/qak3O4Q321p6XB2uOy57NWTEwu3IA7VCqyjiedS3t/TbG1DGz9MkNkDTHq4smTJ9GgQQO3XInZ3mTf1nJ2977m5Byu/tlp75hBW4/Lll4CYmJy4QZcvVKR9TzhXDraD9SeMrClGwaRNcSoi9OnT8fAgQMxaNCgKl9rMpkgkUiqIaqqOdJN0Z5ydue+5uQcrvzZ6chsh576ecjkwg24cqUi27j7uRTiV0V7y8DaAaRE1qjuurhnzx7ExMRAJpNhzZo1iI+PR926dWE0GuHn54fly5ejdu3aSEtLw6FDhwAA3bt3t6xqLwYhJlhwpJzdsa85OYcrfnYKMVbI0c9DoPKZGcVk83GZqNo1b97cBIAPPkR/pKSkmB48eODQ9Qw4dhs5duyYqXfv3qKXBR98ePqjd+/epmvXrjlUXzt06ODQ+x88eGAaNmyY6GXBBx+PP4YNGyb65+HZs2ddtn7Ygi0X5BKuXbuGoqIihIWFiR2KTVzx15fqxjKwnlqtZiuNk4jdLapPnz5QqVS4e/cuUlJSMH36dOzbtw9Dhw5F165dqzUuIlfnqZ8bnnpctvIROwAi4GEXgxUrVogdBpFTjRkzRuwQyElMJhNyc3Pxww8/YPbs2YiMjMT9+/dRo0YNy2uKiopw/fp1EaMkIndz4MABlJSUiB2GTZhckOgKCwuRkZGBzZs3IycnB8nJyejfvz+GDRuGIUOG4LfffgMADBgwwPKeoqIiREdHQ6VSISsrC8DDlaTfeecdAMCRI0cwefJkQeLT6/Xo0aMHTpw4Icj2PJ3RaMTcuXPRuHFjsUMRhV6vx4QJE2AwGMQOxesVFRXho48+cuo+zL9S+vj4YNasWVAqlejZsycAoGfPntBoNJbXZmRkYP/+/U6Nh4hci8FggEqlsvv9EydOxL179wSMyPmYXJDoAgICkJCQgCFDhmD48OEoLi5GWloaNm3ahFWrViEuLg4AcPfu3TLvu3fvHnr27Ik9e/YAAPbu3QudTgcA2LdvH7p37y5IfAaDAQcOHED79u2ZZDyB0WiESqVCkyZNkJKSgtDQULFDEoXBYMDq1asRGhrKJEMkRUVFGD58OIKCgrBo0SKn7Ucmk2HRokU4c+ZMhc+/8cYbyM/Px3/9139h8uTJOHXqFCIjI50WDxG5DoPBgAkTJiA0NBQffvihXdtYtmwZzp07h5EjR+L+/fto0aIFoqOjMXToUMyaNQsmkwmbNm0q0/Pj/fffx3/+8x9Ld8zS0lIEBwfj4sWLAIDo6GicO3fO8QN8AtedVJe8iq+vL6RSaZkuBADQsGFD1K1bF7dv38a9e/ewevVqAMDff/8NAHjxxRdx/PhxFBcXw8fHBx06dMDvv/+O/fv3Y968eYLHaU4yunfvbomFAJVKhWXLluHUqVNih+Iyrl69itWrVyM3NxdRUVGWmUDIeYqKivD2229j+/btuHPnDgCgQYMGTttfYmIiBg0ahEaNGuHHH3+s8DVr1qzBlStX8ODBAzz77LNOi4WIXIPBYEBcXBxyc3Nx9epVAEDz5s3t2takSZOwdOlSrF27FgDQtm1bbNiwAQAwa9YsfPPNNzAajXjw4IHlPcXFxQAefn+6dOkSLl++jODgYOzYsQPjx4/H2bNn7Y7HWkwuyOVJJBKUlpbCx8cHQUFBAGD54lCjRg3IZDJoNBr07NkT7du3x/bt23H58mW0aNGi3LZ0Ol2Ff7fVgQMH0LFjR4e34ymSkpIs58SsoKDArnn9z5496zJzfefl5eHll192aBvmJCMnJ0egqKgyjRs3rtbuAzVr1kTnzp2rfF2TJk2qIRoicgUhISEoKCgQZFtSqRQ+Pj6oVatWuedGjBiBrKwsvPTSS9i3b5/lNeau5H379sX+/ftx6tQpyxTQr776Ktq3by9IbE/CblHkMiqaYeHmzZsoLCyEv78/fH19ERERgYiICISHh1te07t3b8ybNw/9+/dHr1698PXXX1f6C2FISAhMJpNNj7Nnz5bZRkBAACIiInD+/HlhC8CN/fXXX3j77bfRqFEjy98CAwNtLmuTyeQyiQUA9OrVy+HrBXi4vsHBgwdFOALvMmbMmDLXIPCwNUMikdj1UKvVIh0JEbmr3r17o3bt2mX+Zst9yNqutOYfXoGH30uCgoIQFBRk2Xffvn2xb98+HDlyBK+++ioMBgP27t2Lvn37CnvAFWByQS5BJpMhNzcXO3bsAPCwu8GwYcOgUCjw6aefPvG9/fr1g16vR5s2beDr64u6des6pfKYk4rDhw/j+++/56+Rj/Dz88OqVatw+vRpS5Jx+/ZtscMSnVwux86dO7F//360a9dO7HA83uPXIAD4+/vbleSaTCa7pw02f+ATkffZuHEjLl68iGHDhlm+6NtyH6pogcmKfnzdtm0bXnnlFQBAu3btLD++mn+ge+GFF3Do0CE888wzkEgk6Nq1Kz777DP06dPHacduxm5R5BJeffVVbN68GfXr1y8zK9SjzAO3gYcV9ZtvvgEAdOrUqUwrgvnvQvHz80NERASWLl3qtYOUrWVOMgwGA2bPni12OKJp2bIlVqxYgddee03sULzOo9dgXFwcsrOzq23fhYWFiI+PR2lpKa5evYrk5GT06NGj2vZPROJKSUkB8PA7ysaNGy3jwL777ju7tymTyTB9+nQsX74cR44cQXR0NIqLi9GyZUu88cYbWL9+fYXv8/HxQYMGDdC7d28AQEREBFasWFEtvQO4iB6RA7hgDsvAFiwr53GFsl2zZg1u3bqFGTNm4ObNm5g3bx4WLFggakxErsgV6qu7uHXrFk6ePOlWi3EyuSByAG+QLANbsKycxxXK9tSpUxg7diyGDh2KyMhIdOrUSdR4iFyVK9RXch4mF0QO4A2SZWALlpXzuErZ3r17Fz/88APWr1+POnXqYMmSJWKHRORyXKW+knMwuSByAG+QLANbsKycxxXKdtGiRXjppZcsK3R36tQJv/76q6gxEbkiV6iv5Dwc0E1ERCSAIUOGYPLkyejSpQtOnz6Nf/zjH2KHRERU7dhyQeQA/vrCMrAFy8p5XKVsS0tLcfbsWfj7+yMwMFDscIhckqvUV3IOJhdEDuANkmVgC5aV87BsidwH66tn4yJ6REREREQkCCYXREREREQkCCYXREREREQkCCYXREREREQkCCYXREREREQkCCYXREREREQkCCYXROSQdevWiR0CERERuQiuc0HkAM7V7fmMRiPu378PPz8/h7fF68V5WLZV0+l0CAkJsfv9RqMRACCVSgWKiLwV66tnY3IhAoVCgezsbLHDICIrxcfHIzw8HJGRkQ5thx+ozsOyrZojZaTT6aBUKvnZReSFvv32W5s+/5hcEDmAX2i8h0ajweHDh6FUKu3+5ZbXi/OwbKtmTxkZjUYsX74cABAbG+uMsMgLsb56NiYXRA7gDdK76PV6xMXFITExEXK53Ob383pxHpZt1WwtI71ej7S0NMTHxzvUnYrocayvno3JBZEDeIP0Tmq1Gjdu3MCUKVNsasXg9eI8LNuq2VJGarUaBw8eRGZmJsdYkOBYXz0bkwsiB/AG6b10Oh0WLlyIpKQkyGQyq97D68V5WLZVs6aMDAYDlEolJkyYYFfrHJE1WF89G5MLIgfwBundjEYjEhIS0K1bNygUiipfz+vFeVi2VauqjPLy8rB+/Xqkp6cLMjsaUWVYXz2bXetc3L1794nP379/365giIjciVQqhUqlglwuR1xcHAwGg9ghEdnMaDQiLi4ORUVFUKlUTCyIyCE2JRdZWVkICgpC586dERYWhi+++MLyXElJCebNm4eWLVuiffv2CAsLw7JlyyzPT548GY0bN0ZwcDCaNWuGfv364eTJk8IdCRGRSORyOdLT06FUKqHVasUOh8hqOp0OCQkJSEpKcniqZSIiwIZuUX/99Rdat24NrVaL5s2b48aNG+jYsSPUajVeeeUVvPfee8jPz8fatWtRt25dXL16FcOHD0d0dDRmzJiBsWPHIioqCiNHjgQAJCcn48CBA9i+fbtTD5DImdi0S4970kBYXi/Ow7Kt2uNltGTJEgCweWICIkexvno2q1suCgsLUadOHTRs2BAAUL9+feTk5KBRo0a4fv061qxZg3//+9+oW7cuAKBRo0ZYu3Yt5s+fX+EF1L17dzx48ECgwyAicg0KhQJJSUlISEiATqcTOxyicvR6PRQKBaKiohAbG8vEgogEZfUdpW3btujbty9CQkIQHR2N/v374/XXX4evry92796NDh06ICAgoMx7WrZsiTp16uDChQsAgJycHPz2228oLi7Gd999h5UrVwp7NERELkAmkyEzM5OLj5HL0Wg02L59O7KysphUEJFT2DTm4quvvsLPP/+M1q1bY8GCBXj++edx8uRJFBcXw9fXt8L3PP3005YB3o0bN0arVq3Qtm1bPP/881i4cKHjR0BE5IKkUiliY2MRFRUFhUIBvV4vdkjkxcyTDfj7+0OlUjGxICKnsXrMRV5eHm7fvo2BAwda/jZr1izcu3cP8fHx6Nq1K86dO1cmybh58yZat26Na9euISYmpsyYC5PJhKZNm+LgwYN49tlnBT4sourBfqNkDaPRiPT0dCQnJ/N6cRLWxcpptVqsWrUKixcvZhmRS2B99Ww2jbn44IMPyk0zW7t2bQQFBaFPnz744IMPUFpaCgAoLi7GtGnT8M4770AikZTb3vHjx3H79m3LGA0iIk8llUoxZ84cAEBcXByMRqPIEZE3ME8xq9VqoVKpxA6HiLyE1S0XJpMJH3zwAdavXw+5XI4zZ86gbt260Gg0CAgIQGFhISZOnIgjR46gbdu20Gq1CA8PxxdffAGpVIqxY8dCo9HgmWeesSQgn3zyiVULTxG5Kv76QraQSCS4c+cOJk6ciMTERK6ALCDWxbIqWkGeZUSugteiZ7N5he5bt27h5MmTqF+/PkJDQ8s9f+PGDZw5cwYhISEIDAwULFAiV8QbJNni0etFrVbjxo0bnAZUIKyL/6eya4tlRK6C16Jnszm5IKL/wxsk2eLx60Wn00GpVEKlUll+XSb7sC4+nGI2Li6u0lYxlhG5Cl6Lno3JBZEDeIMkW1R0vZgHe7dq1YrdRB3g7XVRo9Hg8OHDUCqVlbaEeXsZkevgtejZbJqKloiIhGUe7C2Xy6FQKCxThhJZwzxoGwDmzJnDLnZEJDq2XBA5gL++kC2qul4MBgOUSiVGjBiBXr16VWNk7s8b66JWq0VGRgZWrlwJPz+/Kl/vjWVEronXomdjckHkAN4gyRbWXi/mVZQzMzP5S7SVvKku2tuVzpvKiFwbr0XPxuSCyAG8QZItbLlezINz09PTERIS4tzAPIC31EVHJgHwljIi18dr0bMxuSByAG+QZAt7rpclS5YAAGJjY50Rksfwhrro6PTF3lBG5B54LXo2DugmInJhsbGxiIqKgkKhgF6vFzscEoHBYIBCoYBcLkdsbCy7yhGRS2PLBZED+OsL2UKtVts93azRaMSoUaOwadMmgaMiV9e3b1/s2LHD4aSC9ytyFbwWPRuTCyIH8AZJ5BpYF6vGMiJXwWvRs7FbFBERERERCYLJBRERERERCYLJBREREQniwIEDKCkpETsMr3Tt2jX8+eefYofh1QwGg9ghuAQmF0RERCSIiRMn4t69e1W+rrS0tBqi8S579uzBihUrrHoty985ateuLXYILoHJBRERuY3mzZtDpVLBaDSKHYrbMxgMmDBhAkaMGCHI9pYtW4Zz585h5MiRKCkpQUhICKKjozF06FDMnj0bAJCfn4/BgwdjxIgRePOo70ddAAAgAElEQVTNN5Gfnw8AGDBggGU7RUVFiI6OFiQmb1FYWIiMjAxs3rwZOTk5mDdvHsLDwzFs2DC8+eabOHr0KADg22+/xcCBAxEdHY1//vOfMBqN2LRpU5mk5P3338eRI0ccjmnq1KnYtWuXw9txZ0ajESqVCkFBQWKHUq2YXBARkdsICgrCu+++i/bt2zPJsJPRaMTcuXMRGhqK1atXo2HDhoJsd9KkSQgODsbatWsBAGFhYdiwYQO2bt2K48eP4/z585g5cyZWrFiBjRs3IjMzEytXrgQA3L17t8y2rGn9oP8TEBCAhIQEDBkyBMOHD0dxcTFSUlKwadMmJCcnY/HixSgsLMSSJUvwzTffYNOmTRg4cCC2bdsGo9GIBw8eWLZVXFwsSMvGsWPHEB4ejg4dOnhdkmFOKtq3b493333X69am8a6jJSIij3Dq1Cm8++67WL16NebMmSN2OG5j7ty5WLp0KQoKCgTftlQqhY+PD2rVqgUAuH37No4ePQq9Xo9Tp06hRo0aMJlMaNKkCQCgRYsW+OijjwA8TCZWr14NAPj7778Fj80b+Pr6QiqVokaNGgCAP//8E8888wyys7PRoEEDHD58GP369UPNmjUBAKNGjQIA5OTkYN++fZbz9ttvvwkal1arRXh4OORyORYuXIjXXntN0O27GpVKhWXLluHUqVNihyIatlwQEVG1MxgMkEgkNj8e/1Ks1Woxbtw4kY7C/aSkpJQrwx07dth8Hjp27FjlvgoKCpCbm4ujR49i27Zt8Pf3h49P2a8dp0+fBgD4+PggKCgIQUFBaNq0qXAH7MX27dsHjUaD7t27Y/78+bh//74l8QAe/rp+/vx5AA9bPszl/+i4gby8PLvqqUQiKffl2pxkCNUNz1Uplcpyx15UVGR1udm70KorYXJBRETVzs/PDyaTyeZHYGCgZRsBAQGIiIjAsWPHRDwS97Jz507I5fIyfxswYIDN58Hch78i5sXRWrRogVmzZiEhIQEtW7ZE7dq1cfv2bRQVFQF4+IXLnBj6+voiIiICERERCA8Pd9LRe75HF6YbN24cZs2ahTfffBM1a9bEiy++iB9++MHy/M6dO7F48WIAQLt27SzlHxISYnlNr1697KqnJpMJrVu3LhNb69atsWjRIqjVaucWgsiOHTuG3r17l/mbv7+/1eXmCeXD5IKIiNzG/fv3LUnF4cOH8f333yM0NFTssNzGa6+9hmPHjlWYZAhBJpNh+vTplT4/f/58DBkyBP/6178wePBgzJ07V/AYvJVMJkNubi527NhR4fNNmjTBoEGDEBkZiYSEBKSlpWHmzJlOj8ucVBw/fhxxcXEeP/4gNDQUu3fvxvHjx9G9e3cAD+9b3kRi4vrrRHaTSCRgFSKqPm+99RZSUlLKJRSsi1WrqIx27dqFvLw8wcat3Lp1CydPnkTXrl0rfc39+/dx7tw5BAUF4ZlnnhFkv/TQiRMnUL9+fTRu3LjS19y6dQvXrl1DSEiIU7/oDxw4EK+//jqmTZtWbj+eWl8rOq4TJ05gwYIFWLVqlUhRVT8mF0QO8NQbJJG7YV2sGsuIXIWnXoueely2YrcoIiIiIiISBJMLIiIiIiISBJMLIiIiIiISBJMLIiIiIiISBJMLIiIiIiISBJMLIiIiIiISBJMLIiIiIiISBJMLIiIiL3Dnzh2xQyAiL8BF9IgcwAVziFwD6yKR+/DU+uqpx2UrtlwQEREREZEgpGIH4I30ej0MBoPYYZBAdDqd2CEQEVgXyTVIJBI0b97c4e2o1WooFAoBIiKqXk5vuTAajSgtLXX2btxKTk6O2CEQERGRE+zbtw+pqakwGo0ObWfMmDEOvV+tVqNXr16QSCQu9wAgegyPP+Li4kT/4Ver1brkOdu7d69tB2KyQfPmzU1Xr141mUwmU0BAgCkoKMgUFBRkatq0qalr166mn376yfJarVZrevXVV03Nmzc3BQcHmyIjI03nzp0zmUwm05kzZ0z16tUzBQUFmZo1a2Zq2bKlKS0trcr9t2zZ0vTZZ5+V+VtUVJTpyJEjJq1WawoICDDl5OSUeT4nJ8cUEBBg0mq1ZY7B3hiEsG7dumrZDzmfjVWIiJyEdZFcybVr10yjR482nT171u5t2HtNm/d97Ngxu/ftje7cuWOaMWOGae/evXZvw95z9uDBA1NKSopLfj9ct26dzdexTS0XRUVFloEqhYWFuHDhAi5cuIBLly5h/PjxGD9+PADg8uXL6N+/P95//33odDqcP38eI0eORO/evfH333+jtLQUjRo1woULF3Dx4kUcOHAACxcuxP79+5+4/1u3buGjjz7CxYsXLX+7c+cOSkpKUFJSAh8fH/zP//xPmffk5OTAx8cHJSUlZY7B3hiIiIiInkQmkyErKwu5ublQq9XVtl+NRoPPP/8cWVlZkMvl1bZfT+Dn5weVSoWioiLExcU53PJkLb1ej5iYGEydOtVjusEJ1i2qX79+uH37NgDg448/xqRJkxAZGWl5PiYmBn379sXKlSvLvVcmkyE0NBQPHjyocj+zZs3CtGnTKnxOLpfj1KlTlun2DAYDTp8+jeeee67K7doSAxEREdGTSKVSxMbGQi6XQ6FQOLXLjdFoRGpqKgBgzpw5kEo5pNZekZGRSEpKQkJCgtPHcanVaksyKJPJnLovewUEBNj8HoeSi61bt2Lr1q1Yt24d4uPjkZiYCAD49ddfER4eXu71r732Gn799VcADzO12bNnIykpCW+99RZatGiBXr16VbnPyZMn4/r169i8eXO55yQSCaKiovDNN98AAL799ltERUVZ+vc9zt4YiIiIiKwhl8uRlZUFpVKJvLw8wbev1Wotv3w/+qMu2U8mkyEzMxO5ublYsmSJ4Ns3GAxQKBSQy+Uunwy2a9fO5vc4lFzs3LkTO3fuxI8//og//vgDoaGhAIDi4mL4+vqWe72vry+Ki4st/27VqhXCwsLQoUMHnDx5EgcOHKhynxKJBCtWrEBCQgJu3bpV7vno6Ghs2LABALBx40ZER0dXui17YyAiIiKyllQqFbzLjdFoxJIlS6DVaqFWq132l293ZW556t27NxQKBfR6vSDbzcvLg1Kp9Oiuaw6lSp999pnl39u3b0dqaioGDx6Mdu3a4eDBg+jWrRsA4O7du6hZsyYOHDiA9u3bAwD8/f0xbtw4y/vr1KmD1atXW9Vy0K5dO8TExFhaSh7VuXNnnDp1ClevXsWpU6fQsWPHSrfjSAxEREREtoiMjETXrl0RExOD9PR0hISE2LUdvV6PtLQ0xMfH270Nso655Sk9PR1dunSxu3XIaDQiISEBERERUKlUAkfpWgQbcxEWFoZr164BAN5991188skn+OOPPwA8bOEYMGAA1Go1Jk6cWO69xcXF2L9/Pxo2bAgAuHLlCu7evfvE/SmVSvz44484ceJEueeioqLwzjvv2HQB2BMDERERkS1kMhnUarXdXW7UajXS0tKQmZnJxKKaSKVSzJkzBwDsmmZYp9MhJiYGSUlJXtF1TbDkIigoCJcvX8aZM2fw/PPP47PPPsOAAQPQr18/ZGRk4OzZs2jQoAGuX78OAMjPz0dwcDCCg4PRrFkzFBQU4P333wfwMLPfsWPHE/f31FNPYfny5RU2U40YMQKbN29+YpcoIWIgIiIiskdsbCyioqKs7nJjMBgQFxcHuVwOlUrl0v30PVVkZCSmTp2KmJgYaLVaq96zZMkSy6xh3tJ1TWIyzy3rBCUlJTh58iSMRiPatWuH33//HTdu3EDv3r2f+L59+/ahRo0alm5VYnBmDFx103NIJBI4sQoRkZVYF8ldPdpd5tFftR+9prVaLVatWoX09HT4+fmJFSo9Qq1W48aNG5gyZYol0Xv0nOn1esTFxTnU/c0VmGfMsuUYnLpCd40aNdCuXTt06NABUqkUcrm8ysQCAAoKCtClSxdnhuYWMRAREZFnMw/29vf3LzfY2zzFrFarhUqlYmLhQhQKBaKiopCQkFCu5Umj0SAtLQ1ZWVlunVjYy6ktF1Qxtlx4Dv5aSuQaWBfJExgMBkycOBGJiYno0KEDRo8eDZVK5TXdadyRueWpW7duGDNmDGbMmIERI0Z4zORALtdyQURERETW8fPzg1qttqzq/d///d9MLFycueWpVq1aAB4u9uwpiYW9PD65MBqN1baEOxEREZG9zIurmXs3jB8/XrD1Fcg5zOuN3Lt3DwAwf/58qwd7eyqbkot69eqVmV3ppZdews8//wwA2LVrFwIDAy3P9ezZE5s2bQIAXL58Gc8++6xlalrg4WDvrl27WlbTrkheXp5lm8HBwQgKCkJUVBQuXrwIAEhJSUGjRo0szwcHB+PFF18EAFy/fh2RkZEICQlBmzZt0L9/f0sF/fLLLyGTySyxdujQAbm5ubYUBREREZFgNBpNucXVsrKy8Pnnn1taMsi16PV6xMTEWGb9AgCVSgWtVivYYonuyKbkorCwEBcuXMCFCxdw6dIljB8/HuPHjwfwMHPr0aMHLly4gIsXL2Lp0qX44IMPsHPnTjRt2hSxsbGYPn26ZVvLly9HvXr1MHjw4Er3ZzQaIZfLLfs8f/486tati7lz5wIA7t27h5kzZ1qev3DhAv73f/8XADB37ly0bNkSFy5cQH5+PgYMGIDRo0cDeLimxfDhwy3HoVKpMGrUKDx48MCmwiMiIiJyhHnQNoByU8ya11eQy+VQKBQwGAxihUmPUavV+PzzzysctK1QKJCUlISEhATLmAVv4lC3qH79+uH27dvl/i6RSPDCCy8gLS0NixYtAgDMnDkTV69exaZNm3Dz5k2kp6dj6dKltgXr44M+ffpUuM/H6fV6tG7dGhKJBBKJBNOmTcOkSZMqfO0LL7wAqVSK0tJSm+IhIiIispd5cbWpU6c+cXE1uVyOlStXQqlUIi8vrxojpMc9ut7InDlzKl1vRCaTITMz07LGhTexeQWWrVu3AgDu3LkDtVqNxMTESl/bpUsXKJXKhzuSSrFixQqMGjUKAwYMwIQJExAWFlbl/goKCiz7vHLlCtauXYuPP/7Y8vzOnTst/dwAoGXLlhg7diymTZuGUaNGYcuWLRg8eDCioqIwYsQIy+t++eUXzJ49GyUlJcjLy0NaWhqeeuop2wqDiIiIyEZGoxHLly8HAKu/ePr5+UGlUkGj0SAuLg6ZmZlcSK+a5eXlYf369VavNyKVShEbGwutVguFQuE1M3/ZfFXu3LkTAHD37l388ccfmDJlSqWvfXxqwO7du+P111/Hjh07cPz4cav2d/PmTcs+9Xo9bt++jcaNG1uer1evXpnmqEaNGgEAXnnlFeTn5+OHH37Ajh070LNnT0yaNAnz588HAPj7+6NVq1YAgNLSUqxduxajRo1CYGCgVXERERER2Uqv1yMtLQ3x8fF2rYEQGRmJrl27IiEhwe5tkG0eXehQpVLZ/H65XI6srCykp6ejS5cuT2yl8gQ2JxefffaZ5d/bt29HampqpeMmjh49ijZt2pT5W58+fVBYWGiZsqsqYWFhZfaZmJiINWvWWJKEzp07Y9y4ceXeN2/ePPzrX//CoEGDMGjQIMyZMwdhYWFISEgAALRp06bM+0aOHAmNRoOYmBir4iIiIiKyhUajwfbt2x1udTB3uTG3fsTGxgoVIj1Gp9Nh4cKFSEpKcqjVwTx+RqPRIDU1FUql0mNbnhwacxEWFoZr165V+JxOp8Ps2bOtuuDv3r2LK1euOLzPR23btg1ff/215f8SiQQ1atTA008/Xe61N27cgFarRcOGDa2KgYiIiMha5n76/v7+5QZt28vc5cY8UxGnrBXekiVLkJubi8zMTMG6M0VGRmLq1KmIiYnx2ClrHUougoKCcPnyZZw5cwbAwy5TwcHBaNKkCQYOHIiZM2di0KBBVW5nx44dVjcRtWjRAnv27EFJSQkAID09vcxUtMHBwdDr9fj3v/+N5ORk9OnTBwMGDIBcLseHH35oSS6+/PJLy+vbtGmDgQMHYuDAgXaWBBEREVF5Wq0WEydORHp6ulMWVwsJCbFMWavRaATfvjfS6/VQKBSIiopCbGys4C0MMpkMarUaP/30E5YsWeJxU9ZKTI8OihDRggULMHPmTEG3aTKZcObMGRQWFqJ169aoU6eOoNu3l1qttsyHTO7t8XFFRCQO1kVyNUajEenp6WjVqpVdn/n2XNNCdbvyZhqNBocPH7ar25I950yoblfOYp5K15axPS6RXOh0OhQWFqJTp05ih1ItmFx4Dn6hIXINrIvkSvR6PeLi4hyaHcjea9pgMGDixIlITEy0LMZHVXt00La9A67tPWdC7NtZ3Da58DYTJkzA6tWrxQ6DiIiInCAlJcXhAbuOJsxqtRpjxoyx+/3eJjw8HFu2bLFqitnKOHrO8vLycOTIEZcaoK/T6eDn52dTkszkgsgB/LWUyDWwLpKn8eRr2lOPTafTOTw1cGpqKpKTk4UJSCBnz55lywVRdfHUGySRu2FdJE/jyde0Jx8bOThbFBERERERkRmTCyIiIvIK165dw59//il2GEQejckFEREReYU9e/ZgxYoVVr22om47paWlQodE5HE4CTIRERF5vMLCQmRkZODmzZvo0qULTp06hZ9++gn+/v4wmUxITk5Gx44dkZaWhkOHDgEAunfvjsTERBQWFiI+Ph6lpaW4evUqkpOT0aNHD4dj+vTTT/Huu+96/ZoUGzduxNSpU7nKuIdgywURERF5vICAACQkJGDIkCEYPnw4iouLkZKSgk2bNiE5ORmLFy/Gzz//jJs3b2Lr1q3YunUrCgoKcOHCBWzZsgUvvPAC1q5di+zsbGzYsEGQmN577z00adIEc+fO9bhVmq2xa9cudOjQAdHR0SgoKBA7HBKId6fKRERE5DV8fX0hlUpRo0YNAMCff/6JZ555BtnZ2WjQoAF27NiBUaNGWV6fmZkJAOjZsyfGjh2LO3fuIDIyEgsWLBAspoKCAqSkpGDp0qWYNm0akpKSvKIlo0OHDtBqtWKHQU7AlgsiIiLySvv27YNGo0H37t0xf/583L9/35J4AEBRURGuX7+O1q1bY/fu3ejYsSMWLlzolEXOzElGvXr18Msvvwi+fVfx7bffAkCFiYVEIrH6Qa7L81NjIiIiov/v0YHa48aNQ69evSz/79mzJzQaDV588UUAQEZGBl5++WXk5+fjpZdewqBBgzBo0CB06tTJ8h4hFz1r3bo13nnnHcv+PdGgQYMAPCz7rVu3orCw0PIc177wDFxEj8gBXAiIyDWwLpI1fv75Z0yaNAmLFy/Gnj17MHDgwDLJBQD885//hEQiga+vL/R6PTZu3AidTofJkyejS5cuOH36NNq1a4e5c+c6HI/5F/jAwEAkJSVh2rRpli5RnnxNm4+tqKgII0eOxMGDB1FYWOixx+ttmFwQOcCTb/5E7oR1kax14sQJ1K9fH40bN670NVeuXMGDBw/w7LPPWv5WWlqKs2fPwt/fH4GBgYLE8vTTT+P999+vcJyFJ1/Tjx/b6dOnMXPmTGzdulXEqEgoTC6IHODJN38id8K6SJ7Gk69pTz424oBuIiIiIiISCJMLIiIiIiISBJMLIiIiIiISBJMLIiIiIiISBJMLIiIiIiISBJMLIiIiIiISBJMLIiIiIhczevRosUMgsgvXuSByAOfqJnINrItE7oP11bOx5YKIiIiIiATB5IKIiIiIiATB5IKIiIiqnU6nc+j9RqMRBoNBmGCISDAcc0HkAPYbJXINrIvux5FzptPpsHDhQixevFjgqIjocbbWUyYXRA7gFxoi18C66H7sPWdLliwBAEyZMgVSqVTosKgasL56NtZKIiIicnl6vR5xcXFIT09HSEiI2OEQUSWYXBAREZFL02g0OHz4MLKysthaQeTiOKCbiIiIXJLRaERcXBwAYM6cOUwsiNwAaykRERG5HK1Wi4yMDKxcuRJ+fn5ih0NEVmJyQURERC7DaDRi+fLlqF+/PtRqtdjhEJGNrO4WdfbsWdSvXx/BwcEICgpCaGgo5s+fb3m+f//+aNq0KYKDgy2PadOmOSVoIiIi8jx6vR4xMTGIioqCQqEQOxwisoPVLRelpaVo1KgRfv/9dwAPbwDPPfcc+vXrhx49euDOnTv4+uuv0a1bN6cFS0RERJ5JrVYjPz+fg7aJ3JzdA7plMhlCQ0Px4MEDIeMhIiIiL2IwGBAXFwe5XM5B20QewKYarNfrMXv2bJhMJuh0OrRo0QK9evWyPL9q1Sp8//33lv/369cPr7zyinDREhERkcfQarVYtWoV0tPTOWibyEPYlFz4+vqiVatWAIC6desiOzsbBw4csCQYTZo0KbOwjb+/v3CREhERkUcwGo0AHiYXKpVK5GiISEg2JRf+/v4YN26c5f916tTB6tWrLcnFoEGDOOaCiIiIKqXT6bBw4UIA4KBtIg9k95iL4uJi7N+/Hw0bNhQyHiIiIvJQarUaubm5yMzMFDsUInISm1ou8vPzERwcDAC4d+8eunbtWqY5c/DgwXjqqacs/w8NDcXu3buFiZSIiIjckl6vR1xcHBITEyGXy8UOh4icSGIymUxiB0HkriQSCViFiMTHuui6NBoNDh8+DKVSWWYmKJ4z78Vz79ns7hZFREREVBmj0YjU1FQA4BSzRF6ENZ2IiIgEpdVqkZGRAZVKBZlMJnY4RFSNmFwQERGRIIxGI5YvX4769etDrVaLHQ4RiYDJBRERETlMr9cjLS0N8fHxZda8IiLvwuSCiIiIHKJWq3Hw4EFkZmZybAWRl+OAbiIiIrKLwWBAXFwc5HI5VCoVEwsiYssFERER2U6r1WLVqlVIT0+Hn5+f2OEQkYvgOhdEDuBc3USugXWx+hiNRiQkJKBbt25QKBR2b4fnzHvx3Hs2tlyIQKFQIDs7W+wwSCASiUTsEIgIrIvVZdq0aUhOTuYUs0RUIbZcEDmAv74QuQbWRffDc+a9eO49Gwd0ExERERGRIJhcEBEREVG1WbdundghkBOxWxSRA9i0S+QaWBfdD88ZkWdiywUREREREQmCyQUREREREQmCyQUREREREQmCyQUREREREQmCyQUREREREQmCyQUREREREQmCyQUREREREQmCyQWRA0aPHi12CEQE1kUiIlfBRfSIiIio2nERPSLPxJYLIiIiIiISBJMLIiIiIiISBJMLIiIiIiISBJMLIiIiIiISBJMLIiIiIqpSamqq2CGQG+BsUURERFTtOFuU++E5I2uw5YKIiIiIiATB5IKIiIiIiATB5IKIiIiIiATB5IKIiIiIiATB5EIEBoNB7BCIiIjISxgMBhiNRrHDAADo9XqxQyAb6XQ6m17P2aJEIJFIxA6BiIiIvMiQIUOQlpYGuVxu9zYcmS3KaDRi+fLlOHPmDBYuXGh3DCQOW847kwsRcCo3IiLydvwsrH5qtRo3btzAlClTIJVKbX6/vedMr9cjLS0N8fHxCAkJsfn9JC5bzzuTCxHwhkpERN6On4Xi0Ol0UCqVUKlUkMlkNr3XnnOm0Wiwfft2ZGZm2pXQkPiYXLgB3lCJiMjb8bNQPEajEenp6WjVqhUUCoXV77PlnBkMBiiVSowYMQK9evWyN1RyAUwu3ABvqERE5O34WSg+rVaLVatWIT09HX5+flW+3tpzZut2ybUxuXADvKESEZG342eha7ClhaGqc2Zviwi5NiYXboA3VCIi8nb8LHQt1oyNeNI5c2QsB7k2W+uq1etc3L9/H/Xq1UNwcDCaNWsGuVyOefPmobS0tMzrvvjiC9SrVw8nTpyw/O3NN99EcHAwmjZtigYNGiA4OBjBwcHYsGGD5TVjx45FWFgYSkpKrA6eiIiIiBwXGRmJpKQkJCQk2LyugVqtRm5uLrKysphYkPUtF/fv30dgYCBu374NALhy5QomTJiAF154AWlpaZbX9erVC76+vnj55Zcxb968Mts4evQoJkyYgEOHDpX5+61btxAaGoqQkBB8+OGHeO211xw9LpfGX2uIiMjb8bPQNZnXowCA2NjYMs89fs4MBgMmTpyIxMREh9bPINfmtJaLxzVp0gQrV67EkiVLLK0XOp0Oly5dwsKFC5GdnW31tr7++mu8/vrrGDt2rE3vIyIiIiLhSKVSxMbGonfv3lAoFJWuqJ2XlwelUomsrCwmFlSG3ckFADRt2hR16tTBpUuXADxsFhs9ejQ6deoEHx8f/PLLL1ZtZ926dRgzZgzefPNNbN68GcXFxY6ERUREREQOkMvlyMrKwueffw6NRmP5u9FoRFxcHIqKiqBSqbh2BZXjUHIBlG0qUavVaNGiBfLy8tCpUyerWiGuXr2KAwcOoFatWjh37hwaNGiA7777ztGwiIiIiMgBUqkUc+bMAQCkpqYCAGJiYpCUlITIyEgxQyMX5lByodfrUVRUhKCgIBw7dgzXr1/HoUOHsGbNGjz11FPIyckpN+D7cTk5OWjVqhW++uorrFmzBs2bN2fXKCIiIiIXERkZCV9fXwBAYmIiB23TE9ndlmUwGDB9+nRMmjQJPj4+UKvVePvtt8sM7m7Tpg1++ukn9O3bt9LtqNVqfPzxxwgPDwcAXLp0CW3atMGdO3dQu3Zte8MjIiIiIgfp9XrExcUhPT0diYmJ0Gq1+OmnnzBlyhR2iaIK2dRyYTAYEBwcjKCgILRr1w7NmjVDeno6TCYTsrOzMXr06DKvHz58+BNbIU6fPg2dTlcm+WjWrBk6duyIbdu22XgoRERERCQUjUaDtLQ0ZGVlISQkBACgUCgQFRWFhISESgd7k3fjInoi4PR7RETk7fhZ6LqMRiMSEhLKrdr96Dkzv6Zbt25cjdvDcYVuN8AbKhEReTt+FromrVaLjIwMrFy5En5+fmWeq+icabVarFq1Cunp6eVeT56ByYUb4A2ViIi8HT8LXYvRaER6ejpatWpVaYrveGYAAAUmSURBVEtEZefMYDBAqVRiwoQJXPPCAzG5cAO8oRIRkbfjZ6HrMA/aVqlUT5wJqqpzplarcfDgQWRmZnKwtwdhcuEGeEMlIiJvx89C16BWq5Gfnw+lUlllQmDNOdPr9UhLS0N8fLxlEDi5NyYXboA3VCIi8nb8LBSXwWDAxIkTkZiYaHVXJmvPmdFoxPLly1G/fn0O9vYATC7cAG+oRETk7fhZKJ68vDysX7/e5u5Ltp4z8+DwqrpbkWtjcuEGeEMlIiJvx8/C6meePjYiIgKRkZE2v9+ec+boPh938uRJNGjQAIGBgQ5vi6xj63m3aRE9IiIiInI/Op0OCQkJSEpKEuRLvrWkUilUKhUAIDU1FUaj0aHtLVmyBAcPHhQiNHIStlyIoF69eigsLBQ7DCIiIvISmZmZmDFjhkOzODna2qTX65GSkoKlS5favQ2qfm3btsXvv/9u9euZXBAREVG1Y7co9yP2OSstLcW0adMwYMAA/OMf/8Crr76KPXv2AAAmTpyI2NhYFBYW4ptvvsGnn36KgoICTJgwAVu2bBEtZm/ESYiJiIiIyOX5+PhAKpXC19cXEokEBoMBq1evRlFREf766y+EhYXh6aefxqxZs2AymbBlyxYMGzZM7LC9DsdcEBEREZHbqVGjBoKCgtCmTRs8/fTTOHLkCCQSCV5++WUcOHAA3377LYYOHSp2mF6HLRdERERE5DbMXbNq1aqFiIgIAMCdO3dw5MgR9OrVC2PGjEFmZiaeeuop1K1bV8xQvRKTCyIiIiJyCzKZDIsWLUK7du1w/fp1REdHo6SkBDdv3sSGDRsAAHK5HEeOHIFSqRQ5Wu/EAd1ERETkFBs3bgQADB8+vNxzYg8OJttVdM527dqFvLw8zJkzp1piePDgAY4dO4a2bdvCz8+vWvZJtuGYCyIiInKK3bt3Izo6GiEhIZZEgzzDrl270KFDB4SHh+PatWvVtt+aNWuic+fOTCxcGJMLIiIicqpz584xyfAQjyYVWq1W7HDIBbFbFBEREZUhkUicuv3AwEAUFBSwW5Sbqey6CAsLw59//inIPs6ePYuQkBBBtkXiYMsFERERlWEymQR5TJs2rcx2a9eujWHDhiE/P1+kIyNHJScno1GjRmX+NmDAAMGuGSYW7o/JBRERETmVOam4ePEiNm7cCH9/f7FDIjvNnTsXFy9eRHx8fLkkgwhgckFEREROEhgYyKTCA0mlUixYsACnT5/G22+/Xa0Dusn1ccwFERERVTtORet+XPGchYeHo169ejAajahTpw4WL16MgIAAscPyamy5ICIiIiK3VFJSgg0bNuDrr7/G2LFjkZqaKnZIXo/JBRERERG5vf79++PYsWNih+H1mFwQERERkUdwtW5b3ojJBRERERG5vb1796J9+/Zih+H1pGIHQERERERkj+LiYkRHR6OkpARSqRTLli0TOySvx9miiIiIqNq54sxD9GQ8Z2QNdosiIiIiIiJBMLkgIiKiardu3TqxQyAb8ZyRNdgtioiIiIiIBMGWCyIiIiIiEgSTCyIiIiIiEgSTCyIiIiIiEgSTCyIiIiIiEgSTCyIiIiIiEgSTCyIiIiIiEgSTCyIiIiIiEgSTCyIiIiIiEgSTCyIiIiIiEgSTCyIiIiIiEgSTCyIiIiIiEgSTCyIiIiIiEgSTCyIiIiIiEgSTCyIiIiIiEgSTCyIiIiIiEgSTCyIiIiIiEgSTCyIiIiIiEgSTCyIiIiIiEgSTCyIiIiIiEsT/A9ukKVmSgOzoAAAAAElFTkSuQmCC;" vertex="1" parent="1">
          <mxGeometry x="23" y="80" width="791" height="465" as="geometry" />
        </mxCell>
        <mxCell id="s_b_cYuPZwbkjftlkVLz-2" value="" style="shape=image;verticalLabelPosition=bottom;labelBackgroundColor=default;verticalAlign=top;aspect=fixed;imageAspect=0;image=data:image/png,iVBORw0KGgoAAAANSUhEUgAAAyEAAAG0CAYAAAAl2igqAAAACXBIWXMAAA7EAAAOxAGVKw4bAAAgAElEQVR4nOzde1hU1f4/8PcICIiJFwYiQTBDRQQtSeSLpolGlqUZqOCJMq28VFh66ugxFTIxK2WSTp2T5qUTI4icLExRKCwQPEUqN6/IoCkKmKKACAP794e/2YfhJpeZ2QO8X8+zn8fZs/Zan+3MbOYza+21ZLW1tYJMJkNdgiCg7r76j1nGuNrvymWkbr+zlpG6/a5cRur2u3IZqdvvymWkbr+zlpG6/a5cRur2O0KZbiAiIiIiIjIgJiFERERERGRQTEKIiIiIiMigmIQQEREREZFByWprawWpgyAiIiIioq7DFIDR3z1v7GWkbr8rl5G6/c5aRur2u3IZqdvvymWkbr8rl5G6/c5aRur2u3IZqdvvCGU4HIuIiIiIiAyKSQgRERERERkUkxAiIiIiIjIoJiFERERERGRQnB2LiIiIiIgMirNjcQaEDl1G6vY7axmp2+/KZaRuvyuXkbr9rlxG6vY7axmp2+/KZaRuvyOU4XAsIiIiIiIyKCYhRERERERkUExCiIiIiIjIoHhjOhERERERGZRp/ZtEiIiIiIiI9InDsYiIiIiIyKCYhJDRCQsLkzoEIiIi6mLa8/0jKipKh5F0DTJBEHhPCBkVmUwGvi2JqK7r16+joqIC/fv3lzoUIuqk2vP9g99dWo89IUREZPQOHjyIyMhIqcMgIjIaOTk5HTrxYRJCRk+tVmPNmjUoLy+XOhQikkBpaSkUCgX27t2L+Ph45OfnY+bMmZg5cyb+8pe/4OrVq4iLi8MHH3wgHrNs2TIcPXoUlZWVWLBgAWbOnAl/f3+kpqZKeCZEZAzefvttg3ynKC8vR2lpqd7q9/f3R1VVld7q1zcmIWS01Go1PvzwQ9jb2yM0NBTFxcVSh0REEujVqxfmzp2LyZMnw9fXF0uXLsXGjRsRExODZcuW4fPPP8dzzz2Hw4cPIz8/H5mZmbh8+TK8vLywceNGPPnkk4iJicG///1vbN68WerTISKJbdq0CYMGDcL8+fOhVqt1Xn95eTnmz58PBwcHbN++Xef1A8DWrVtx6dIlvPLKK7hz5w7c3d0RGBiIwMBALFmyRC9t6pqp1AEQNUahUOAf//gHzpw5I3UoRCQxmUyGXr16oUePHjAxMYEgCHBwcAAAjBw5EiNHjgRw97rxt7/9Dbdv38bnn38OAEhJScGKFSsAABYWFti1a5c0J0FERuXq1avYunUrDhw4gPnz52PlypXtrlOtVmPBggWIj4/H1atXdRBl02bPno3169dj/fr1AAAHBwcolUq9tqlrTELIqBQWFgJAh8niiciwqqqqYGJiorWvoKAATk5OcHV1hZOTE/r27SvewF5TU6NVtrCwEDY2NjAzMzNYzERkvC5duoTQ0FB8+OGHba5D05vi7OyMS5cu6Sq0ZllZWcHU1BT9+vUDcPfaFh0dDQBwd3fHsGHDDBJHe3A4FhkVe3t7AHc/QPUNHDgQMpmMGzdunXS71/0agiCgZ8+euH79ujieu7i4GK+88opYZsiQIXBxcREfDx48GL/++qt4/IwZM1BbW9to/SqVSvL/A27cuOl/q8/JyQlff/31Pb6hNM3U9O5v+nfu3Gnw3JIlS3Qa+4gRIxqNoVu3brCwsICFhYUYj7HrGFFSl5OZmYmkpCS89dZbyMrKAgDk5+fD2dlZ2sCISBJyuRzx8fF48sknsWbNGjzzzDMYM2YMUlJSEB4e3uRxK1euRFBQEDw9PZGbm4ugoCCYm5s3WtbZ2blDzzRDRC2jSUTc3d2xatUq+Pv766TewsJCrF27Flu2bBF7RCIiIhASEqKT+hsjCAJkMhns7Owwbdo0vbWjD1wnhIyOTKY913ZSUhJeffVVJCUlMQkh6sJycnIgl8tha2uLyspKXLhwAY6OjrC0tGz2uNraWqhUKvTu3Rt9+/Y1ULREZKzkcjk2bNiAuXPnau2v//2jNeoeq1arsXbtWigUCqxZs0ZvSchjjz0Gd3d3bNy4EdOnT8f+/fv10o6+MAkho9OeiwARERFRW+gqCdEoLy+HWq2GtbW1LsJroLS0FOfOncOoUaP0Ur++MQkho8MkhIiIiAxN10kINY83phMRERERkUExCSEiIiIiIoNiEkJERERERAbFJISIiIiIiAyKSQgRERERERkUkxAiIiIiIjIoJiHU4UVFRUkdAhF1ILxmEBFJj+uEkNFp7VzbnJubiFqD1wwiagzXCTEs9oQQEREREZFBMQkhIiIiIiKDYhJCREREREQGxSSEiIiIiIgMikkISaK8vBxqtVrqMIiIAADFxcUoLy+XOgwiMoDi4mKpQyAAplIHQG2jUqkwcOBAqcNol8DAQOzcuROmpnwbEpF0iouLMX/+fHz33XdSh0JEBvDWW2/h+eefh4+Pj9ShdGn89tdBOTs7d/ip4IqLixEcHMxEhIgkU1xcjJCQEOzZs4fXIaIuJCwsDACYiEiIw7FIMnK5HAqFAsHBwRyaRUQGp0lA+EMIUdezatUqJCUlITU1VepQuiwmISQpJiJEJAUmIESkSURUKpXUoXRJXDGdjELdLwRmZmZcMZ2I9EYmk/GeNCISRUZGYtasWbC1teWK6QbEJISMhiYRUSqVTEKISC+Ki4tha2uL6upqJiBEJIqMjMQbb7zBJMSAmISQ5KKiojBnzpxGn2vJ25MffCJqTnOzCebn58PZ2dmwARGR0ZDJZI3u/+abbxAUFNSqevhdpHX0ck/Ixx9/DBcXF7i4uGDIkCF46qmncOzYMQDAu+++i7i4OK3yy5Ytw759+wAACxcuRGJiIgDg9OnTeOGFF/D4449j3bp1qK2t1Ue4JLGgoCAIgiBuwN3pe6urqyWOjIg6A2dnZxQVFWldVzTXGyYgRF1bY98/ioqKWpWAUNvoJQm5du0aXnzxRWRnZyM9PR0+Pj6YOXMmAKCoqAi3bt3SKn/16lWUlZUBAK5cuYLy8nJUV1fDz88PM2bMwBdffIEDBw7giy++0Ee4ZIR4szoR6QpvQieiltq5cydCQkK4oKEB6G12LDMzM5ibm6NPnz5YsGAB8vLyWvXLdn5+PlxdXfHcc89hyJAhmD9/Pn799Vd9hUtGhrNmEZEuMAEhotYwNTVlImIgersiX7hwAUePHkVFRQW++uoreHl5wczMDACwf/9+lJSUiGVzc3MxdepUreMHDx6M/fv3AwCqqqqgVCrxwgsv6CtcMkKaROSLL77A66+/LnU4RNTBqNVqJiBE1GqaRCQ4OBgKhQJyuVzqkDolvfWEpKSkICIiAv/617/wwAMP4NtvvxWfs7CwQM+ePcWtuT8OaWlpGDNmDB577DGOz+uC5HI5Zs2ahcjISKlDISIj1diNpWq1GuvWrWMCQkRtwh4R/dPblTkoKAjvvvtuo889/vjjePHFF8XHKSkpjZb7xz/+gW3btmHnzp0YPny4XuIk41c3EWGPCBHdiyYBWbFiBRMQImqx/Px8rcfsEdEvo10x/fLly9iwYQN+/vlnJiAEuVyOqVOnIiwsTOpQiMiIMQEhorZqbLY89ojoj9EmIenp6SgqKsKAAQMgl8shl8vxxhtvSB0WScjZ2Rm+vr5MRIioUWq1GsHBwVi4cCETECLSGSYi+sHFCsno3GvBn9TUVCQlJWHVqlUtKk9EnZtMJkN1dXWLh0zwmkFEbaH5oaOx6wyvK61ntD0hRE3x8fFhjwgRaeGYbSLSN/aI6BZ7QsjotPTXBE2PyOrVq/nrA1EXpVarYWZmhqKiohYnIPzFkojao7EeEV5XWo9JCBmde32Qo6KiMGfOnEaf49uZqPNTqVQYOHBgo8/l5+c3enNpXfyyQETtVT8R4XWl9TgcizqcoKAgCIIgbgAQGhrKDz9RF+Hs7Izq6moEBgaiqKgIAMTrwb0SECIiXeDQrPZjEkKdAu8RIeo6mrs5lIiorcrLy1tVvm4iQq3H4VhkdFrbpakpX3/WLCLqfHQxFpvDJoioMW25ljQmJSUFPj4+ugqr02JPSBdx/fp1XLp0Seow9IqzZhF1buwBISJj0tjQ8OrqaiYgLcQkpIs4ePAgIiMjpQ5D75iIEHVOTECIyNitWLEC69atg1qtljqUDoFLynYBpaWlUCgUuHHjBnx8fJCVlYWUlBT06tULALB48WKMHTvWoDEpFAps3boVmzZtgq+vr07r9vHxQUpKSpPdpETUMWVkZDABISKjZWpqipCQEJiZmUkdSqu1ZGZBXeM9IV2AIAjYsmULsrOzsX79eoSFhWH69Onw8vKSLCaFQoElS5YAANzd3bWSEY7vJo2cnBwMGzaMCSU1i9cMqu/69euoqKhA//79pQ6FOpD2XBt4XWk9DsfqAmQyGXr16oUePXrA0tISAHDo0CFER0cjJiZG4uiArKwsTJo0CR4eHsjNzZU6HDIi/v7+qKqqkjoMIupgusoQZKKOjElIF9W9e3dYWFjAwsKizXWkpqZCJpO1adP0gtR18eJFvPLKK+05LajVaqxZswb3339/u+oh6W3duhWXLl3CK6+8gpSUFIwdOxaBgYHw9/fHoUOHcPz4cSxbtgwA8Ntvv+HJJ58EAFRWVmLq1Kn4z3/+A6VSKeUpkA6pVCrY29sjNjZW53XHxsbC2dkZKpVK53WT4WmGIO/duxfx8fH46KOP8PTTT2PWrFn4y1/+gvz8fAQHB+Py5csA7q49dfDgQQDAhg0bcPDgQcycOVOs78qVK3jzzTclORfSD0tLS6xZs4b3bkiMSUgXUrebcPz48Zg2bRqeffbZNtfn4+OjNTNEa7aIiAitusaPH4/ffvsNqampbYpFk3zY29sjNDQUgwYNavN5kXGYPXs27OzssH79ety5cwfPPPMMlEoldu7ciXXr1sHNzQ2//PILACAhIQF//vknSkpKkJGRgUGDBqGiogIVFRUSnwXp0pUrVxAQEABnZ2edJCOa5CMgIAAFBQU6iJCMQa9evTB37lxMnjwZvr6+uHnzJlatWoXo6Gi8+uqr+Pzzz+Hq6oojR46gqqoKly5dQnx8PAAgKSkJo0aN0lp8rqamBtevX5fqdEgPKisrERoaCnt7eyYjEuKN6V2EXC5HfHy8+GuxsRgzZgy2bt2KYcOGtel4zYXD3t4eJSUlugyNJGZlZQVTU1P069cPAFBUVITTp0/j999/BwCYmZmhX79+uH79OjIzM/HWW2/h0KFDuHTpEiZMmMAEpBMrKChAQEAAnJyc8PHHH7epDmdnZyYenVRjQ5BVKhXuu+8+fP/997CyssLjjz+O6Oho2NjYYNasWUhISEBtbS0qKirQr18/3L59G9HR0QCAa9euSXk6pEclJSUIDQ2FUqnEokWLpA6ny2ES0kVMnDgR0dHRkMvlmDBhgtThYOrUqZg8eXKbkw8NzRfS+glISUkJb2Y2Ih4eHjhx4kS76sjMzMSuXbtw//33Iy4uDsDdHrTExET06NEDTzzxBP7617/i1q1bePnll7F//35dhA6VSoWBAwfqpC7SrYKCglYP4SwqKhKPrY+vs3H65ptvEBQU1K46EhMTcerUKYwZMwbPPvssZDIZVq5cCSsrK7z44os4ffo04uPjMWrUKAB3ExnNcGVzc/N2tR0VFYU5c+a0qw7SrzNnzmD9+vVSh9HlMAnpQtzc3KQOQaSr4VKjR48GAKxevRqfffaZmIzY2Njg9OnTOmmDpKUZRjhp0iS8++67Ws89/vjjWLhwIV5//XX069cP165dQ3V1Nfr27auz9p2dnTnjiRGonwxqekH8/f1b9YODra0tAGD37t1YtmyZVjIixRSVpD91P7fz589vMCOklZUVjh8/jrVr18LPzw/vvfce3nvvPQCAhYUFpk2bBgC4dOkSkpOT2xxHUFBQu5Mo0q2614zBgwdj0aJFWLx4cYecWrcj4z0h1CmsWbMGhYWFWL16NWxsbDg0q5OQy+VYunRpk8+PGjUK586dE6d39vDwwJAhQ8Tn//nPfyIwMBCBgYE4efKk3uMl/XNycsLu3buhUqng7+/f5nr8/f2hUqmwe/duODk56TBCMgaaIcjNJQ/jxo2DnZ0dAGDChAk4efIkHnvsMQNFSFKzsbHB+vXrkZOTg5CQEJia8nd5Q+M6IWR02jvnv1qtxtdff425c+fqIzwyoNLSUpw7d04cIkFdV3l5Ofbv399o4qGLdUJiY2MxZcoUWFlZtTtWMg45OTmQy+Vi7xeRxscff4wlS5Y0SDy4TohhMQkho2OsC49duHABvXv3FleaJyLjYKzXjNZSq9U4d+4chg4dKnUoRF0SkxDD4nAsohYKDw9HWlqa1GEQUSd17do19uASUZfBJISMTn5+fruOT0pKwqBBg3S68FhaWhoOHTqE8PBwnD9/HsDdGx1DQ0PFMsuXL0deXp74uO5iV+2lUqkwaNAgJCUlNXiOs4BRV6BSqeDh4YHc3Fyd111aWoqXXnoJX3zxhc7rbo2wsDCcPXsWGzZsQHp6Onx8fMQFOj/44ANJYyMi0jUmIWR02jo7TW5uLiZOnIhJkyaJiYKujBo1CmPHjsWiRYswYMAA3Lx5E3/++ScSExPF7tcbN25oLXhUd7ErXTh//jwmTZoEDw+PRpMRos4uKysLbm5u8Pb21kkyUlpaCn9/fwwYMAA7duzAnTt3dBBl24WEhMDZ2RkLFizAnTt38NRTT0GpVCI2NhZHjx7F1atXJY2PiEiXOBUAdQre3t5IT0/XW/3du3eHpaUlrK2tYWpqiri4ODz33HM4fvw4UlNTMXbsWADAvn37cPz4cQDArVu39BJLVlYWJk2aJC70SNTVpKenw83NrV2fAX9/fyQkJKCsrEzH0bWdtbU1zMzMxPvOLl26hIyMDJSUlKCmpkanU08TEUmNPSHUoRUWFgJAownIwIEDIZPJ2rRFRUU1225UVBSuXLmCqqoqKJVKcb+5uTksLCxgYWHRYJhUVFRUm+NpbBG19PR0zhpFRisoKKjN7/fWfAZ8fHzaFN+ePXsaJCBLlizRacztHSqZn5+P5ORk/PLLL2KCQkT6U3eINekfkxDq0Ozt7QEA69evh42NjdZz+fn5EAShTVtTC0sJgiAOifi///s/zJ49G//973/FYViTJk3CtGnTMG3aNPTs2VPr2KCgoDbHU/8+GRsbG6xevVpvvS1E7RUVFdXm93tLPgODBw9GREREm4c9JiYmwt3dXWtfRESETmNuy0w5dY8ZO3Ysli5dirVr16KyshIVFRVtOlciaplVq1ZJHUKXwiSEOoV3331Xa7FCfZDL5VAoFPjnP/+Jl19+GT4+PvDx8cGECRMMdo+GJvkoLCzEmjVruLgSdTmaz0DdBcY8PDxaXY+vry8yMzMRHx9vNIsV9uzZEwUFBdiyZUuD5xwcHPD7779LEBURkX5wnRDq8BpbrHDt2rVYvHgx5HK5ztqprq7GiRMn4ObmBktLS53V2xLFxcX47LPPsHLlSp0urkTUUTT3GWitphYr7NOnD3x9fdtVd3tdvHgRlZWVcHFxkTQOImod/i1uPSYh1OF19Q9+Vz9/otbiZ4aIdI3XldbjcCwiIiIiIjIoJiFERERERGRQTEKIiIiIiMigmIQQEREREZFBcX7PDkqlUjW6eFdX1d5FwTqK//u//8O3336r01m/NNRqNcaPH48jR460+th///vfmDNnjs5jAoC3334bmzZt0kvd1HV1lWsGERlOR76u5Ofnw9nZ2aBt6qUnZNOmTXBxcRE3T09PhIeHAwCUSiUWLFgglv3+++8xcuRI1NbWAgBKS0vh6uqKyspKeHt7i3WMGDECf/3rX1FTU9Ns2yNGjMDatWu19p05cwYuLi7Yt28fzp8/Dz8/vwbHnT9/XitmLy8v7Nixo9m2PvroI2zYsEFr3759+zB//nxUVVVp1ffII4/gvffeE8+zLedWl7Ozs84X1eqoGwDJYzDUdvjwYYSEhLR5gbamqNVqrFu3DuHh4QgNDW3QbmhoKFJSUprc7+zsjNTUVJ3GBABhYWF4/vnnJf9/59a5NqDrXDO4ceNmmK2jX1cMnYAAekpC/vzzT8yZMwfZ2dnIyspCTEwMNm7ciKSkJLi7u+O7774Ty37//fdQqVT47bffAABHjx6FtbU1LCwsoFKpkJycjOzsbCQkJCAxMRE7d+5stm2VSoXo6GitfbGxsSguLkZZWRmqq6tx4cKFBsdVV1eje/fuYsxffvklFi1ahLy8vCbbevzxxxssKqVUKjFmzBgIgoCLFy8iOzsb2dnZ+Oqrr7B7924olUoxztaeG5GpqSl27typ00REk4BMmDABycnJDVaMDQsLg6+vL3x8fJrcr3lOl4lIU+0SERFRx6e3e0LMzMxgbm4OCwsLPPjggxg9ejRKSkrg5uYGtVoNlUoFAEhOTsbSpUtx8OBBAMCRI0cwfvx4sR4LCwuYm5vj/vvvh7e3N27dutX8CXXrhuHDh+PXX38V9+3duxdPPvnkPWPu1q2bGLOHhwecnJxQXl7eZHlPT0/IZDIcO3YMAFBVVYWEhATMmDEDwN1uOXNzc5ibm2PkyJF44okncPLkyTafGxGg20REFwmIho+PDxQKhU5Wj2cCQkRE1Lnp7Z6QM2fOICEhAYIgIDs7G8XFxZg8eTJkMpk47rympga2trbw9/fHa6+9hpUrVyItLQ1LliwR61EoFLCyssKff/6JEydO4P33379n2wEBAYiJicGjjz6KvLw82NjYoE+fPvc8rri4GB9++CEEQcDp06fh6ekJd3f3Zo+ZM2cOoqOj8fDDDyMpKQmjR49G3759cefOHdTW1uLo0aMAgJMnTyImJgbbt29v17kRAf9LRIKDg9tch1qtRnBwMObNm9fuBESzPyQkBElJSbCwsGhzAsEEhIiIqPPTW09ITk4OYmNjsWfPHsTFxWHQoEGwtrYGcHcY05EjR3Do0CFMnjwZrq6u+OOPP3Djxg389ttvWl8+rK2t0bt3b9ja2kKtViMxMfGebU+ZMgU//PADBEHAnj17EBAQ0KKYTUxM0Lt3b/Tp0wcDBgxATk4OcnNzmz1Gk4QAwJ49ezB79mzxObVajYiICERERCA5ORmbN2/W6pFpy7kRqVQqyGQymJmZicP7ZDIZZDKZ2MN4L5oEZM6cOUhNTdVJAqLZv2rVKiQlJbVpaBYTECIioi5C0IOVK1cKa9eu1do3ePBg4ffffxcEQRByc3OFkSNHCjNmzBBSU1MFQRCEefPmCWvXrhUeffRR8Zj7779fKCkpER+npqYKXl5ezbbdu3dvQRAEYdasWUJ6errg7e0t/Pnnn8KCBQuEXbt2CadOnRKGDh3a4LhTp04Jw4cP19r3wQcfCO++++49z9fLy0tITU0VHBwchNLSUkEQBKGyslKwsLBo8pi2nBs1Tk9v4w4DgBAYGCgUFRW1qHx1dbUQGBgoxMfHC6GhoQ2eDw0NFVJSUhrs/+abbxrd31T5efPmNbq/KU3VQ6RrXf2aQUS6x+tK6xlsnZAhQ4agqKgIAODq6oqioiL897//xejRowEAfn5+2LhxIyZMmNDo8YIgIC0tDX379gUAXL58Gbdv326yvYCAAGzYsAF9+vRp0VCs+iorK5GRkYG+ffuitrYWBQUF4uwH9c2ZMwdvvvkmHn30UfTq1avVbdU/N6LW0twjolarmy1XtwckIyOjxT0gqampcHJyanHPSGpqKubOndviHhH2gBAREXUtBktCBg4ciOTkZPHxuHHj8Mgjj8DU9O5tKb6+vrhx44bWTekA4O7uDkdHR9jZ2SEqKgqffPIJgLtJy48//thke0899RQSEhLg7+/f4Llz587B0dFR3F577TUAwKlTp7T219bWYtGiRbh+/TqcnZ1RUVHRaFuzZs3CiRMnMGvWrFb9nzR1bkStpblHZN26dU0mIu1JQAC0KgHRlG/J0KwffviBCQgREVEXIxOa+nnfyP3888/o2bMnHnnkEYO09+mnn2Lx4sUwMTExSHvUcjKZrMleqq4gLCxMTCg0s12tWLFCTPA1+3WZgERFRTXaM9JU+aeffhorVqxocXkiferq1wwi0j1eV1rPYD0hunbr1i08/PDDBmnrzp07cHV1ZQJCRqluQmFqaooVK1Zo9Yi0JwFJSkpq8dCspsr/8MMPWLFiRYMeESYgREREXVeH7Qkh0uCvDw2Vl5fjlVdewVdffYWXX365yQQkMjISDz/8cJMJRf3yTSUOLS2vSXg0mICQFHjNICJd43Wl9ZiEUIfHD37jCgsL4e3tjU8//RTHjx/XeULR1vLz58+Hg4MD1qxZ07YTI2onXjOISNd4XWm9Djsci4iaplarsXTpUhw4cABhYWFYsWKF1vNtSSiOHTvWqvKlpaWNlh8wYAC6devWpnVEiIiIqHPQaxLy2muvYeLEiVr7qqur8fe//x2+vr7YuHFjs8fn5OTAxcUF3377bYPnbty4gXfeeUdr3+LFixEYGChuTc1mBQD+/v44fPiw1r5Vq1bhyy+/REVFBVxcXMRt0qRJWiuda3z11VdwcXHB5cuXW93GL7/8otWGj48Pdu3a1ar6iRqjuQdEoVBg6NCh2L9/P4KDg8V7RNqSgCQlJeH1119vVfmnnnqqyfLtWdCQiIiIOj69JSE3b97E3r17UVhYiOPHj4v7161bh2vXruGrr75CYmIiYmJimqzjm2++Qb9+/RokAPHx8Zg9ezbOnj0r7qupqcF3332Hl156Sdy6d+/eZN1jxozBN998Iz4WBAHbt2/HhAkTIAgCiouLkZ2djczMTHz88cf4/PPPsWXLFq06tmzZgn79+jV5Ds21UVFRgYEDByI7OxsnTpzAypUrMXfuXBQUFLS4fqL66iYgcrkcACCXy6FQKBAcHIyff/651T0a+trPRISIiKgL09cqiNu2bRPmzZsnhIaGCu+88464f9CgQcLFixcFQRCEH3/8UZg6dWqjx9fW1goDBw4UTgjGBIUAACAASURBVJ48KfTp00e4fv26+Ny//vUv4fXXXxemT58u7svPzxfGjx8v1NbWCrW1tfeM748//hDkcrlQXV0tCIIgHD16VBg1apQgCIJQVlYmrryukZWVJQwePFh8fP78eeGhhx4SkpOThdGjR7e6jQMHDghPPvmkVnl3d3fh0KFDLa6f7tLj27hD0ayE3tTK6UVFRcL48ePF96NGSkpKoyun63u/RmhoqJCZmdlgf1lZWZPHELUHrxlEpGu8rrSe3npCoqKiMGfOHPj7+2PXrl3izTrFxcVwcHAAALi4uODixYuNHp+WlgZHR0cMHToUkyZNQlxcnPjcK6+80mARwvPnzyMvLw8eHh6Qy+X3vOm1f//+GD58OBITEwEAe/bsaXaxweHDh6OwsBBVVVUAAKVSiaCgIIwbNw4XLlxAXl5eq9u4ceMGjh49iiNHjiA8PBwXLlyAh4dHi+snqqt+D0h9crkcu3fvbjA0y9A9IPWtWrUKhw8fRnFxsdb+nj17Nn/CRERE1GHpJQm5evUqMjIyYGVlhdu3b6OmpgZHjhxBdXU1ZDKZWM7c3BxlZWUQBAE7duzAjh07cOzYMQB3kxhPT09kZGRg+PDhUCqVzbbZr18/rF69GllZWcjNzcX27dtx5MiRZo+ZM2eOeB/Gf/7zH8ycObPZ8t26dUNNTY0Y35AhQ3Ds2DGMHj26wf0cLWlDpVIhIiICmzdvRkFBAZKSkmBra9uq+omAu1PtNpeAaNQfmiV1AqLx+uuvIzo6ukEiQkRERJ2TXpKQ6OhoODo6YvPmzYiIiICDgwOUSiXMzMxgYmKC6upqAEBJSQns7OwAAJWVlaisrIRarYZarUZsbCyuXr2KiIgInD17Funp6bh69WqTbY4YMQLz588HANja2mLKlCnIzMxsNk5/f38cOHAA//3vf2FjYwMnJ6cmyxYUFOC+++6DpaUlMjMzce3aNezfvx8REREA0GSS1FwbI0eOhFKphFKpxBdffIFRo0YBQKvqJ4qMjMSsWbPumYBoaBKRVatWNTprlqETEA0mIkRERF2IPsZ4eXl5CcnJyeLj7OxswdbWVlCr1cK0adOEAwcOCIIgCJs3bxb+9re/NTh+//79woQJE7T2+fv7C59++qn4ODk5WeuekI0bNwphYWHiY09PTyE5OVmoqakRVCpVk/eJzJgxQxg1apSgUCjEffXvCSktLRWeeeYZYd26dYIgCMK7774rrFmzRny+pqZGsLOza3Rce1NtNHZPiEZr6+/q9PQ27hA2b97c5D0g91JUVCQEBgaK94gY6h6Qe3nzzTeFoqKiLv26kn7xvUVEusbrSuvp/H/s3LlzwgMPPCDU1NRo7Xd1dRUSEhKE48ePC25ubsL8+fOFESNGCJcvX25QxwsvvCB88cUXWvuio6MFb29v8XH9JOTy5cvCqFGjhClTpgiurq7CvHnzBEEQhJKSEgFAkze5xsXFCd26ddOKo6ysTJDJZIKDg4PwwAMPCM7OzsLf//53Qa1WC7W1tcKAAQOEkydPatWzcOFCYfny5S1uo6kkpC31d3Vd9YMfGhoq5Ofnt6sOTSJy+PBho0hABOF/N9h31deV9I/vLSLSNV5XWk+SFdPLy8tx9uxZDBs2rNlpdFurpqYGp06dgpWVFZydncX9n376KRYvXgwTExOdtUXGoyuuUhoWFgZfX98GU+22RXFxMQICApCYmAhTU1NxvyGGYNWlUqkwcODARp8rKyuDlZVVm+olqq8rXjOISL94XWk9SVZMt7KywsiRI3WagACAiYkJ3NzctBKQO3fuwNXVlQkIdRq6TEAA/c6a1RrOzs4Q7vbOihfywMBAFBUVMQEhIiLqZCRJQgzJ3NwckydPljoMIp2IjIzUaQKioblZfd26dQCAY8eONUgoiouLG000mtqvCzt37kRISAjKy8t1XjcRERFJR5LhWNR+zQ1doc4rMDAQUVFReqs/KCioTTOx5efna/VA6oKmazs1NRVjx47Vad1ERET0P9988w2CgoIM2iaTEOrwOA6zc+LrSvrC9xZR52fozzmvK63X6YdjERERERGRcWESQkREREREBsUkhIiIiIiIDIpJCBERERERGRSTECIiIiN1/fp1XLp0SeowiMgIXbhwATdv3pQ6jDZjEkJkJNRqNU6dOiV1GERkRA4ePIjIyEipwyAiIxQeHo60tDSpw2gzU6kDINKHpKQkjB8/HqamHectfu3aNcydO7dDX1BaKy8vDzY2NrC2tm5R+dLSUpSUlGDQoEF6joxIeqWlpVAoFLhx4wZ8fHwwdepU5OTkYOrUqTh27Bh69+4NAPjkk0+Qnp6OmpoaPPXUU5g/fz4qKyuxZMkS/Pnnn6itrcVbb72l80VOiYxBUlISfH19pQ6jUaWlpbh06RKGDRum87rT0tJw6NAhnDx5Ei4uLli6dCksLCygVqthb2+PDz/8EJaWlvjggw9w/vx53LhxA7Nnz0ZAQABmzpwJExMT1NbWolu3bnjvvff0EuO9sCeEOpWkpCR4eHhg0qRJ+OOPP6QOp1XCwsJw9uxZbNiwAQBQU1ODESNG4ODBgwCAO3fuwMPDA4GBgZgxYwY+/fRTAMCtW7ewePFivPTSS5g+fTpOnjwp2Tm0Vnx8PBwcHODv74/S0tImy5WWluKll16Cs7Mz4uPjDRghkXR69eqFuXPnYvLkyeKXrKioKPj5+WHPnj0AgCNHjuDixYvYvXs34uLikJaWhmvXrmHjxo148sknERMTg3//+9/YvHmzlKdCpDeLFi2Cs7MzYmNjpQ5FVFpaCn9/fzg4OOAf//iHXtoYNWoUxo4di0WLFmHAgAEoKyuDUqnE7t274e3tjY0bN6KgoADHjh3D1q1bERsbK143rl+/DqVSiejoaLz99tt6i/FemIRQp5CbmysmH1lZWVKH0yYhISFwdnbGggULAAA//vgjxowZg6+//los4+TkBKVSibi4OOTk5CA1NRVxcXFwdXXF9u3bERkZiS1btkh1Cm1SVlaGPXv2NJqM1L2Q79ixAzdu3JAwUiLDkslk6NWrF3r06AFLS0sIgoCjR49i3bp14heu/fv344UXXhCP2bp1K/r164eUlBRMnz4dAGBhYYFdu3ZJcg5E+mZjY4OCggIEBARInoyUl5eLf7P27NmDsrIyvbXVvXt3WFpawtrausGoj1mzZiElJQX9+/fHlStXsGLFCqSnp0OpVAIABEFARkYGfv31V8TFxeHRRx/VW5zN6ThjVYgaUVhYCABwc3OTOJL2s7a2hpmZGXr16gXg7i+eoaGhCA4Oxu3bt9Gtm/ZvBi+88AJ++uknzJgxA3PnzoVarcbTTz+NTz75RIrw202TjCQkJMDPzw8A4ODgoNeLOFFHkpaWhurqauzevRtnz57FlStXUFlZie7du4tlNEl8TU2N1rGFhYWwsbGBmZmZQWMmMiRNMuLk5CRJ+87OzigpKZGk7bo0q7ebmpoiOTkZP//8M3bt2oX3338f+/btgyAISE5OhiAIyM7OxtNPPy1JnOwJoQ5NLpcDAOzs7Bo8N3DgQMhkMqPeRowY0eh5VVZW4siRI9i/fz/Mzc0bHYJkYmICtVqNYcOG4dChQ3B0dMSKFSuwatUqscyIESMkP8fmtiVLljQ4r379+mH27Nniv+tbsmSJ5HFz69gbAMljqLupVKpmr3OCIAC4+8PEq6++iuHDhyM4OBgxMTEYM2YMDhw4IJZ97733kJmZicGDB+PXX38Vj58xYwZqa2sbrT81NVXy/wNu3Nq61f/S37NnT3h6ejb7mdKXhx56qMG+bdu26fyc69JcH+pKTEzEqFGj8Ouvv+KLL77AxIkToVAoYGVlBZVKhW7dumHp0qVYtmwZ1q5di++//15v/yfNYU8IdWiaLsi8vDyEhIQgPj4eV69eBQDk5+fD2dlZwuhaT3MxiY+PxzPPPIPhw4fD3t4eO3bswLPPPqtVNj4+HhMmTMDmzZvh7e2N559/HjNmzMDo0aMRFhYGADhx4oTBz6E1FAqFmIg4OTnh448/hr+/v/i8SqVCbGwswsLCxGF2ERERCAkJkSRe6hxkMlmjf7iNkVwuR3x8PCZPnowTJ06IM2UNGzYM06dPR3JyMl544QUsWLAAtbW1KC8vx7hx4zB48GAEBQXB09MTubm5CAoKgrm5eaNt+Pj4dJj/D6L6fHx8cObMGfTq1QuTJ0/G1q1bYW1t3eDLuiGkpaUhNzcXr7/+On766ScAwNy5c/U2w51cLodCoYCbmxsqKysRGBgItVoNMzMzfP7557C0tMTatWuhUqlQVlYGExOTBt+LHB0d8fvvv+slvnuRCbzyUAdX9wtFeXk5QkJC8M033+DkyZMdKgkpLy/HQw89hPfffx8HDhyAQqFA//79AQDjxo3Dnj178PDDD+Oxxx7DnTt3MHjwYKxfvx7nzp3DwoUL4eXlhZMnT8Lb2xvLli2T+GxaRqFQYOvWrVi1apVW8gE0/KK4bds2rF+/HosWLWISQu3SkZIQAMjJyYFcLoetrW2TZS5fvoza2lo4ODiI+2pra6FSqdC7d2/07dvXEKESGdyAAQPEX/rrzrRo6M95/faSkpLw1ltv4bHHHtNbElJdXY0TJ07Azc0NlpaWTZb7448/IAgCHB0d9RJHWzEJoQ6vsQtNeXk5rKysJIqo7S5evIjKykq4uLi06riamhrk5+ejb9++HerLRnOvU2Ovq1qtxp07dzrka0vGo6MlIUTUtOLiYnFodl1SJyEaHfX7iCEwCaEOj18oOie+rqQvfG8RdX7GkoRQ03hjOhERERERGRSTECIySvn5+VKHQERERHrC4VjU4bELlIhag9cMos6Pw7GMH3tCiIiIiIjIoJiEEBERERGRQTEJISIiIiIig2ISQlRPeXm51CF0eXwNqCNRq9VQq9VSh0FELaBWq/k3xkjoJQnZtGkTXFxcxM3T0xPh4eEAgIqKCq3nNNuBAwfE42tqauDp6Ynly5dr1fvcc8+J5b28vPDee++hqqqqQfv125g0aRK2b9/eoNxrr72GiRMnarXbWGwuLi6oqKhoNjZDKy8vh0wm4yaTAYBO63vkkUcQFhYm6evblRUXFyMoKEjy9xW3zrsBur1mmJmZITg4mIkIkZFTq9UIDg5Gz549jf66YuhNpVIZ/gUR9GDlypXC6tWrhcrKSuH27dtCXl6eYGNjIyQmJgplZWWClZWVUFlZqbXV1NSIxyckJAienp6CnZ2dUF1dLe739PQUjh49KlRWVgr5+fnCvHnzhDlz5jRov6ysTLC2thYqKyuFiooK4dixY8Lo0aOFL7/8UixTWloq2NnZCUOHDhWOHTsm7tfE8/777wt/+9vfxMf3io2ko4+3cUpKihAaGqrzeql5RUVFQmBgID9bpFf6uGbwvUtkXBr7nL/55ptCUVGRwdqj5ultOJaZmRnMzc1hYWGBBx98EKNHj0ZJSQmAu5miubm51tat2/9CiYqKQkhICIYNG4ZDhw5p1asp7+zsjM8//xzJycm4dOlSg/Y1bVhaWmLkyJHYunUrPvroI/H5uLg4TJ06FYGBgVAqlQ3qNzMzg6mpqfi4JbFR5+Hj4wNfX1/2iBhQcXExQkJCsHPnTpiamkodDlGryOVyKBQK9ogQGanIyEisXLkScrlc6lDo/9PbX/ozZ84gISEBgiAgOzsbxcXFmDx5MgCgqqoKn3zyiVb5uXPnom/fvqisrERCQgIiIyNx8+ZNKJVKTJkypdE2zMzMMGLECJw6dQr9+/dvNp7hw4ejsLAQVVVV6N69O6KiorB8+XLY2dlhypQpWL9+vdid1pTWxEYdn4+PDwAgLCwMq1atkjiazo0JCHUGdRMRvpeJjEdkZCRmzZrFBMTI6K0nJCcnB7GxsdizZw/i4uIwaNAgWFtbA7jbS9GzZ0+tTdMTEh8fjyFDhuD06dNwcnLCt99+i9u3bzfZjqmpKaqrq1sUU7du3VBTU4OrV68iIyMDVlZWuH37NmpqanDkyJF7Ht/a2KjjY4+I/jEBoc6EPSJExiUsLIwJiJHS21/85557Dn//+9/Fx0OGDEFmZiYGDx4MMzMzvPbaa40eFxUVBXNzc0RERAAA+vXrh3379sHf379BWU0vi4uLyz3jKSgowH333QdLS0t8+eWXcHR0xObNmwEADg4OUCqV4i/fTWlNbNR5sEdEf9RqNRMQ6nTYI0JkHMLCwuDr68sExEgZ7Mo4ZMgQFBUVYfDgwU2WuXHjBg4fPowLFy7AysoKAPDZZ59BqVQ2+KJfU1OD8PBwPPTQQxg0aFCzbd+8eRNvvPEGFi1aBOBuMqFQKDB+/HgAd3ttJk6cCIVCARMTkzbFdvnyZfTp0weWlpYt+w+hDoWJiO6p1WqsW7eOX9KoU2IiQiQ9X1/fe/7ATNIx2DohAwcORHJyMoC708s6OjpqbeHh4YiLi8MTTzwhfskHgOeffx4HDhxAaWkpAOCJJ56Ao6MjBgwYgOzsbK2byusqLS2Fo6Mj+vfvjxEjRsDDwwPvvPMO8vLycPHiRYwbN04s6+bmhn79+iEpKanJ+O8Vm5+fH3788cf2/BeRkePQLN3RJCArVqzgl7MmnD9/XmuacC8vL+zYsUOrTE5ODlxcXPDtt99q7U9LS8Ozzz6LmTNn4uzZs43Wv2TJErFuV1dXBAYG4sqVK1plvvrqK7i4uODy5cvivjVr1iAwMFBrO3HihI7OunPRJCLr1q2TOhSiLqHu9O4AMHbsWMhkMgQFBbW4jvrLNQwdOhTTpk3DyZMnAQA//fRTo0s51NXYtbOly0cAwPr168Vy7u7uePnll1FYWNggzvpLRtRfIkOzrV+/vtnYJCP19FydxeHDh4WMjAypw+iSDP025vS97VNdXS28+eabnMr0Hk6dOiUMGzZMnOr8xIkTQo8ePYRz586JZZYvXy54eXkJ06ZNE/fdvHlTGDBggHD06FHh+++/F9zd3Rutf/bs2UJUVJRQWVkplJaWCvPnzxeCg4O1ynh7ewteXl7Cpk2bxH3p6enCgQMHhAMHDgjff/+98NBDDwmXL1/W8dnrl6GvGUVFRcLmzZsN2iZRVxUaGiqkpKS0+XOuVqsFExMTcYmGmzdvCitWrBDGjh0rCIIgxMfHC1OmTGmw1ETd9hq7drZk+QiNZcuWCR999JFQWVkpXj8eeugh4c6dO2KZxpaMqK6uFuMxNzcXysrKhMrKSq2/t43FJhWumK4jt27dwsMPPyx1GGQAmh6RyMhIqUPpcDQLRa1cuZI9IC3QrVs3capzDw8PODk5iSv9CoKAXbt2Yfv27fj5559x48YNAMDevXsxefJkjB49GlOnTkWfPn2QkZHRaP3du3eHubk5evXqhcmTJ+PWrVvic/n5+SguLsaHH36o1ePs5eUFPz8/+Pn5ITMzEytXroS9vb0e/xc6PrlcjlmzZvGaQaRnmntA2jsEq+5SEvfddx+mT58uLjMBACYmJg2WmtBo6tpZt96mlo+oS7PUhVwux+uvv44RI0Zgz5494vONLRlRd2kJmUwGCwsLmJubi39vm4tNCvwWoCNPP/201CGQAWkucKmpqRxv2kKaBEShUPAmwRbS/LEQBAGnT5+Gp6cn3N3dAdwdcuXo6IihQ4di0qRJiIuLw8svv4wLFy5oDQ1wcXHBxYsXMWrUqAb1/+c//8G5c+dQWVmJ7777Dv/617/E55RKJYKCgjBu3DhcuHABeXl5Wvff/fHHH9i/fz9++eUXPf4PdB6aRIT3lRHph64SEACora1FQkICgLvD+7dt24Y333xTfD4vL09rqYkePXqI/77XtbOu+stHNMfLywu5ubkA2r5kRGtiMwT2hBC1Ud1EhJrHBKRtTExM0Lt3b/Tp0wcDBgxATk6O+EcoKioKnp6eyMjIwPDhw8VftSoqKrR+lTM3N0dZWRmOHTuGHTt2YMeOHRAEAQBgZWWF3r17Qy6Xw97eHv/+97/F46KiojBkyBAcO3YMo0ePxq5du7RiW7t2Ld555x19/xd0CpreK7lczvvKiPRAlwkIcLenOTY2FrGxsfj2229x+vRpeHh4iM+bmppqLTNR937he10769MsH3EvdZekaOuSEa2NTd/YE0LUDoMHD8aMGTOQkpIidShGLzw8XCsBkclk4pdhalzfvn21pjM3NzfH119/jbVr1yI2NhaTJk0SpwxPT0/H1atXIZfLtYYNlJSUwM7ODmq1GpWVlVr1P/HEE3j++ecBAPPmzcP999+PsLAw5Ofn49q1a9i/fz/2798P4O4vaJpp16uqqrBv3z58+umnej3/zqJnz57ie93LywvLli3D6tWrJY6KqPMYMWIEFi5cqLP6TExM8OWXX4qPlUolNmzYgL179wIAnJycGiw18eKLLyIzM7PZa2d9dZePuJfMzEyMHTsWQNuWjGhtbIaglyRkyZIl2Ldv390GTE0xcuRIbNq0Cffff79Y5rXXXsPZs2e1ZpSqrq7GmjVrkJ6ejqeffhpvv/12g7rPnz8PPz8/8XHfvn2xaNEivPjii+K+mpoaeHl5YfLkyQgPDwcAZGdn44MPPtCq66GHHsL777+vm5OmLkezyN5PP/3E+xtaICsri0NR2qGyshIZGRnw8vJCYmIiXF1dtXouAgICEBMTg/Hjx2PRokV4//33UVVVhd9++w3//Oc/0bt3bzz66KNN1n/ixAkIggBLS0tERUVhwYIF4hfl2tpaPPDAA8jKyoK7uzsOHTqEMWPG3HP4AGnT9Ah+99137BEk0qHGetvLysp0Vr9mmYl7ae7a+eCDD2qVrb98RHMSEhJw6NAhfPrpp61azqKlsWmG+RqaXoZjXb16FWFhYcjOzsbRo0fRs2dPvPvuu+LzN2/exN69e1FYWIjjx4+L+9etW4dr167hq6++QmJiImJiYhrUXV1dje7duyM7OxtZWVn48ssvsWjRIuTl5YllkpKSIJPJsG3bNnHFWnt7e7z00kvi1rdv3xavtE5UH1f5bj13d3cORWmlU6dOaU1lXltbi0WLFiEqKgqzZ8/WKhsQEAClUomRI0eKU0r6+vri1VdfRe/evRut/9VXX4WjoyMeeOABBAQEYNu2bTAxMYFSqcSsWbPEct26dcOMGTPEIV979uzBM888o78T74Q4JJFIf0xNTbFz5058/vnn4ve+ukOk2svZ2Rm5ubliIpKYmNhgqQkA97x2NrV8RGNWr14NR0dH2NvbY+3atfjhhx9w3333tWg5i/oEQbhnbJLQx5Rbs2fPFmJjY8XH0dHRwnPPPSc+3rZtmzBv3jwhNDRUeOedd8T9gwYNEi5evCgIgiD8+OOPwtSpUxvUferUKWH48OFa+1xdXYUTJ06Ij1988UXh66+/Fh5//HHhhx9+aFDHn3/+KUyYMEG4fft220+SjIae3sZNKioqEgIDAznFbBtppjg29OvW1Zw5c0a8npI2Q7/3AAiBgYFCUVGRQdsl6mqqq6uF0NBQSf4+829a68kEQfeDsgMDA2FiYgJ3d3etWVc0s7M88cQTWL58Oezs7DBlyhSoVCrIZDJYW1uLWdwff/yBqVOnavWUAMDp06cxfvx4vPXWW+KMMTU1NdixYwdkMhkqKysxcOBAnD17Fjt37kR6ejp27typVccbb7wBPz8/TJ06VdenThLQ970FUVFR4kJH7AHRjdTUVIwdO5b3hJAkDHk/klqthpmZGYqKitgDQmQAUi2Gy/scW09vs2M1NevK1atXkZGRASsrK9y+fRs1NTU4cuQIqqurxRUugf/N6CIIgjijy7FjxwA0P2PMvWYMuHDhAn777TcmINRic+bMAcAERBc0q9lqbq7TrGzbmtVsiToCzXvdzMwMAGBra8v3OpEBmJqaYsWKFVi6dKk4NIuMk96+STU160p0dDQcHR2xefNmAICDgwOUSiV8fHxgYmKC6upqmJmZiTO6ABBndNG8mZqaMWb9+vX3nDEgKioK06ZN09dpUyfFBEQ3oqKiEBUVBeBuApKSkoKkpCTerE6djqYHXqFQwNbWlr+QEhmQqakpVq5cieDgYP7dNmIGeVXqz7qiUCgwfvx4AEBOTg4mTpwIhUKBcePG4ccff4Sfnx+SkpLw2GOPQSaTaSUcp0+f1qq77owxLZkxYM+ePdi+fbshTps6ESYg+qGZ052zZlFnwpvQiaQnl8uhUCiYiBgxvd0TcvDgQfTo0QM1NTUwMzNDREQEPDw88Nhjj+HixYvo1u1/I8GGDRuGiIgI2NnZYc6cOfD29savv/6K/fv3w97eXqvu06dPY/jw4eJ0v5WVlRg7diy+/vprxMTE4NChQ1p3+l+5cgWDBg3C5cuXcePGDUycOFFrJi3q+PQ5DrO4uBi2traorq7mBUzH6r5uqamp7BEhg9HnNaOxBIRjxYmkY6iRDPyct55ekpD2KC8vx9mzZzFs2DDOQU8tousPflRUlHgfSH1G9nHp0Oq/bkxEyFD09WWhqR4QfjkhkpYhEhF+zlvP6JIQotbSxwdfrVZj6dKl+OSTT2BmZsYLix409roxESFD0Nc1o6khWPxyQiQ9fSci/Jy3nt5mxyLqqDTT+33yySccgmVgPj4+XNCQOhzeA0Jk/OreI8JZs4wDv2F1UCqVCgMHDpQ6DKNRd3pnXeA9INLx8fHB1atXdf6aEtWl6/eXSqViAkJk5DSJiGbqbF3ryH+38vPz4ezsbNA2ORyLGnX9+nVUVFSgf//+UodyT/ruAmUXq37w/5WkYuj3Ht/rRJ0fP+etx+FY1KiDBw8iMjJS6jCIiIiIqBNiEkINlJaWQqFQYO/evYiPj0d4eDimTp2KmTNnIjAwEAUFBQCAmTNnisdcuXIFb775JgBg+PDhCAwMREBAAObNm6e1Yn1bKRQKeHh4ICkpqd11tVdSUpI4RTQRGafff/8dHh4eyM3NlToUIiJqCg75lQAAIABJREFUBJMQaqBXr16YO3cuJk+eDF9fX9y8eROhoaGIiYnBBx98gDfeeAPA3ZkmNGpqanD9+nUAgL29PZRKJXbv3o2hQ4di3759OokrKysLkyZNwsSJEyX5YpGUlAQPDw9MmjQJV69eNXj7RNRyFRUVyMrKgpubG7y9vZmMEBEZGd55Sw3IZDL06tULPXr0gKWlpdZzDz74INRqNWpra3H79m1ER0cDAK5duyaWuXnzJjIyMnD79m38/vvveOqpp3Qa308//QQ3NzeMGTMGW7du1WndTfHw8EBWVpZB2iIi3UpPT4ebmxv8/Pzw2WefSR0OERGBSQi1gUwmQ21tLWQyGSwsLAAA5ubm4vPXr19HcnIyqqqqcP36ddja2gLQ/Yxeubm5eOWVV3RWX2Py8vIAoNEEpK2zYHh4eODEiRPtiouoq9DlbDMJCQkYM2aMzuojIqK243AsalJjszyUlJRAEASYmprCwsIC06ZNw7Rp0/Dkk0+KZZycnLB06VIsX74cU6ZMwW+//QYAcHZ2hiAIbdoiIiLE+nv37g0/Pz/8/vvvSE1N1ev/waBBgwAA8+bNg52dndZzbT0XJiBELdfWz9kvv/yiVY+NjQ0iIiJQWFgo0ZkQEVFd7AmhRsnlcsTHx4vJxYoVK2BtbY2Kigps2LChxfU4OjoiIyMDU6ZM0Ulc48ePx9atW8XkwFC2bNmC8vJyhISEID4+nveEEHUQNjY2WLx4MVauXMm1f4iIjAjXCaEm5eTkQC6Xi8OppJSXl4c7d+5g2LBhDZ7T99zcYWFhWLVqlfhYk4xs2bJFb212BZxTnfSpoKAA27ZtazT54DohRKRr/Jy3HpMQ6vA68gf/woUL6N27N3r16iV1KAbXkV836tiYhBCRrvFz3nq8J4RIQuHh4UhLS5M6DCIiIiKDYhJCnU5ubi6mTZsmdRj3lJaWhkOHDiE8PBxHjhzBqFGjEBgYCH9/f+zevVssl5OTg4EDB+LGjRsAgFu3bmHx4sV46aWXMH36dJw8eVKqU2iRl156CbGxsVKHQUREREaESQh1Grm5ufD29oabmxsuXbokdTj3NGrUKIwdOxaLFi2CnZ0dPDw8oFQqERMTozUbWFRUFPz8/LBnzx4AQFxcHFxdXbF9+3ZERkYa/b0pZ8+eRUBAAJydnZmMEBEREQDOjkWdhLe3N9LT08XHddctMVbdu3eHpaUlrK2tYWpqivz8fERHR+PcuXPw8vICcHd60qNHjyImJgZz5szBvHnz8Oijj2Lu3LlQq9V4+umn8cknn0h8Ji1TUFCAgIAAODk5GWyRSSIiIjJO7AmhDi0pKQkAtBIQ4O56JjKZzCi3oKCgRs/FxMQEFhYWcHBwQG5uLqqqqpCWlobq6mrs3r0bZ8+exZUrVzBs2DAcOnQIjo6OWLFihThzV2pqquTn1th25swZrfMsKCjApEmT9PBuICIioo6CSQh1aL6+vgAAPz8/9O7dW9xvY2PT5kXO9L1FRUVpnYNmNo0BAwZg2rRpePHFF2Fra4srV64gKioKr776KoYPH47g4GDExMRg8+bNOHPmDJ5//nnExMRg//79AAAfHx/Jz62xbfDgwVrn6+7ujsTERH2+LYiIiMjIcTgWdQoHDhxAXl4e/vKXvyA9PR137tyROqQWkcvlUCgUWL16NQ4fPozAwECo1Wo8+OCDeOCBB3DixAlERkYCAIYNG4bp06dj69atWLhwIby8vHDy5EnMmjVL4rNoGXd3d2zatElMHImIiKjr4joh1OHVn5s7NzcXy5cvx969eyWMqmWqq6tx4sQJuLm5wdLSssXH1dTUID8/H3379kXfvn31GGH7LVy4EP7+/g2SD86pTlLhOiFEpGv8nLcekxDq8PjB75j4upFUmIQQka7xc956vCeEiIiIiIgMikkIEREREREZFJMQIiIiIiIyKCYhRERERERkUExCOiiVSiX5InTGsgGQPAZdbE5OTlCr1Xp5v6jVavj4+Og0Xs1CkfoQFhYm+evBrfNugO6vGfr8PLz99tt6+X8oLi7WW8z110MiIqpP50nI+fPn8cgjj4iPi4qK4OLigszMTHHfM888gyNHjmDTpk1wcXERN09PT4SH/z/27j0uinr/H/gLAbkqZKJWoJh38XaMvCSaCJr2pbygJpamP60MDfVoecnUxQva+ZpytLSjZN5QlEwTExQ9aItoaR68YSaB9wRSwQUWWHj//vC7c1jYhd1lZm+8n4/HPB7w2c/OfGbYGT6vnZnPRAn1PvzwQyQnJ2PcuHEa9dTTv//9b6xatapa+euvv16tXf/+97+F1zt06ICRI0ciLS1No055eTn8/f2xYMECoez06dNalz1y5EihzpUrV9CuXTscOHBAlG2oD19fX7M/hM5SJgBmb4MYU2ZmJlauXCl6EFGpVJg4cSJiYmIQFhaGsrIyjeXK5XLIZLJq7ZHJZJDL5dXK5XI55HI5UlNTkZqaKmpbAeDHH39EUFCQ2f8ePNnuBIh/zJBqf4iMjERoaCiIDN9XIyIikJOTo7X+yZMnMXPmTEmCSGRkJLZu3Wr2sMkTT6acAOv+QjQ7O1v0Y0GtSGQVFRXUtGlT+u2334iIaNeuXeTh4UGrV68mIqLCwkJydnamgoICWrRoES1ZsoSUSiUVFxdTZmYmNW3alJKTk4mIaMSIEXTgwAEqKSkhpVJJJ0+epFdeeYWUSiUplUoqLy+nuXPnUlRUlFCmVCqppKSkWrsSEhLojTfeIKVSSQUFBfTjjz+St7c3XblyRaiTlJRE/v7+1Lx5cyorKyMiovLycmG+gwcPph9//LHaMhYsWEC9e/em4cOHi705mR4k+BibTVlZGclkMuHzJ8b8wsLCKCMjg8LCwqrNVy6Xk0wmq/Y+mUxGcrm8WrlcLqddu3bVWk8f2v5ucrnc6Pkxpi+pjhm69gdjl1d5fobuq+vXr6ecnJwa66uPD9rqGasuxwTGrJkt9UVMRfQzIXZ2dhg4cCBOnz4NAEhOTsb8+fNx9OhRAMDPP/+Mbt26oVGjRgAAR0dHODk5wdnZGS+++CJ69eqFvLw8jXk2bNgQTk5OcHJyQoMGDTR+rjwP9dSwYUOtbbO3t4eTkxMaNWqEYcOGYd68eYiOjhZej42NxcyZM9G5c2ccO3YMADSWZ29vL7RFvQwiwp49e/Dtt9/i1KlTePz4sYhbk9U3Dg4OWLhwoShnRNRnQBYvXozIyEhs374dDg4Owuupqak4fvw4Fi9erPG+yMhIBAUFoV+/fhrl6vrjx48XyhYvXoytW7eKcimK+lvkqstlzFosXrwYx48fF+WMyIYNG4T9UNe+WrlO1fK33noLXl5eGuVV920HBwds374dw4YNE+WMiK5jB2OMaSPJPSGVQ8ipU6cwY8YM3LhxA0VFRUhLS8PAgQOFutevX0dSUhISExPxv//7v8jNzcXgwYMNWl5KSgrWrFkjTAkJCXq9r3fv3rh69SoAQKlUIikpCSNGjMDo0aOxe/duveaRlpYGHx8fdOzYEcHBwdi/f79BbWesKgcHB8yZMwcTJ040OogYG0BSU1NrDCDa6k+ePLnOl6JwAGG2YvHixbhw4UKdOvWpqan429/+hn79+iE3N1fnvqeuU5m+AURt5cqV+OKLL+p8aRYHEMaYoSQJIYGBgTh9+jSuXbsGHx8fuLu7Y8CAATh16hROnz6tEUKuXLmC+Ph4fPfdd9i/fz/atGkDDw8Pg5bn5OQEd3d3YXJ2dtbrfQ4ODigrKwMAJCQkoEOHDvjtt9/QqlUrHDhwAMXFxbXOIzY2Fv7+/jh//jy6dOmid3hhrCZubm6Ijo42KojUJYAA1YOAPvXr0vFKTU3FzZs3ufPCbMaMGTMQFxdn9P4AQAggcXFxeu+rkZGR+Nvf/qZ3AFGXDxgwANu3bzc6iHAAYYwZQ5IQ0rlzZ/z111/Yu3evcFZjyJAhSEpKwi+//KJxoBo5ciQ2b96MzZs34/Tp0/j11181bmLXR9++ffHBBx8IU3BwsF7vu3jxItq1awfgaZhwcnLCunXrsGfPHjz77LM4fPhwje9XqVSIj4/HgwcPsG7dOvz+++84c+YMHjx4YFD7GdPGy8vL4CBSWwDJzs4WLYBcuHBBo/6MGTOwdu1agzox2i7xYswWGBNEtAWQGTNm6KxTWW1Bo7Zy9aVZY8aMMajNHEAYY8aSbIjeAQMGYN26dUIgGDx4MHbs2IGWLVuicePGOt/XoUMH5OTkSNUswY0bN7B8+XKEh4fj8ePHOHnyJPbv348dO3Zgx44dmDt3bq1nNZKTk9GpUyfs3LlTeN/QoUOxd+9eVFRU4ObNm8JILIwZw9AgsnLlSkRFRWkNILm5uUhISNAaKPLz8w0KIMePH9faOXJ2djao46Vt/uypP/74Q2NEvt69e2Pbtm0adXSNzJeWloY333wTY8eOxe+//651/rNmzRLm3alTJ4SFheHPP//UqPPNN9+gXbt2uHfvnlC2dOlShIWFaUzp6ekirbVtmTFjBpYvX65X3crBPjc3Fxs3btS6j1UN/0DdA4jaypUrERkZiZkzZ+p1vOEAwhirE6nueN+4cSN5enqSSqUSynr06EFz584Vfl+0aBEtX75c430RERE0f/58Ivrv6FhqZ86coYCAAI36c+fOJQ8PD/L29taYlEqlRr2EhARydnYmb29veu6558jPz4/27NlDREQxMTE0btw4jfr3798nV1dXevz4sVA2dOhQYeQuIqIJEybQpk2bNN4XFxdHffv2pby8PAJACoWi9o3F6kTCj7HFyMnJ0Tq6VWXr16+ne/fuaR1dKycnh9avX1/tPbpG3KlreUREhNYRd8LCwghAtSksLEznetVX165do86dOwujB6anp5OrqyvduHFDqKNtZL6CggJq2bIlnT17lg4dOkRdu3bVOv9x48ZRbGwsKZVKys/Pp6lTp9LEiRM16vTt25d69+5Na9euFcrOnDlDiYmJlJiYSIcOHaK2bdvSvXv3RF57aZnimGHIZ73y/qNrXzd0dKy6lOszSl99HQWrT58+GqNqBgcH07/+9S/h92XLltEXX3xBqamp1LZtW2Hq0qULTZ06lfLz84mIaOvWrbR8+fJq9dTTiBEjqLCwUOtrR44c0WhT1XpBQUG0devWam2PiYmhtm3b0t27d4mISKVSaZ1/27ZtqbCwUKjz0ksvCf0yplt96IuIjbeYhKKjozVCGJNGfdnxawoilhRAiJ52YoYNG6Y1iKjr15e/m7GuXbtGXbp00Sjr1KkTpaenE9HT4dBbt25NGRkZ9Mwzz9CjR4+IiGjHjh00ZcoU4T0DBgygc+fOVZv/uHHjKD4+Xvg9Li6ORo4cKfz+xx9/UNu2bSklJYV69eqltY0rVqygb7/91viVNBNTf/bU4aOm/YHIMgKIWllZGYWHh2s93tTXAEJEFBoaSl9//TUREd29e5c8PDxo2LBhwut9+/alI0eOUHJyMgUGBgpD/Ofm5lJQUBAtWrSIiIjWrVtHs2bNqvExAAqFgtzc3DQeQaB+PEFlCoWCPDw8SKlUUlFREV24cIF69epFmzdv1qin7UsF9TyXLVtG8+fPF35X0/boAqYd/08zHD8xXSIlJSXo1KkT7O3tzd0UZiN0XZqlfpjZ5s2bsXDhwmqXYM2cORPTpk3TmFdtl1rVtfzs2bPo1atXtRtdddVn2uXm5mL16tVYtWoVJk+eDH9/f3Tt2hWA7pH5bt26JdzrBgDt2rXD7du3tc7/+++/x+rVqyGTybB69Wp8+umnwmu7d+/G+PHj0b9/f9y6dQuZmZka771z5w6OHDmCd999V+zVtknabvyuvD+o99W6DqUt5qVZb731VrXhwuv7JVjqgXeAp5dkv/fee7h06RJKSkpQUlKC9PR0YduoHwvg5OSEpk2b4rXXXqv2CILaHgNgZ2en8QiCyo8nqExdz8XFBT169EBMTAz+8Y9/CK9nZWUJx5PKl5qr5+no6AgHBwfhdzVtjy5gTCwcQiTi5ORk8FDDjNWmahCJjIzEwIEDMWfOHMyZM0drADFkdCwxy5cuXarR8eIAYjh7e3t4enrimWeeQcuWLXHlyhVhWHFdI/MVFRVpdCKcnJygUChw4cIFbNu2Ddu2bRPuVXNzc4Onpye8vLzw3HPPYefOncL7YmNj0aFDB1y4cAG9evXCnj17NNq2fPlyfPLJJ1JvApuhvvFb2/5gaQGk8qhZlYcLr+8BBNB8BMGxY8fw2muv4ZVXXkFqaip+/fVXdOnSRXgOWl5eHpKSkpCUlISYmBjEx8dj0qRJBi2vtLRU4xEEa9aswcOHD2t9X5cuXXD//n2UlpYCqP1LBW2MfXQBY/pyqL0KY8ySqINIz549ER0djU2bNiE6Ohpubm5CHXMHEHV55Yeh9ezZE6tXrxZlG9QXTZo0wQcffCD87uTkhB07dmD58uWIj49HcHAw1q1bBwDCyHxeXl4a37bm5eWhefPmUKlUUCqVGvMfMmQIQkNDAQBTpkxBixYtEBkZiaysLPz11184cuQIjhw5AuBpJ0Z9pqS0tBSHDx/GP//5T0nX39Zo2x8sNYCoy9XDhffs2RMbNmyo1wEEAPz8/FBQUICcnBykpqZi8+bNuHXrFo4ePQovLy+NRxDk5OQgPj4eAPDnn3+ivLwcLVu2NGh5dnZ2cHd31yjTdiZEmwYNGqC8vBzA0y8VFi5cqPGlQuUzn9pUfXTB/PnzUVxcDBcXF4PWgTFdOIQwZoU2btyIqKgoLFq0CPHx8RrPBbCUAKJ29uxZ9OvXD9evX0dubq7QVoVCYfwGqIeUSiXOnz+P3r17a4zMpzZmzBjs3bsXr776KsLDw7Fs2TKUlpbi3Llz+Prrr+Hp6YmXX35Z5/zT09NBRHBxcUFsbCymTZuGJUuWAAAqKirw/PPP49KlS+jatSuOHTuGPn36CJeMsJpV/qxX3h+uXbtm0LN8dAUHXQ8Z1VU/NjbWoPrq482mTZvwyiuvaLS1Pnr11Vfxr3/9C23btoWzszOGDBmCDRs24MUXX8T/+3//T6jXuXNnbN68Wfj9gw8+wJ49ezB79my9l+Xo6KjxRYS+bt68iUaNGsHFxQUXL16s8UsFXSo/ugCA8OiC0aNHG9wexrSS4kaTmTNnCiMsdOzYkcaNG0f379/XqPP+++9TYGCgRllpaSktXLiQBg0aRGvWrNE678zMTI0RHHr16lXtxkhtozlcunSJxo0bpzGpbxBj1k2ij7HFqnxTaNUbWQ29sdWU5WVlZTpvzmXVXbt2jRwcHIQR/5o2bUojRoygJ0+e1DgyHxHR5MmT6c0336SAgABatWqV1vmPGzeOmjRpIowY2LJlS9q/fz9VVFRQy5YtKSMjQ6P+hx9+SAsWLBDmv23bNgnW2jTMdcyouj8EBwdXG1nM0JvQ5XK5QTehG1q/puNNffXVV1/RM888Q6tXrxbK/Pz8qGnTpsLoV8nJyRQcHKzxvjVr1gj9EvWN6ZVVHYFToVCQu7t7re1RKBTk6ekp/J6fn09vvPEGrVy5koiI5s2bR0uXLhVeLy8vp+bNm9PFixeFslWrVmn0iR49ekRNmjTRGOFzw4YNNGrUqFrbU1/Vt76IGCTZYrUN/Zifn0/Nmzenjh070oULF4TypUuX0gcffEDZ2dk0bNgwiouLqzZvfYat1DaaQ15enjCsZGJiIoWHh9O8efOkWH1mYvVpx9fWUVB3DO7du2exAUSNg4jpXL9+nW7fvm3uZlgkcxwz9NkfLDmAqHEQIcrIyCAA9Ouvvwpls2bNIn9/f+F3bSFk//791KdPHyLSP4TY2dlVewSBOlxoq/f888+Tr68vffrpp6RSqfT6UoGoegjR99EF7L/qU19ELJKFkJqGfty6dStNmTKFZDIZffLJJ0J5mzZthH+aJ06coJCQkGrzrm3YSiKid999l3bs2EGBgYH0448/VpvHw4cPaeDAgVRcXGz8SjKLUV92/JqGxczJyaFXXnml2mdaV6cmJyfHoEBx8eJFUYIJEQcRZn6mPmbosz8kJCQYHEB27dqltVyqAKLGQYSx6upLX0RMkoWQt99+m1atWkVLly6lnj17aoxTP3jwYDpx4gRduXKFWrZsSRUVFURE1LhxY6HO7du3qXv37tXmfe3aNWrevDmtWrWKoqKiaNKkSTRhwgRhHsXFxdSiRQt68uQJffnllzRhwoRq85gxYwYdOnRI7NVmZmKLO37VddJnXH51x0CtpgBiyHNDxHrOSGUcRJg5mfKYoe/+oO25OjUFEF37nq76uvZhQwOImq4gkpWVVeP7GLNVttgXkZpkQ/TqGvrxwYMHOH/+PNzc3FBcXIzy8nKcPn0aZWVlsLOzE96vHlaSiIRhJS9cuACg5mErq47mcODAARQXFwvzvXXrFs6dO4eQkBCpVp0xUek7LKZ61KwNGzbovLE1NzcXcXFxmDFjhka5WPX1HYa36nCljNkiQ/aHH374QWN/2LBhg86b0HXtewB01te2D+uqb8jxpupzi1q3bl3j+xhjTCBFsql6OZZSqSRPT08qKCig6Oho6t69O73zzjv0zjvvUO/evWn69OlERNSkSRMqLS0lIqKrV6/SK6+8QhUVFbRp0ybatGkT/fzzz1ovx1qxYoVwf8fIkSNpyJAhwvx9fX1p3759Qt2oqCiKioqSYrWZmUj0MTYr9ToZ82TinJwcGjNmjNZybd+eZmVlGXQGxNBLs2rCZ0SYOZjimFGX/SEhIcHgMyC6Ls0y9IyJMcebymdEbPF4zJg++LNvOJOEkLNnz5KHhweVlZVR7969KSUlRXjt8uXL1KxZM1KpVDR8+HBKTEwkIqL169drjG6lVjWEFBcX06hRo2j16tV6jebg7+9Ply9fFnV9mXnZ4o4PwKgAolY1QOi6dEJX0Kh6aVdt9Y3pcKlxEGGmJvUxo677g7ZLs8QcMOLw4cNay+tyvFEfX2zxeMyYPvizbzjJQoi2oR9v3LhBzz//PJWXl2vU79SpEyUlJdF//vMf8vPzo6lTp1L37t2rDV1IVPOwlbWN5pCdnU0vvviiFKvMzMgWd3wARncI1NRnLIwNIPrWr0uHS42DCDMlKY8ZuvYTQ5SVlVFERISwD5piJLu6Hm/Uxw1bPB4zpg/+7BvO4raYQqGgCxcuUElJibmbwqyErez4MpmMAFSbunXrZvQ85XI5hYaGShZAdF3KZYyysjKSyWQ84g6TnFTHDDECiJp6fzh58qTkAaQubd61a5fW45atHJcZ0xd/5g3HW4xZPVva8dWXYIm5TlU7HzUFjZrKqxKzw6XGQYSZghTHDKn2h/DwcJM/+6cuAPDwvaxesqW+iKnwFmNWz1Z2/F27dgmXRIi9TupvOxUKhc4OgrbOv676CoVC9A6XmjqIMCYVsfcvhUJBERERos5TTX1plpqugSF07ZO66usqrysAOr+4YMyW2UpfxJTsiIgkHHyLSSQ7O5uHQrQx3bp1Q3p6OgDAzs4OYu+a48ePx+7du0Wbn0KhgJubm2jzq4w/38zaSLk/pKamIiAgQNR5Vj7eiEl97IqMjMSSJUtEnz9jTBpZWVnw9fU16TI5hLBqHj16hKKiIrzwwgvmbopepOiwm5strhNjloL3L+nwtmX1FX/2DSfZwwqZ9Tp69Cg2bNhg7mZoOHz4MPLz883dDLPLzMw0dxMYswpKpRL37983dzMYY4zpwCGEacjPz0d0dDQOHjyIhIQEREVFISQkBGPHjkVYWBhu3rwJABg7dqzwnj///BMRERHYuHEjvvvuOwDA+vXrIZPJAAA//fST8LOx9u3bB29vb0yYMAGFhYV1mpc1On78OLp164agoCBzN4Uxq3Du3Dm0bdsWQ4cO5fDOGGMWiEMI09C4cWNMnjwZgwcPRlBQEAoKCiCTybB3716sWLECH330EQAgNzdXeE95eTkePXqEHj164N///jcAQC6X4/z58wCAU6dOoVu3bnVql7u7OxQKBXbu3Ik2bdpg6tSp9SKMXL16Fd26dUNwcDAuXbpkNZfIMWYJioqKkJSUBH9/f0yaNInPpjLGmAXhEMI02NnZoXHjxnB1dYWLi4vGay+++CJUKhUqKipQXFyMuLg4xMXF4eDBgwCAl19+Genp6VAqlXB2dsYLL7yAe/fu4ezZsxgwYIBobXzw4AFiYmLg7e2N6Oho0eZraQYNGgQ/Pz9cunTJ3E1hzKo9fvwY27Ztg6+vL0aPHm3u5jDGGAOHEGYgOzs7VFRUwM7ODs7OznB2doaTkxMAwMHBAR4eHvjxxx8REBCAIUOGICkpCYWFhXj22WcRGxsLOzs7o6ajR49qtMPd3R1BQUGYNGmSGbaCabRs2RKenp4aZXl5eUZvw/Hjx5tpTRgznrGf9/79+1ebl5ubG7p06WKGtWCMMfE9evQId+/eNXczjMYhhGmlbYSHvLw8EBEcHBzg7OyM4cOHY/jw4Rg6dKhQZ8CAAVixYgWCg4MRFBSEr7/+Gl27dgXwdIhYevpsGoOnIUOGAHh6uVhoaCju3LmD+Ph4eHh4mGaDmMG3336Lc+fO4bXXXhPCSNOmTY3ehrGxsWZeI8YMZ+zn/aeffhLm0bx5c8yePRvZ2dlYunSp+VaGieLWrVsoKCgwdzMYMztLHEjIEA7mbgCzPF5eXkhISBDCxcKFC+Hh4YGioiJ8/vnnNb530KBB2LRpk/CMB0dHRwQGBta5Tbdv38a7776L6Ohomw4eVbVp0waJiYnIzMzE9OnTcfXqVXM3iTGr4enpidDQUERHR0v2DA9Wu/v37+O5554TbX5RUVEYMWIEXnvtNdHmyeomPz8fbm5ucHCo3q3Mzs42+fMnLMnNmzfRqlUr0eerHkjo8ePH6NevHzIyMpCSkgJ3d3c4Ojpi2bJlaN26NZKTk7F+/Xo4OjrCx8cHa9euxZMnTzB//nw/tsZsAAAgAElEQVQUFhbi8ePHiIqKQqdOnURvY234OSFMqytXrsDLywvNmjUzd1NqZYtjc+s6aOfm5sLLy8v0DWLMyqhUKpSUlGgNH7Z4zLAUlbft1atXMWXKFNy/fx/Z2dmizD8tLQ0TJkyAt7c3li5diilTpuDixYvC33nAgAGYP38+XF1d8dlnn+GFF16AUqnEzJkzERgYiEuXLiE6OholJSWws7PDV199BXd3d1HaVp9FR0dj+fLlmD59OhYtWqQRRurL/lZ1PePj4zF37lw0btwYFy9eFH15RIQtW7bg8uXLWLVqFVauXImQkBD07t0bp06dQkJCAhYtWoRx48bhwIEDaNiwIb788ku0b98e9+7dw5MnTzBjxgzcuXMHa9euxZo1a0RvY234ciymlZ+fn1UEEFul61sjDiCM6cfBwYHPfpjJ1atX0bdvX/j5+eHMmTOijur30ksvISAgAOHh4WjWrBkcHBxw+PBhYbkPHjxAcXExSkpKMGLECOzZswexsbFYvnw5njx5gi+++AKzZs3Cjh07MGrUKCQkJIjWtvouLy8PMpkMzz33HJYuXQqVSmXuJplFfHw8fH19MWbMGNy8eRONGjWSZDnaBhLKzs7G1atXcejQIbi6uuKXX35BUFAQGjZsCACYPn06Bg8ejJdffhk7duzAunXrUFxcbJYAAnAIYYwxxpgI1M+RUocPKTRs2BAuLi7w8PCAvb09hgwZgsTERABPnyelbfQzV1dXBAYGIj09HUFBQZg9ezZ27NiBgIAAjBs3TpJ21mdVw0h9Ujl8mENycjL27duHPn364NNPP4VSqRQCCACUlZXh/v376Ny5M44dOwYfHx8sXLgQixcvNkt7OYQwxhhjTDJ1GdVPPem6nMvZ2Rn29vZQKBS4ceMG2rdvr7Wevb09VCoV3nnnHWzduhVKpRKhoaF8JuT/REZG1unvM2vWrGrztLe3N8OamFfjxo2rlV2/fr3On/+a9ofKl4BNnToVS5YsQWhoKBwdHdGzZ0+cOHFCeP3QoUPYsmUL1q9fj+vXryM0NBR79+7FkSNHJN0uunAIYYwxxlidqW++vXLlCvr06SOU12VUP/VU9RLVyh2vkJAQfP755zpvrK2oqMBPP/2E7t2747333kOzZs3w3nvv4auvvsK+ffvE3xBWaPHixXX6+6xbt06YV/PmzbFkyRLcuXOn3p0JuXjxIpKTk4VRQQGgffv2df7869of1AMJpaSkaG3Pc889h8DAQIwYMQIff/wx1q1bh/DwcAwbNgwLFizAokWLMHr0aLz11lsm2DrV8Y3pzOrVl5veGGPi4GOGdLTdmJ6dnY379++LtozFixfjl19+wbx583D48GEsW7YML7zwAtLS0pCWlgZ3d3e4u7tj/vz56NChAwoKCjBp0iSMHTsWBw8exObNm9GjRw+cPn0aixcvxsCBA0VrW30VHR2NpUuXah2Nrr7sb1XX8/jx45g9ezYASHJjupo+Awk9fvwYeXl5aN26tXCGqry8HFlZWWjSpAmaNGkiWftqwiGEWb36coBjjImDjxnS0bZtxR6it6ysDOnp6fDz8xNuyDVEcXExbt26BR8fH7i6uorWrvosPz9f52AQ9WV/07WeYn/+bQmHEGb16ssBjjEmDj5mSIe3Lauqvnwm6st6ionvCWGMMcYYY4yZFIcQxhhjjDHGmElxCGGMMcaYKBQKhbmbwBizEnxPCLN6fB0mY8wQfMxgzHTqy/5WX9ZTTHwmhDHGGGOMMWZSHEIYY4wxxhhjJsUhhDHGGGOMMWZSDuZuADNOdnY2Wrdube5mWAw7OztzN4ExZkX4mMGY+Lp27Yrjx4/Dy8tL9HlHRkZiyZIlos9XTOrjypgxYxAbGwsHB3G72SqVCqGhofjhhx9EnS8AZGVlwdfXV/T51kSSMyHffvstVqxYAQAYN24c2rVrJ0wDBgzAoUOHhLoKhQIfffQR2rVrh5YtWyIkJAS//fab8Hrfvn2F93bv3h0ff/wxysvLa1x+z549ERsbq1H25ptv4u7du7h8+TLatWuHY8eOaby+Y8cOtGvXDnl5ecjIyMCbb74JANi9e7ew/Pbt2yM4OBhnz56t0/YRg6+vL4iIp/+7CczcbeCJJ56sZ+JjBk88STP9+uuvmDlzJnJzc0Xt80RGRiIoKMjs61fTVPm48uWXX2LixImibgOVSoWJEydiy5YtkrTf1AEEkCiE5OfnIy8vDwBw9+5dfP3117h8+TIuXryI+fPnY+zYsVAoFCAiDBs2DG5ubkhPT0d2djamTJmCQYMG4c6dOwCefuOfkpKCy5cvIykpCcnJydi+fXuNy8/OzsaCBQvw119/CWW3b9+GSqVCSUkJcnJyqoWUHTt2ICcnB+Xl5SgtLcXt27cBAAUFBQgODsbly5fxn//8B2+//TbGjh0r5uZijDHGGLN6Dg4O2L59u6hBRB1A+vXrJ8r8TMHLywvR0dHYsGGDaPNcuXIloqOjJTnLZC4muSfEyckJTk5OcHFxwdChQ+Ho6AiFQoEff/wRALBq1Sq4urqiQYMGGDlyJD766COsXLlSeL+zszOcnJzQokUL9O3bF0+ePKlxefb29ggPD8fcuXO1vu7v74+ff/4ZpaWlAIC//voLCoUCzz//vNb6Dg4OcHJygqurK4YNG4aioiIh9TLGGGOMsafEDCKxsbFWF0DUvLy88NZbb4kSRDZs2IAPP/zQpgIIYKJ7Qs6cOQOFQoHS0lIkJSUhJCQELVq0wPnz5zF06NBq9YcOHYoPPvhA+D06Ohpubm54+PAh0tPTsWzZslqXOWfOHPj7++PEiRMYNGiQxmsNGjRAUFAQjh07hv/5n//BwYMHMXLkSHzzzTda53X+/HmsXr0a5eXlOHbsGKKiovh6YsYYY4wxLdRBpC6XJKWmpqJVq1ZWGUDUKgeRGTNmGDWPDRs24K233rK5AAKY6ExISkoK4uPj8f333yMxMVH4QBUVFcHFxaVafRcXFxQXFwu/e3h4wNPTE82aNYNKpUJycnKty3RwcMDXX3+N8PBwKJXKaq+PGTMGe/fuBQDEx8dj9OjROufl5OQET09PPPvss+jcuTN27typ0T7GGGOMMfY0PNjZ2cHR0RG7d+8G8PSGbUO+vE1NTQUAqw4gal5eXggJCUFkZKTB77XlAAKY6EzI/PnzhQ/SvXv30LlzZ0yfPh2dO3fGkSNHNOoWFRXh559/hp+fn1A2adIkPPvsswCe3qj+97//HW+99Vaty+3duzcGDx4s3CRfWb9+/fD+++/jzz//RH5+fo0jTXXp0kXjzMyQIUNw8uRJrWdxGGOMMcbqq379+mlcsm5nZ4ewsDBER0fr9X5bCiBqvr6+CAoKQmRkJBYvXqzXe9T3wthqAAHM8JyQ559/HhUVFVAqlRg9ejTOnj2LxMREAMCNGzcQGBgImUyGOXPmVHsvESEtLQ1NmjQBADx8+BCPHj2qcXkrV67Erl27hBvN1Ro0aIDg4GBMnz4dw4cP17v9eXl5uH79Opo0aYKKigrcvHmT7w9hjDHGGNNB33tEUlNTceHCBZsKIGr9+vUTgkhtrPFmfGOY5WGFrVu3xsmTJ+Hq6ooDBw5g3rx56NevH8LDw3Hnzh00aNBA4+bzrl27wsfHB82bN0dsbCzWrFkDAFiyZInGDezaNGrUCF988YXGSFlqY8aMwf79+2u8FAsAtm7dCh8fH/j4+KBz586YMGECevXqhUePHsHX1xdFRUVGbAXGGGOMMdunz83qqampOH78uNH3TlgDfYJIfQkgAGBHFvI1/s2bN5Gbm4tOnTpBoVDg9OnTGDlyZI3vUalU2LRpk1k/sP/85z8xffp02Nvbm60N9Z2dnR2fjWKM6Y2PGYyZTuX9Tf2si6pDzaoDiL6XKlkiQ44ruta3PgUQwIJCiDHS0tLQvn174X4RUyspKcGpU6cwePBgsyyfPcUdCsaYIfiYwZjpVN3fqgYRWwgggOHHlarrXd8CCGDlIYQxgDsUjDHD8DGDMfNSB5Fp06YhJSXF6gMIYNxxRR1EANS7AAJwCGE2gDsUjDFD8DGDMfM7deoUli5diqNHj8LBwSSDtUrK2OPK1KlTAQBbtmwRu0kWzyw3pjPGGGOMsfopNTUVKSkpOHr0KFauXAmVSmXuJplFZGQkJk+ejMmTJxv1HBFrJ0kIWbt2Ldq1aydM/v7+iIqKAvD0OSCVX1NP6mF6L1++jIEDB8LX1xddunTRGP2qb9++Qv3u3bvj448/Rnl5eY1tGTdunMZyBgwYgEOHDmltS3BwML799lsAQEVFBV5//XUcOHBAY36zZ8/G2rVrxdpUjDHGGGP1RuV7IRwcHLBw4cJ6GUQq3wNiyPC9NoUksGjRIlqyZAkplUoqLi6mzMxMatq0KSUnJ5NCoSA3NzdSKpUaU3l5ORERde3albZu3UoVFRWUm5tLr7zyCsXExBARUYsWLejOnTukVCrp/v371KNHD/rmm29qbEtAQAAdP36clEolFRUV0eHDh8nZ2ZmePHlCCoWCPDw8hNcuXLhAvXr1os2bNxMRUXJyMrVq1YqKioqIiOj8+fPk7e1NBQUFUmw2ZiSJPsaMMRvFxwzGzEMul5NMJqtWrlAoKCwsjMrKyszQKnHUdlyp/LpMJiO5XF6tjq7tY6skuxzL0dERTk5OcHZ2xosvvohevXohLy8PwNPr5pycnDSmBg2eNuXOnTvo378/7Ozs0LRpU2zYsAEvvviiMF9nZ2c4OTmhRYsW6Nu3r8bzRHRRL8PFxQVDhw6Fo6MjFAqFRltcXFzQo0cPxMTE4B//+AeApzcJ9e/fXzgbM3PmTKxZswaNGjUSdVsxxhhjjNmymkbBcnNzQ3R0NCZOnGjzZ0RqGgWrvp0RkexOoOvXryMpKQlEhMuXLyM3N1cYyra0tFR44KDa5MmT0aRJE3zyySfo1asXxowZgyFDhmDIkCFwd3cX6kVHR8PNzQ0PHz5Eeno6li1bVmtbzpw5A4VCgdLSUiQlJSEkJAQtWrRAYWFhtbpdunTB/fv3UVpaioYNG+KLL75A9+7d4eLiAhcXF4wdO7aOW4YxxhhjrP7QZxheLy8vIYhs377dJm5Wr0qfYXjVr0VGRtrEqGE1kexMyJUrVxAfH4/vvvsO+/fvR5s2beDh4QHg6dkHd3d3jUl9JmT+/Pk4f/48unfvjm+++QYdOnRASkqKMF8PDw94enqiWbNmUKlUSE5OrrUtKSkpiI+Px/fff4/ExMRah0Br0KCBcK+Jl5cXIiMjIZPJ8OWXXxq5NRhjjDHG6h9DngNSOYjY4hkRfYfhrTdnRKS4xmvRokW0fPlyjbL27dvTr7/+SgqFgtzd3bW+7+7du8L9GGq7d++m4OBgInp6T0heXp7wWmpqKvXu3bvGtgQEBGhcd3f37l3y8PAgoqfXIHp6emrUz87OJm9v72plbdu2rXE5zHwk+hgzxmwUHzMYMw1j73HIycmxuntEtB1XunXrRgCqTbt27dJrnnK5XOu9I7bCZEP0dujQATk5OTXWadiwIebMmYP79+8LZQ4ODnBxcalWl4iQlpaGJk2aAAAePnyIR48e1dqO559/HhUVFVAqldVeKygowEcffYTw8PBa58MYY4wxxrS7dOmS0U9Ct5UzIunp6ZDL5ZDL5QCe9l2JCOPHj9fr/eqzJqmpqZK10ZxMdsFd69atkZKSgoCAABQWFsLHx0fj9fDwcCxYsABff/01evfujR49ekClUiE7Oxv79+8X6nXt2hX29vYoKSmBj48Pdu7cCQBYsmQJnJ2dhZvKa2vLyZMnERAQgPz8fPj4+KCiogINGzbE22+/jU8++UTclWeMMcYYqydyc3Nx8uTJOt3TYAv3iKjDQ12ehN6vXz+kpqYiNTXV5p6obpFPTC8pKcG1a9fg6OiI9u3b6/XBU6lU2LRpE2bMmGGCFjJLwk8/ZowZgo8ZjEknNzcXcXFxovXHcnNzMXPmTIsPIlWPK1UDSF2PO7GxsWjVqpVNBRGLDCHGSEtLQ/v27fHss8+auynMxLhDwRgzBB8zGJOG2AGk8nwtPYhUPq6kpqbiwoULGttBjOOOPqNrWRUz3IfCRJCVlaX1ZieeeOKJJ5544oknc0zh4eGS9XtycnIoODjY7Ouoz/SPf/yjWvsBcbrcs2fPlqTNWVlZorTPEDZzJoTVX/ytJmPMEHzMYIyJrbbjCh93qjPZ6FiMMcYYY4wxBnAIYYwxxhhjjJkYhxDGGGOMMcaYSXEIYYwxxhhjjJkUhxDGGGOMMcaYSXEIYYwxxhhjzMrcunULBQUF5m6G0TiEMMYYY4wxZmWioqKQlpZm7mYYjUMIY4wxxhhjepgwYQLy8/NFmdfVq1exdetWo96blpaGY8eOISoqCn/88QdGjx6NsLAwjBkzBtOnT4dKpYJSqcS0adMwduxYjB49GqmpqQCAsWPHCvP5888/ERERIcr6GIpDCGOMMcYYY3rYuXMnvL29MXr0aKPDyNWrV9G3b1/4+flhy5YtRs3jpZdeQkBAAMLDw9GyZUvk5+dj9+7d2LdvH5o3b46jR4/iiy++wNChQ7F3717s3LkT69evBwDk5uYK8ykvL8ejR4+MakNdcQhhjDHGGGNMTwqFAt99953BYaRy+Dhz5kyd2tCwYUO4uLjAw8MDDg4OqKiowG+//YZff/0Vcrkcrq6ukMvlGDFiBADA2dkZe/bsAQAUFxcjLi4OcXFxOHjwYJ3aURccQhhjjDHGmM1LTU2FnZ1dnabK1GGkSZMmei1fjPChS0VFBfbs2YPDhw9jyZIlGDhwIMrLyzXq3L9/H2VlZbCzs4OzszOcnZ3h5OQkSXv0wSGEMcYYY4zZvH79+oGI6jRV1adPH1y6dEmv5U+ZMgXNmzfXKPvPf/5TpyCkbpODgwOWLFmCzz77DP369QMAtG/fHr/88otQb9SoUaioqICzszOGDx+O4cOHY+jQoQZvR7E4mG3JjDHGGGOMWaHAwEBs2LABnTt31vs9W7ZsQX5+PqZMmYKkpCQoFAr06NFDuGHcUF5eXoiOjoafn5/W1xctWoTx48fD398fV69exfjx48165qMqO9IW6xizInZ2dlq/nWCMMW34mMEYM1aLFi1w4sSJauGjtuNK1dfVYaRBgwbYu3evUW0pKytDeno6/Pz84OLiorVORUUFsrOz4enpqfdlY6bCIYRZPe5QMMYMwccMxpjYDA0hjO8JYYwxxhhjjJkYhxDGGGOMMcaYSXEIYYwxxhhjjJkUhxDGGGOMMcaYSXEIYYwxJoqq49czxhhjunAIYYwxxhhjjJkUhxDGGGOMMcaYSXEIYYwxZpBLly6ZuwmMMWbTcnNzUVhYaO5mSMrB3A1gxsnOzkbr1q3N3QyLwdeiM2Y6n376KQoKCtCvXz9zN4UxxmxObm4upk6dih9++MFky8zKyoKvr6/JlgdwCLFavr6+/OTN/8NPIWXM9CIjIwGAgwhjjIkoNzcXM2fOxHfffQcHB9vupvPlWIwxxgy2ePFiHD9+HKmpqeZuCmOM2QR1ANm+fbvNBxCAQwhjjDEjcRBhjDFx1LcAAnAIYYwxVgccRBhjrG7qYwABADvii+mZleN7Qhgzj8LCQri7u2t9zRw3OeqLjxmMMbHVdlzR9Xp9DSAAnwlhjDFmJDc3NxCRMAGAXC4HEVlsAGGMMUtRnwMIIHEI+eCDDzBo0CCNslmzZqFdu3Zo164dOnXqhLCwMPz555/C68ePH0dAQAC8vb3RpUsXrF69GhUVFQCA8vJy4b3t2rVDx44dMXz4cGRkZOD06dMar6mnkSNH4o8//tAo6927N7Zt2yblqjPGWL3El2Yxxljt6nsAASS8HKugoADt27fHM888g927d6NHjx4AgLCwMLz55psYNWoUSkpKMGfOHJSWlmLbtm1ITk7Ghx9+iD179uCll15Cbm4u3n//fbRq1Qrr1q1DeXk5nJychIe3lJaWYtWqVTh16hROnjyJsrIyAMAbb7yB2bNnY9CgQbCzs0NWVhZGjRqFX3/9FUSE69evo2/fvrh48SLatGkjxeozE+JLKxizDOp9ccOGDXjrrbfg5eVl7iZpxccMxpjYDLkciwPIU5KdCdm/fz9CQkIQFhaG3bt3a7zWsGFDODk5oXHjxhg8eDCePHkCAFi4cCG+/vprvPTSSwAALy8vbN++HXv37sW9e/cAPP0jOjk5wcnJCY0aNcKIESOQl5eHBg0aCOX29vbCMho2bPh0Rf/vdWdnZ3Tr1g2tWrWy+SdRMsaYOcyYMQNxcXHIzc01d1MYY8yicAD5L8nWPjY2FgsWLEDz5s0xbNgwrFq1Sniq9ffff48bN25AqVTihx9+wL/+9S+oVCpcu3YNAwcO1JhPo0aN8PLLL+PixYsYPHgwKioqkJSUBADIz8/H1q1bERERUWt7cnNzsXr1ahARfvvtN/j7+6Nr166irzdjjLGnQcTSz4gwxpgpqVQqDiCVSHIm5MGDBzh//jzc3NxQXFyM8vJynD59Wnjdzc0Nnp6e8PLywnPPPYedO3eirKwMDRo0QIMG1Zvk5uaGoqIiAAARIT4+HvHx8Thw4AB+++03dOvWrdY22dvbw9PTE8888wxatmyJK1eu4OrVq+KtNGOMMQ0zZszA8uXL+YwIY4wBWLlyJQeQSiS5J+Sf//wnvvnmG+FMw++//w5/f39s2LABYWFhGD16NEJDQwEAJSUlaNGiBW7duoXu3bvjxx9/RMeOHYV5ERE6duyIxMREtGzZEs7OzsK9HwCwe/du7NmzBwcPHhTKhg0bhrlz5yIoKAgA8Ntvv2H06NG4dOmSUGflypUoKCjAqlWrxF59ZmJ8fTdjlkHbvqhSqTBx4kRER0dbzBkRPmYwxsSm7bjSvXt3XLx4sVpdmUyGxYsXm6ppFkuSMyGxsbGIjo7Gjh07sGPHDsTExGDfvn0oLy+vVjc9PR1EBBcXF8yZMwcREREa92pERUWhQ4cOaN26tdZldejQATk5OQa1T6lU4vz582jSpIlhK8YYY8wgDg4O2L59O2bOnMlnRBhj9Up6ejrKysogk8kAQBjOnAPIU6KHkMzMTNy+fRv9+/cXyvz8/PDss8/i+PHjAID3338fPj4+eP755zFmzBhs3boVDg4OmDZtGnr37o2OHTvizTffRNeuXXHixAls2bJF5/J8fX1x9erVWoPItWvX4OPjI0wVFRUIDw8XZ6UZY4zpxEGEMVYfqc8Ez5kzx9xNsUgW+cT0oqIiZGRkoHnz5vD29jZ3c5iF40srGLMMte2LlnJpFh8zGGNiq3pcqXq84+NOdRYZQhgzBO/YjFkGffZFSwgifMxgjImt8nFF23GOjzvVSfrEdMYYY6wyvjSLMWbLLOGLFmvBIYQxxphJcRBhjNkiDiCG4RDCGGPM5DiIMMZsTU0BhC/Fqo7vCWFWj6+zZMwyGLMvmuObQz5mMMbEpFKp4OjoiJycHD4DYgA+E8IYY8xs+IwIY8yaqb9IAcABxEAcQhhjjJkVBxHGmDWqfCaXGY4vx2JWjy+tYMwy1HVfVP9D37x5M9zc3ERsmSY+ZjDGxDB+/Hh+DkgdcAhhVo93fMYsgxj7YmZmJtq2bStSixhjTDpXrlxB586dAXBfxBgcQpjV4x2f2ZJHjx6hqKgIL7zwgrmbYjBr2RetpZ2MMevBxxXD8T0hjDFmQY4ePYoNGzaYuxk6FRYWQqVSmbsZosvPz7fJ9WKMMUvlYO4GMMYYeyo/Px/R0dF4/Pgx+vXrh4yMDKSkpMDd3R2Ojo5YtmwZWrdujTVr1uDMmTMoLy/H66+/jqlTp+LSpUuIjo5GSUkJ7Ozs8NVXX8Hd3V30Nm7ZsgVfffUVwsPDMX36dDg4WPe/kfz8fEyZMgWHDx9GRkYGfH19zd0kxhirF/hMCGOMWYjGjRtj8uTJGDx4MIKCglBQUIDFixcjLi4O77//PjZu3IjTp0/j9u3b2LdvH/bv34+0tDT89ddf+OKLLzBr1izs2LEDo0aNQkJCgmTtvH79OmbNmgU/Pz9ER0db5RmE/Px8jB49Gt7e3vjuu++gVCrN3STGGKtXrPsrLMYYsyF2dnZo3LgxXF1d4eLiAgDIzs5Go0aNcOjQIbi5ueHIkSOYMGGC8J6YmBgAQFBQEGbPno2JEydi2LBhaNq0qeTtVYeRr776CitWrJB8eWJQhw1vb28oFAozt4YxxuovPhPCGGMWLDk5Gfv27UOfPn3w6aefQqlUomHDhsLr+fn5yM/PxzvvvIOtW7dCqVQiNDRU55mQ8ePHw87Ozuhp1qxZ1eaZn5+PxMREybaBqbRu3bpO2yY2Ntbcq8AYY1aDQwhjjFmYyiOsTJ06FUuWLEFoaCgcHR3Rp08fjQ7/Z599hosXL+K9995Ds2bN8N577+Grr77Cvn37tM47NjYWRGT0tG7dOmFezZs3x5QpU5CZmYktW7ZIt0FE5OzsDAC4c+cOQkNDNe6bycrKqtO2GT9+vLlWizHGrA5fjsUYYxbEy8sLCQkJGDp0qNbXR40ahQkTJmDatGmoqKhAYWEh+vfvj4cPH2LUqFHo0aMHTp8+jcWLF0vWxubNmyMkJATR0dGSPlRQSh4eHoiPj0d+fj5mzpypM7QxxhiTBj8nhFk9Hpub2ZorV67Ay8sLzZo101nn3r17qKiogLe3t1BWXFyMW7duwcfHB66urpK07f79+2jcuLHW8GEt+6K2dubn58PNzc3qR/tijJmHtRz/LAmHEGb1eMdnzDJYy75oLe1kjFkPPq4Yju8JYYwxxhhjjJkUhxDGGGOikMvl5m4CY4wxK8GXYzGrx6dAGWOG4GMGY0xsfFwxHJ8JYYwxxhhjjJkUhxDGGGOMMcaYSXEIYYwxxhhjjJkUhxDGGGOMMcaYSXEIYYwxxhhjjJkUhxDGGGOMMcaYSXEIYajdN7MAAB9RSURBVIwxxhhjjJkUhxDGGGOMMcaYSXEIYYwxxhhjjJkUhxDGGGOMMcaYaRGzSllZWQSAJxGm4OBgKisrk+TvtGDBArOvH088GTL16dNHsv1BJpOZff2knAIDAyknJ0eSbSeXy6l169ZmX0eeeKppat++vWTHD7lcTq+++qrZ19FWp6ysLEn+bjXhMyFWytfXF0TEExEAVCu7dOkS2rZti6NHj2qUb9++HW3btkVubq5QFhsbi4kTJ0KlUon6N1q6dCl++eUX5OTkaLQhJycHYWFhKCsr0yiXy+WQyWTV1kXqcplMBrlcrlFWVlaGsLCwam2XupyIDKpv6LbMycnB+vXr9d42htaXctsTESIiIuq8jYuLi9GqVStkZGRUm//69euxdetWrFy5UtR9AQAiIyMxaNAgjBgxAvv37xeWeeXKFfTp0wcFBQV1Og4YMgHVjxmGTCtWrMC8efOE34uKihAQEIDVq1dj5syZyM3NFXXbpaam4vjx45g0aZLenxdd+0ZZWRlkMlm1ckPrl5WVISIiQmu5rs+jrvlYS31d20fM+de1XKFQSN7Omj4/KSkpkvw/Ve8D7du3R0hIiMayKyoq0KtXL3z22WeSHztqmoC6HVfMPfn6+or6N9MLMWbltH2Mz507R40bN6ZJkyZplA8ePJgaN25Mf/75p0Z5Tk4OhYWFifYNzpIlSyg4OLjat6K6liOXy0kmk1Wbj9TlMpmM5HK5RllZWRmFhYVp/UY3IiKiWrmu+oaWExGtX79e7/qGbsucnBxav359tfKLFy8aVN9c296QbaOrfnFxMbVq1YoyMjJqrK9r3Y1VeV3PnTtH3t7e9PDhQyovL6c+ffpQXFycaMvSR13/9RUUFJCvr6+wTh9//DF9+OGHRFTz38QY6s+PIZ8XXftGWVkZyWSyauWG1q+pXNc+HxERYVB9Q+cfFhZGCoVC0vkbUi71/MVarpjtVM9H7P+nlY+hISEh5OHhofGtfWpqKnl4eNC0adNEWZ6xuEttON5izOrpCiGDBg2izp07U0lJCRER5eXlUd++faljx47VQgiReAdOWw0ghnaCZTKZxQcQQ8t1zV9XkLGWACKTyaqdis/JyaEFCxZUq2sobev66aef0qRJk2jt2rU0bty4Oi/DUGJ0Fo4ePUodO3YkuVxO7du31+gAixVExA4ghgYNY+pbQwfe0EBkLeVSBzdDlnvv3j1RLnWuegwNCQmhd955hz7//HOhbPbs2TRhwgQOIVaItxizerpCSHBwMH300UeUkJBAREQxMTH0+eef6wwhRHUPIidPnhQlgNhiJ1i9XHMEEG31awogUv6txNj2RCRqAKnaHvV8MjIytK6DvnTNu6SkhLp160a+vr70119/GT1/Y4nVWfjggw/I1dWVfvrpp2qv1TWISBFALO2bcyk7xvWt3BLPvGRkZNTp/6m2Y2hISAjt37+fevfuLZR169aNtm3bxiHECvEWY1avphBy6tQpmjhxIhERDRs2jP74448aQwiR8UHEXAHEGjrBNZVr+xaeSPulX7q2ZVZWlk0GkJoCgiEh76WXXjI4gKjno2tdaqNr3kREhYWF1LFjR/Lx8aH79+8bPO+6Equz8Pbbb1Pjxo3p6NGjWl83NogYE0AsNVBwuWnKzRHc9Pn8GPv/VNdxJyQkhORyOQ0aNIgyMzPp7Nmz9O6779KePXs4hFgh3mLM6tUUQsrLy6ljx450//59euWVV4iIag0hRIYfOG01gMhkMrp48WK1cjHOdOhqj676YgUKdbkh9Q3Z9roCka511Ra2aqpv6LYcM2aMQQFEWyiUy+X0ySefVKurS00BhIjoo48+or///e8UHR1Nb7zxht7zFYsYnYX9+/fTyy+/TGfPniVfX196/Pix1nq6LmvSxVQBxNAzJlzO5VXL9Q0+hl6aVdMXH+oQsnHjRlq1ahXNnTuXEhISOIRYKUm22HvvvUchISEaZRUVFdSrVy/67LPPhLKYmBi6cOEC9ezZk7Kzs4Xyb7/9liZPnixF05gNqimEEBHNmDGDRo0aRatXryYi/UIIkf5B5OTJk/Tqq6+KEkAiIiK0lkvZCRbzW3ip6isUClEDiCHlNc1fW7m2+ubalsYEEF3lGzdu1OuMSG0B5MSJE9SmTRsqLCyk8vJy6tu3L33zzTe1zldMde0s5OTk0AsvvCAE9Hnz5glnXLXRFRKqqimAEOm+bJHPaHC5pZfre2lWbWde1SHkwYMH5O/vTz169KCSkhIOIVZKki2m7+gF06dPJyKidevW0ZAhQ4iI6O7du+Tt7U2ZmZlSNI3ZoNpCyMmTJwmA8JnSN4QQ1R5ETp48SV27dhUlgNhiJ9jQckM6WeYOIPrWX79+vWjbUttZKV31X3/9dTp//rxB86+tvLYOQm0BRD2qVHJyslB29epV8vLyops3b+p8n9jq2lkYNWqUxhdqxcXF1K5dO/r+++91vqe2IKL+/OzatcugfYPPaHC5tZTX9v9Un0s/1SGEiCgwMFAI/xxCrJNkIaS20QsePnxIixYtIqKnZ0n69+9PW7dupeHDh9OmTZukaBazUVLv+LoOnIYGkJrOaNhiJ1iM8poCiKGXVBlaLsbfSi6XmyXMBQYG0rZt2ySZv1wup/DwcL3nYYnM1VmoLVAb8nmxlI4ll3O5IeW6Ls0y9t4zS8IhxHCShZDaRi/Yvn07nTlzRnj9xo0b1KRJE+GMCGP6MsWOn5OjeamUMQFEjEBhLZ1gUwQQSy/Xte2lDnOBgYG0ceNGyeav7dIsawogRObtLFS9tLC2AKLtHh1L61hyOZcbUl710ixbCCBEHEKMIVkIqW30gunTp1NFRYXwnsuXL1PTpk2pf//+VF5eLkWzmI0y1Y6v7izoCiC6Lo0wJlAYU16VuTrBYgWQsLDqNz5aWtAwJoBIWW6KAFL10ixrCyBE5u8sqD839+7do4iICIM+L+buQHK59nIiaR/mamvl6n3g5MmTNhFAiMx/XLFGkoYQXaMXFBUV0Zw5c4T6ZWVl1LNnTzp48CCNHDmS1qxZI0WzmI0y5Y6fkJBA7dq103qA1fWtvaGX9VhzJ1jMAGLIWSZLKpfL5Qbdl2ONAURtypQpNGXKlGp1LZ0ldBYyMjKoVatWdOLECb0/L5bSgRS7nEj7ABlizt/QZx0ZEiiMmb+2kQQt7e8idXlCQgJ17dq12jG0KkvYX/VhLe20JJKGEF2jFxw8eJCOHDki1F+6dKnw1Nx79+5RixYt6OrVq1I0jdkgU+346m9+q57ZsLTLhuRyOe3atata+y0paOgqt4UAYsjIZNYcQA4fPiyEXWv7JtPcnYXKZ0JeffXVap8jSwogRIZ3yK09IFhSfXMFN6nLdf0/1cbc+6u+rKWdlkTSEEKkffSCiIgIKikpISKi8+fPU4sWLejBgwfC+2NiYsjf37/WdMwYkWl2/KodLfXvlhhAzNEJ5gBSvwJI1TNt1hZEzNlZqPr5qfq7pQUQS+qQW0t9It3P/zGkvqWdeTGmnboeOlv5eFFbELGWzr21tNOSmGWL/fHHH+ZYLLNRUu/4ujpYcrmcQkNDLea+BQ4g9W/bW0IAqVxuLUHEXJ2F2j5XS5YsqfcBhEj3s4vE6HjXVG7M/LXtC7rWy5BycwUlqZerK3DUFESspXNvLe20JLzFmNUTe8c35Bveqq/Xt04wBxAOIFVfr7otLPGmdVNewqmm6/NT+fVhw4ZpvG5pAYTIsG/4a+vAaxsgQ6yOuqEBQVd9Xesr1vzNFUDMsdzaznjoetCutXTuraWdloS3GLN6Yu/46vnp+81u5Wtb61Mn2BwBhC9/e0pXANEVEsQKINruNdLWhsrbxBL/MZuqTerl1BZA1CrXM9elOOr6hnawtQUKqedf05kOqQKC1PVr+7tUHa65tuWa+kyKrvq1BRA1bcdUSzyGaGMt7bQkvMWY1ZMihBh6aYn60qz60gm2hgAidWAxdNvremikuQKIIfWN2R/UgcUS/zGbMoToG0DUcnJyaNy4cTRu3DizdCAtqUMuZn2pA0tNQUnf+qY4s2OKM0pV1ysnR/M5W7Wxhi8ytLGWdloS3mLM6kkRQoy5tt3Ul2aZqxMsRqe2vgUQsQKCNQSQqsuwxH/MpgwhhgQQtXv37tGYMWOqvU+sm6AtMSBo+4ZfzPkbUm6uh7maYjub+pIzQ0O4WuXjjiUeQ7SxlnZaEt5izOrVdcfPysoiAFonbf8Ya2KqS7Ok7gSrh1+VYv7GBJCIiAi9g0Z9DCCHDx/Wez5SBxAx9yepSNlZCAsL07ruYWHVHyhak6qfP0MvxRErgBj6Db8pOvDmCAiWFkAMDW7mCD7GBhA19fHHWjr31tJOS8JbjFk9sXb8nJwcUQ54crmc3nnnHZvrBO/atcssAUTXDbW6Aoi2wCLWGROxtr2us1LGBBBt7akpgGgLLNpCp7FnQKpSX95oSaTuLKg/P3Vdjno+S7SMmkVkvm/Oxbwkicut58yLIeV1DSC6vsjQ5740c+EQYjjeYszqibHjV75pToz5Ve3AWVon2ND6hnZqtXWydQUKhUIhWgCR8hIvY7a9tn+YNW1LbfXfeecd0QKIvvXFCiBE/7280ZKCiJSdhcqfH7GOTVVHzSIyX8eVy8UvF+OMhi0FkKqMvUTa1DiEGI63GLN6YnzbWHnUDrEOJOqOnDV1gg29rEffTq1YgUJdLkZ9bcvVFYh0rWtNZzTECAgbN240OIDo+huaI4AQ/Xd/sqQgIlVnoeq+K+ZZ2sqXc1liR5rLuZxI/ABCZNxgMebAIcRwvMWsVE3XXfNk2LRu3TqNbSvmgSQ5Odns68cTT4ZMYv+jB/67P61fv97s6yflVHWEvMrrXlc5OTnUvn17s68jTzzVNAUGBooaQIj+ux/x/1NpJ3Pcs2f3f39gxqyWnZ0dxPwYiz2/2qhUKty4cQMdO3Y02TIZMxVT70/6MFWbLHHdGbM21rIfWUs7LUkDczeAsfrur7/+wuTJk83dDMYYY4wxk+EQwlgtVCoVli5dips3b0oy/8jISPz+++/4/PPPkZKSgoCAAISFhSEsLAzLli1Dbm4upk+fLtT//vvvsXv3bknawhhjjDFmCg7mbgBjlkqlUmH58uX48ssvkZeXh+DgYLRq1Ur05cycORNnz57FtGnTkJaWhjfeeAPz5s0TXn/w4AEePnwo/F5UVASlUil6Oxhj1u/WrVvw9PRE48aNzd0UxhirEYcQxrRYunSpED6k5uHhAUdHR6HTkJ6ejri4OABA69at0apVK9y8eVMoS0tLw9/+9jfJ28UYsz5RUVEYMWIEXnvtNXM3hTHGasSXYzGrcPz4cRw+fFjy5eTm5gIAZDJZtQDSv39/2NnZGT3Fxsbq1QYHBwc4OzvD2dkZjo6OAAB7e/tqZYwx3W7evImpU6eisLDQ3E3RkJmZidWrV0sy77S0NBw7dgxRUVH4448/MGLECOHSzrCwMGRkZOCHH37Azp07hfd88sknyM7OlqQ9jDFWEz4TwqzC5cuXMWvWLHTt2hVr165FUFCQJMvx8vICALz22ms4e/YsHj9+LLz2008/ISAgQJLlVh5Rw8/PD8OHDxd+f/DgAby9vYUyhULBl2MxVovbt28jJiYGiYmJmDp1KhYtWgQHB/P9y8vMzMT06dNx9uxZtGnTRuOSS7G89NJLCAgIwOuvv46WLVsiPz8fBw4c0Khz8eJFjWD26NEjlJeXi94WxphpXblyBZ07d4adnZ25m6I3PhPCrMqlS5cQHByMbt264fjx45ItJzExEefOncNrr70GT09PyZYDAO7u7rh58ya2bNkCAIiNjRW+uax8QzpjzHB3796FTCbDc889h6VLl0KlUpl0+ZmZmRg6dCj8/f2RlJSEx48fw8nJSZJlNWzYEC4uLvDw8ICDgwPKy8sRFxcnTEVFRQCAX375RSjLzMyUpC2MMdMaPXo0SktLzd0Mg/CZEGaV1GHkhRdekGwZbdq0QWJiIjIzMzFx4kS4urpKshw3Nzf8/PPPUCqVaNeundZruSuPhvX2229L0g7GLElsbKyon/W8vDzIZDKsWbNGtHnqo1u3bkLnX+327dt1/rZSoVDAzc2t1nrOzs7Cz+plOjo6CuX29vZ1agdjYomOjsbUqVP1+lxbi/j4eHTu3BmdO3eWdDkxMTG4e/cu3nvvPWzevBn+/v7o0qWL8Pru3btx6dL/b+/+Q6uq/ziOv66KP8uJuWKQNFEMjflPxMSEjEm6HGhOaZMwJYPKckbmH2aL2z+jMNxlLQYlZbHK2ozQMLAh1IYSQeq6E0S6Wrbh7Y+SZmh38fn+Efd+t917d++5Oz/vng84UO8dP5/P/fW5n9e955zbq0gkolu3bikUCumdd97Rbbfd5ui4cnL95xExYbW3t9v2y55z5swxTz75pPnzzz+N3U9jXhaAfbx6PX333Xdpc8aaNWtMf3+/a2OSZJqbm9N+6XzFihWO9fnMM8+YEydOGGOMWbVqVdrfP/30U9PW1pb6/x07dphLly45Nh4gXxUVFeauu+4yTz31lBkcHEzVg/KePHyc33zzjamoqEjNAU4bHBw0ixYtMr/99pu5efOmWbt2bdo+27ZtM729vcYYY7744gvzySefOD6uXDgcC67ZsmWLjDEFbc3NzZKkOXPmaM2aNerr69MHH3ygkpISj28VAD9Lzhk//PCDvv76a5WVlbnaf0NDg6LRqJqbm7V48WLH+ystLVUkEtGvv/6qf/75Z8SJ6adOnXK8f6BQt99+u65du6ZDhw5p4cKF2rFjh+uHT45XV1eXli1bptWrV6u3t9e1fmfNmqUpU6bojjvukCQNDAykDrk8fvy4JKmqqkovvviiPvroI61cuVJ1dXWujS8bDsdCIEybNk1r1qxRa2urFi5c6PVwAM/88ccf+vvvvx09FLEYzJw5UytWrNCHH37o+ZwxZcoUNTQ0aOfOnWptbdWJEycc6+vVV1/VuXPnNG/ePPX09OTc/91333VsLEChkmGks7PT66HkJRmWVq9e7fFI/jNp0qTUIZfJc9CeeOIJrVq1SidOnFBtba1efvll1dTUeDlMhYwZdlkeIIBCoZDsfBrb3R5gpyNHjujs2bNqamryeih58ePrya0x+fG2A3aw+5wtSVq8eLEuXrw44v+fe+457d69OxCvo1AopOXLl+vMmTOO9rNs2TKdO3curb5kyRL9+OOPCoVC2rBhQ9qHHU8//bRaW1s1depURaNRvfnmmzp8+LCjY82Fw7EAICCuX7+uSCSiL7/8UsePH1dTU5PWrVuXOtyms7NTf/31l3bu3Klt27Zpw4YNunDhguPjikQiWrhwob7//nvH+3JCR0eHysrK+L0MIE/jObw62zZv3jxJ0vz589Xc3KxoNKqGhgaPb6k1p0+fVjQa1fLly1O15uZmW++nTAFE+u9QzJdeekmSdPbs2RGHYl67dk01NTXauHGj9u/frxdeeEHbt2935T4ZC4djAUBAzJ49W9u3b9dPP/2kqqoq9fT0qLGxUZWVlal9Dh8+rCVLluj555/X1atXdfDgQVeuCPXzzz+rsrJSDz/8sN5++23HrwZjh46ODu3Zs0dXrlzxeijAhHflyhW99tprnv+mz3gtXbpUp0+fVl9fn+rq6hy7JPdox44d06VLlzRt2jQNDAyk/X39+vV65JFH9Msvv2jfvn2OXfHTiuA+ygAwwYRCIc2ePVszZ87UjBkzJEknT55MfYJfWVmpBx54QNu3b9fQ0JDWrVvn+iVpT506pfvuu0/Lly/XoUOHXO3bivLycsIH4CNXr171egjjMvqQsaVLl+r8+fOu9V9SUqL7779/zH1mzJihe++916UR5cbhWAAQYFOnTtX06dM1ffp0TZ48WUuXLtXJkyc1f/587du3T42NjTnbeP311xUKhQredu/endbmmTNnfHH1ldHi8bgkZQwgCxYsGNf98PHHH7t9cwAgsAghABAwwz9xe+ihh7R+/XqtX79e8+fPV0tLiy5evKja2lp99tlneV2JqbGxcVzHKCcvoZ1UUVGhaDTq6qeA+brzzjslSZ9//rnuueeeEX+LxWLjuh+2bNnixU0CgEDicCxglCBchQMTV2lpqY4fP661a9dKkvbv3586oXPlypWqrq7Ws88+q8rKSl24cEGPP/64a2OrqKjQwYMHVVVVlar59fW0adMmbdq0SR0dHXrllVdGXJUHAOA8LtGLwOMymJhootGoSktLU5/qj/bvv/8qFotp7ty5mjt3ruPj6evr08DAwIjw4WeZ5oyOjg5VV1dr1qxZjvYDwBpeR8WLEILAY4IC4EfMTcD48ToqXpwTAgAAAMBVhBAAAAAAriKEAABg0Y0bN/T777871n5vb2/WfoeGhtLq2caSrZ1sdavt3Lhxw1I72fa3Wrer/WztBKX9bHW7Hner/X777bcZ63YYGhpK/SYSigNXxwqoy5cva8GCBV4PwzdCoZDXQwAwwWzcuFFtbW0qLS21td2enh69//77vv6xRyCTxx57TJMnT9aDDz5oa7tDQ0PaunWrbt26paNHj9raNv4Ti8VUXl7uap98ExJQ5eXl47qefTFtkjwfAxsb28Tbjhw5ooaGBlu/Eenp6VFXV5fee++9EX3F43HV19crkUiMqHd3dyscDqeNLRwOq7u7O62ebf/u7m7H97dab29vd7T9Yq07/biM1e/Ro0fV1dWlnp4e214TkrR161ZFIhF1dnYW/HplG3tzO4BIkgwQcDyNAXglkUiY+vp6E4/H0/5mdW7q7u424XA4rR6Px019fb1JJBJ57d/e3m66u7vzbr+7u9vy/i0tLZb2p+5O/auvvvKk39HPn3A4nPE5ZVUikTCSMr6+EHys3hB4hBAAXsoWRKzMTXYFkEIChVcLV+rFUW9vb89Yf/TRRwsOIpIybpn6QnCxekPgEUIAeC1TEMl3borH4xm/WcgWQGKxmG0BhDp1J+uFfiMy/PXEe3zx4pFF4DFBAfCD5MIpGRrymZuyBZDRbeXanwBC3a91q0FkdKDnPb548cgi8JigAPhFIpEw4XA4dSz7WMYKIMk28tnfTwtO6tQz1fM9NGs83ygieBx5ZJuamsyiRYtGbNXV1U50BTBBAfCVZIgYa26Kx+Nm165dWf8tAYR6sdVzfSNix7lVCBZHHtk9e/aYpqYmc/PmzdR269YtJ7oCmKAA+E7ym5DRYcKY7Od6jBVArJ6cTt27+vnz5301Hj/VswURO68yh+BwLIQcOHDAiaaBNExQAPxIUlp4GCuAZFqEEUDsrY91Ur8ddavfWE3EwDL60KyxAogxvMcXM8dCSE1NjTlw4EBqO3bsmBNdAUxQAHwp+fsGyRAR9ADi9ILZ6UPOrLbvt/2LqR4Oh00sFssZQIzhPb6YORZCamtrTVtbW2o7efKkE10BTFAAfCk5N8XjcbNx40ZTV1cX2ABSyAJ7IgUErwKI1fvZT9+8tLS0mL179+b8IULe44sXh2Mh8JigAPhRrhBSzAEkCPtnOzSrkPYzXWRgrN9/sVL3Y/Cxo9+WlhbT1NSUM4TEYrEx/47gIoQg8AghAPxorMOxCCD/399q3Wr79fX1ebeTLVDkaj/fq5lZHY/Tj4tX/ba0tKSe+8P/GxOLYyGkpKTE3H333SO2mzdvOtEdJjhCCAA/ynZiel1dnamrqxt3AHH6UJxCPuG32r7VBbyVk80LDQh+2d/pb3b8EECMyX1iOooXqzcEHiEEgF/U19cbSWnb8E+/+/v7zebNm/O6apbTC8JswcTOBXYxBoSx9s8W3Kzs78dvXuwIpMkT0kcjiExMrN4QeIQQAH6SXPjl+rHCXFfN8upQHC8X8E4HlmwLcjvbt6Pu9P3gRvAZvX84XNiPFaJ4sXpD4BFCAPjF8AVYrrkpHo+bzZs3Z7xqlp2Bwq4AYvUTfqcX8E63b/X2enW77LofnOw3VwBJIohMLKzeEHiEEAB+MHoBls/c1N/fnxZC7PxE2uohNF59kl9I3en2vah79c2Lk4E03wCSRBCZOFi9IfAIIQC8lmkBlu/cNPzfunGStVef8FMvjgBipW41gCQRRCYGVm8IPEIIAC9lW4BZmZuSh2ZFIpG82ydQUB9v3cnnT6EBJIkgUvxYvSHwCCEAvJJIJMyuXbvSFmDGWJ+bMi3m/LhwpU49V328ASSJIFLcWL0h8AghALyQSCRMOBzOGECMKWxuGn6+g98WltSp51O3K4AkEUSKF6s3BB4hBIDbcgUQYwqfm+LxuHnrrbcsLfwGBwct1e1acHrVPnV/1u0OIEkEkeIUMsYYIXAuX76sBQsWeD0MAJiw+vv7VVZWlvXvoVBIhb7F9vb2atmyZYUODfDE3r179cYbbzjS9vXr1zVnzhxH2oYUi8VUXl7uap+EEATeeN7oAcApzE0AkN0krwcAAAAAYGIhhAAAAABwFSEEAAAAgKsIIQAAAABcRQhB4LW3t3s9BABIw9wEANlxdSwAAAAAruKbEAAAAACuIoQAAAAAcBUhBAAAAICrCCEAAAAAXEUIAQAAAOAqQggAAAAAVxFCAAAAALiKEAIAAADAVYQQAAAAAK4ihAAAAABwFSEEAAAAgKsIIQAAAABcRQgBAAAA4CpCCAAAAABXEUIAAAAAuIoQAgAAAMBVhBAAAAAAriKEAAAAAHAVIQQAAACAqwghAAAAAFz1P+U4dncHOhhjAAAAAElFTkSuQmCC;" vertex="1" parent="1">
          <mxGeometry x="13" y="545" width="801" height="436" as="geometry" />
        </mxCell>
        <mxCell id="s_b_cYuPZwbkjftlkVLz-3" value="65C02 Bus Timing" style="text;html=1;strokeColor=none;fillColor=none;align=center;verticalAlign=middle;whiteSpace=wrap;rounded=0;fontStyle=1;fontSize=14;" vertex="1" parent="1">
          <mxGeometry x="350" y="50" width="150" height="30" as="geometry" />
        </mxCell>
        <mxCell id="s_b_cYuPZwbkjftlkVLz-4" value="65C816 Bus Timing" style="text;html=1;strokeColor=none;fillColor=none;align=center;verticalAlign=middle;whiteSpace=wrap;rounded=0;fontStyle=1;fontSize=14;" vertex="1" parent="1">
          <mxGeometry x="350" y="530" width="150" height="30" as="geometry" />
        </mxCell>
        <mxCell id="s_b_cYuPZwbkjftlkVLz-5" value="" style="rounded=1;whiteSpace=wrap;html=1;fillColor=#f8cecc;strokeColor=#b85450;opacity=50;" vertex="1" parent="1">
          <mxGeometry x="300" y="680" width="190" height="30" as="geometry" />
        </mxCell>
        <mxCell id="s_b_cYuPZwbkjftlkVLz-6" value="" style="rounded=1;whiteSpace=wrap;html=1;fillColor=#f8cecc;strokeColor=#b85450;opacity=50;" vertex="1" parent="1">
          <mxGeometry x="290" y="730" width="200" height="30" as="geometry" />
        </mxCell>
        <mxCell id="s_b_cYuPZwbkjftlkVLz-7" value="" style="rounded=1;whiteSpace=wrap;html=1;fillColor=#fff2cc;strokeColor=#d6b656;opacity=50;" vertex="1" parent="1">
          <mxGeometry x="120" y="830" width="670" height="130" as="geometry" />
        </mxCell>
        <mxCell id="s_b_cYuPZwbkjftlkVLz-8" value="" style="rounded=1;whiteSpace=wrap;html=1;fillColor=#d5e8d4;strokeColor=#82b366;opacity=50;" vertex="1" parent="1">
          <mxGeometry x="640" y="230" width="110" height="30" as="geometry" />
        </mxCell>
        <mxCell id="s_b_cYuPZwbkjftlkVLz-9" value="" style="rounded=1;whiteSpace=wrap;html=1;fillColor=#d5e8d4;strokeColor=#82b366;opacity=50;" vertex="1" parent="1">
          <mxGeometry x="550" y="280" width="200" height="30" as="geometry" />
        </mxCell>
        <mxCell id="s_b_cYuPZwbkjftlkVLz-10" value="" style="rounded=1;whiteSpace=wrap;html=1;fillColor=#d5e8d4;strokeColor=#82b366;opacity=50;" vertex="1" parent="1">
          <mxGeometry x="700" y="680" width="90" height="30" as="geometry" />
        </mxCell>
        <mxCell id="s_b_cYuPZwbkjftlkVLz-11" value="" style="rounded=1;whiteSpace=wrap;html=1;fillColor=#d5e8d4;strokeColor=#82b366;opacity=50;" vertex="1" parent="1">
          <mxGeometry x="540" y="730" width="240" height="30" as="geometry" />
        </mxCell>
        <mxCell id="s_b_cYuPZwbkjftlkVLz-12" value="" style="rounded=1;whiteSpace=wrap;html=1;fillColor=#d5e8d4;strokeColor=#82b366;opacity=50;" vertex="1" parent="1">
          <mxGeometry x="300" y="630" width="470" height="30" as="geometry" />
        </mxCell>
        <mxCell id="s_b_cYuPZwbkjftlkVLz-13" value="" style="rounded=1;whiteSpace=wrap;html=1;fillColor=#d5e8d4;strokeColor=#82b366;opacity=50;" vertex="1" parent="1">
          <mxGeometry x="380" y="180" width="360" height="30" as="geometry" />
        </mxCell>
      </root>
    </mxGraphModel>
  </diagram>
</mxfile>
